<?xml version="1.0" encoding="utf-8" standalone="no"?>
<!DOCTYPE svg PUBLIC "-//W3C//DTD SVG 1.1//EN"
  "http://www.w3.org/Graphics/SVG/1.1/DTD/svg11.dtd">
<svg xmlns:xlink="http://www.w3.org/1999/xlink" width="629.5325pt" height="397.305pt" viewBox="0 0 629.5325 397.305" xmlns="http://www.w3.org/2000/svg" version="1.1">
 <metadata>
  <rdf:RDF xmlns:dc="http://purl.org/dc/elements/1.1/" xmlns:cc="http://creativecommons.org/ns#" xmlns:rdf="http://www.w3.org/1999/02/22-rdf-syntax-ns#">
   <cc:Work>
    <dc:type rdf:resource="http://purl.org/dc/dcmitype/StillImage"/>
    <dc:date>2026-06-24T16:55:56.482106</dc:date>
    <dc:format>image/svg+xml</dc:format>
    <dc:creator>
     <cc:Agent>
      <dc:title>Matplotlib v3.10.8, https://matplotlib.org/</dc:title>
     </cc:Agent>
    </dc:creator>
   </cc:Work>
  </rdf:RDF>
 </metadata>
 <defs>
  <style type="text/css">*{stroke-linejoin: round; stroke-linecap: butt}</style>
 </defs>
 <g id="figure_1">
  <g id="patch_1">
   <path d="M -0 397.305 
L 629.5325 397.305 
L 629.5325 0 
L -0 0 
z
" style="fill: #ffffff"/>
  </g>
  <g id="axes_1">
   <g id="patch_2">
    <path d="M 64.3325 339.84 
L 622.3325 339.84 
L 622.3325 7.2 
L 64.3325 7.2 
z
" style="fill: #ffffff"/>
   </g>
   <g id="matplotlib.axis_1">
    <g id="xtick_1">
     <g id="line2d_1">
      <path d="M 73.445397 339.84 
L 73.445397 7.2 
" clip-path="url(#p5e53cbecde)" style="fill: none; stroke: #cccccc; stroke-width: 0.8; stroke-linecap: round"/>
     </g>
     <g id="text_1">
      <!-- 0.75 -->
      <g style="fill: #262626" transform="translate(59.82274 366.860937) scale(0.14 -0.14)">
       <defs>
        <path id="ArialMT-30" d="M 266 2259 
Q 266 3072 433 3567 
Q 600 4063 929 4331 
Q 1259 4600 1759 4600 
Q 2128 4600 2406 4451 
Q 2684 4303 2865 4023 
Q 3047 3744 3150 3342 
Q 3253 2941 3253 2259 
Q 3253 1453 3087 958 
Q 2922 463 2592 192 
Q 2263 -78 1759 -78 
Q 1097 -78 719 397 
Q 266 969 266 2259 
z
M 844 2259 
Q 844 1131 1108 757 
Q 1372 384 1759 384 
Q 2147 384 2411 759 
Q 2675 1134 2675 2259 
Q 2675 3391 2411 3762 
Q 2147 4134 1753 4134 
Q 1366 4134 1134 3806 
Q 844 3388 844 2259 
z
" transform="scale(0.015625)"/>
        <path id="ArialMT-2e" d="M 581 0 
L 581 641 
L 1222 641 
L 1222 0 
L 581 0 
z
" transform="scale(0.015625)"/>
        <path id="ArialMT-37" d="M 303 3981 
L 303 4522 
L 3269 4522 
L 3269 4084 
Q 2831 3619 2401 2847 
Q 1972 2075 1738 1259 
Q 1569 684 1522 0 
L 944 0 
Q 953 541 1156 1306 
Q 1359 2072 1739 2783 
Q 2119 3494 2547 3981 
L 303 3981 
z
" transform="scale(0.015625)"/>
        <path id="ArialMT-35" d="M 266 1200 
L 856 1250 
Q 922 819 1161 601 
Q 1400 384 1738 384 
Q 2144 384 2425 690 
Q 2706 997 2706 1503 
Q 2706 1984 2436 2262 
Q 2166 2541 1728 2541 
Q 1456 2541 1237 2417 
Q 1019 2294 894 2097 
L 366 2166 
L 809 4519 
L 3088 4519 
L 3088 3981 
L 1259 3981 
L 1013 2750 
Q 1425 3038 1878 3038 
Q 2478 3038 2890 2622 
Q 3303 2206 3303 1553 
Q 3303 931 2941 478 
Q 2500 -78 1738 -78 
Q 1113 -78 717 272 
Q 322 622 266 1200 
z
" transform="scale(0.015625)"/>
       </defs>
       <use xlink:href="#ArialMT-30"/>
       <use xlink:href="#ArialMT-2e" transform="translate(55.615234 0)"/>
       <use xlink:href="#ArialMT-37" transform="translate(83.398438 0)"/>
       <use xlink:href="#ArialMT-35" transform="translate(139.013672 0)"/>
      </g>
     </g>
    </g>
    <g id="xtick_2">
     <g id="line2d_2">
      <path d="M 145.993999 339.84 
L 145.993999 7.2 
" clip-path="url(#p5e53cbecde)" style="fill: none; stroke: #cccccc; stroke-width: 0.8; stroke-linecap: round"/>
     </g>
     <g id="text_2">
      <!-- 1.00 -->
      <g style="fill: #262626" transform="translate(132.371343 366.860937) scale(0.14 -0.14)">
       <defs>
        <path id="ArialMT-31" d="M 2384 0 
L 1822 0 
L 1822 3584 
Q 1619 3391 1289 3197 
Q 959 3003 697 2906 
L 697 3450 
Q 1169 3672 1522 3987 
Q 1875 4303 2022 4600 
L 2384 4600 
L 2384 0 
z
" transform="scale(0.015625)"/>
       </defs>
       <use xlink:href="#ArialMT-31"/>
       <use xlink:href="#ArialMT-2e" transform="translate(55.615234 0)"/>
       <use xlink:href="#ArialMT-30" transform="translate(83.398438 0)"/>
       <use xlink:href="#ArialMT-30" transform="translate(139.013672 0)"/>
      </g>
     </g>
    </g>
    <g id="xtick_3">
     <g id="line2d_3">
      <path d="M 218.542602 339.84 
L 218.542602 7.2 
" clip-path="url(#p5e53cbecde)" style="fill: none; stroke: #cccccc; stroke-width: 0.8; stroke-linecap: round"/>
     </g>
     <g id="text_3">
      <!-- 1.25 -->
      <g style="fill: #262626" transform="translate(204.919946 366.860937) scale(0.14 -0.14)">
       <defs>
        <path id="ArialMT-32" d="M 3222 541 
L 3222 0 
L 194 0 
Q 188 203 259 391 
Q 375 700 629 1000 
Q 884 1300 1366 1694 
Q 2113 2306 2375 2664 
Q 2638 3022 2638 3341 
Q 2638 3675 2398 3904 
Q 2159 4134 1775 4134 
Q 1369 4134 1125 3890 
Q 881 3647 878 3216 
L 300 3275 
Q 359 3922 746 4261 
Q 1134 4600 1788 4600 
Q 2447 4600 2831 4234 
Q 3216 3869 3216 3328 
Q 3216 3053 3103 2787 
Q 2991 2522 2730 2228 
Q 2469 1934 1863 1422 
Q 1356 997 1212 845 
Q 1069 694 975 541 
L 3222 541 
z
" transform="scale(0.015625)"/>
       </defs>
       <use xlink:href="#ArialMT-31"/>
       <use xlink:href="#ArialMT-2e" transform="translate(55.615234 0)"/>
       <use xlink:href="#ArialMT-32" transform="translate(83.398438 0)"/>
       <use xlink:href="#ArialMT-35" transform="translate(139.013672 0)"/>
      </g>
     </g>
    </g>
    <g id="xtick_4">
     <g id="line2d_4">
      <path d="M 291.091205 339.84 
L 291.091205 7.2 
" clip-path="url(#p5e53cbecde)" style="fill: none; stroke: #cccccc; stroke-width: 0.8; stroke-linecap: round"/>
     </g>
     <g id="text_4">
      <!-- 1.50 -->
      <g style="fill: #262626" transform="translate(277.468549 366.860937) scale(0.14 -0.14)">
       <use xlink:href="#ArialMT-31"/>
       <use xlink:href="#ArialMT-2e" transform="translate(55.615234 0)"/>
       <use xlink:href="#ArialMT-35" transform="translate(83.398438 0)"/>
       <use xlink:href="#ArialMT-30" transform="translate(139.013672 0)"/>
      </g>
     </g>
    </g>
    <g id="xtick_5">
     <g id="line2d_5">
      <path d="M 363.639808 339.84 
L 363.639808 7.2 
" clip-path="url(#p5e53cbecde)" style="fill: none; stroke: #cccccc; stroke-width: 0.8; stroke-linecap: round"/>
     </g>
     <g id="text_5">
      <!-- 1.75 -->
      <g style="fill: #262626" transform="translate(350.017151 366.860937) scale(0.14 -0.14)">
       <use xlink:href="#ArialMT-31"/>
       <use xlink:href="#ArialMT-2e" transform="translate(55.615234 0)"/>
       <use xlink:href="#ArialMT-37" transform="translate(83.398438 0)"/>
       <use xlink:href="#ArialMT-35" transform="translate(139.013672 0)"/>
      </g>
     </g>
    </g>
    <g id="xtick_6">
     <g id="line2d_6">
      <path d="M 436.188411 339.84 
L 436.188411 7.2 
" clip-path="url(#p5e53cbecde)" style="fill: none; stroke: #cccccc; stroke-width: 0.8; stroke-linecap: round"/>
     </g>
     <g id="text_6">
      <!-- 2.00 -->
      <g style="fill: #262626" transform="translate(422.565754 366.860937) scale(0.14 -0.14)">
       <use xlink:href="#ArialMT-32"/>
       <use xlink:href="#ArialMT-2e" transform="translate(55.615234 0)"/>
       <use xlink:href="#ArialMT-30" transform="translate(83.398438 0)"/>
       <use xlink:href="#ArialMT-30" transform="translate(139.013672 0)"/>
      </g>
     </g>
    </g>
    <g id="xtick_7">
     <g id="line2d_7">
      <path d="M 508.737013 339.84 
L 508.737013 7.2 
" clip-path="url(#p5e53cbecde)" style="fill: none; stroke: #cccccc; stroke-width: 0.8; stroke-linecap: round"/>
     </g>
     <g id="text_7">
      <!-- 2.25 -->
      <g style="fill: #262626" transform="translate(495.114357 366.860937) scale(0.14 -0.14)">
       <use xlink:href="#ArialMT-32"/>
       <use xlink:href="#ArialMT-2e" transform="translate(55.615234 0)"/>
       <use xlink:href="#ArialMT-32" transform="translate(83.398438 0)"/>
       <use xlink:href="#ArialMT-35" transform="translate(139.013672 0)"/>
      </g>
     </g>
    </g>
    <g id="xtick_8">
     <g id="line2d_8">
      <path d="M 581.285616 339.84 
L 581.285616 7.2 
" clip-path="url(#p5e53cbecde)" style="fill: none; stroke: #cccccc; stroke-width: 0.8; stroke-linecap: round"/>
     </g>
     <g id="text_8">
      <!-- 2.50 -->
      <g style="fill: #262626" transform="translate(567.66296 366.860937) scale(0.14 -0.14)">
       <use xlink:href="#ArialMT-32"/>
       <use xlink:href="#ArialMT-2e" transform="translate(55.615234 0)"/>
       <use xlink:href="#ArialMT-35" transform="translate(83.398438 0)"/>
       <use xlink:href="#ArialMT-30" transform="translate(139.013672 0)"/>
      </g>
     </g>
    </g>
    <g id="text_9">
     <!-- Truncated Power-Law Alpha -->
     <g style="fill: #262626" transform="translate(230.613125 386.5275) scale(0.18 -0.18)">
      <defs>
       <path id="ArialMT-54" d="M 1659 0 
L 1659 4041 
L 150 4041 
L 150 4581 
L 3781 4581 
L 3781 4041 
L 2266 4041 
L 2266 0 
L 1659 0 
z
" transform="scale(0.015625)"/>
       <path id="ArialMT-72" d="M 416 0 
L 416 3319 
L 922 3319 
L 922 2816 
Q 1116 3169 1280 3281 
Q 1444 3394 1641 3394 
Q 1925 3394 2219 3213 
L 2025 2691 
Q 1819 2813 1613 2813 
Q 1428 2813 1281 2702 
Q 1134 2591 1072 2394 
Q 978 2094 978 1738 
L 978 0 
L 416 0 
z
" transform="scale(0.015625)"/>
       <path id="ArialMT-75" d="M 2597 0 
L 2597 488 
Q 2209 -75 1544 -75 
Q 1250 -75 995 37 
Q 741 150 617 320 
Q 494 491 444 738 
Q 409 903 409 1263 
L 409 3319 
L 972 3319 
L 972 1478 
Q 972 1038 1006 884 
Q 1059 663 1231 536 
Q 1403 409 1656 409 
Q 1909 409 2131 539 
Q 2353 669 2445 892 
Q 2538 1116 2538 1541 
L 2538 3319 
L 3100 3319 
L 3100 0 
L 2597 0 
z
" transform="scale(0.015625)"/>
       <path id="ArialMT-6e" d="M 422 0 
L 422 3319 
L 928 3319 
L 928 2847 
Q 1294 3394 1984 3394 
Q 2284 3394 2536 3286 
Q 2788 3178 2913 3003 
Q 3038 2828 3088 2588 
Q 3119 2431 3119 2041 
L 3119 0 
L 2556 0 
L 2556 2019 
Q 2556 2363 2490 2533 
Q 2425 2703 2258 2804 
Q 2091 2906 1866 2906 
Q 1506 2906 1245 2678 
Q 984 2450 984 1813 
L 984 0 
L 422 0 
z
" transform="scale(0.015625)"/>
       <path id="ArialMT-63" d="M 2588 1216 
L 3141 1144 
Q 3050 572 2676 248 
Q 2303 -75 1759 -75 
Q 1078 -75 664 370 
Q 250 816 250 1647 
Q 250 2184 428 2587 
Q 606 2991 970 3192 
Q 1334 3394 1763 3394 
Q 2303 3394 2647 3120 
Q 2991 2847 3088 2344 
L 2541 2259 
Q 2463 2594 2264 2762 
Q 2066 2931 1784 2931 
Q 1359 2931 1093 2626 
Q 828 2322 828 1663 
Q 828 994 1084 691 
Q 1341 388 1753 388 
Q 2084 388 2306 591 
Q 2528 794 2588 1216 
z
" transform="scale(0.015625)"/>
       <path id="ArialMT-61" d="M 2588 409 
Q 2275 144 1986 34 
Q 1697 -75 1366 -75 
Q 819 -75 525 192 
Q 231 459 231 875 
Q 231 1119 342 1320 
Q 453 1522 633 1644 
Q 813 1766 1038 1828 
Q 1203 1872 1538 1913 
Q 2219 1994 2541 2106 
Q 2544 2222 2544 2253 
Q 2544 2597 2384 2738 
Q 2169 2928 1744 2928 
Q 1347 2928 1158 2789 
Q 969 2650 878 2297 
L 328 2372 
Q 403 2725 575 2942 
Q 747 3159 1072 3276 
Q 1397 3394 1825 3394 
Q 2250 3394 2515 3294 
Q 2781 3194 2906 3042 
Q 3031 2891 3081 2659 
Q 3109 2516 3109 2141 
L 3109 1391 
Q 3109 606 3145 398 
Q 3181 191 3288 0 
L 2700 0 
Q 2613 175 2588 409 
z
M 2541 1666 
Q 2234 1541 1622 1453 
Q 1275 1403 1131 1340 
Q 988 1278 909 1158 
Q 831 1038 831 891 
Q 831 666 1001 516 
Q 1172 366 1500 366 
Q 1825 366 2078 508 
Q 2331 650 2450 897 
Q 2541 1088 2541 1459 
L 2541 1666 
z
" transform="scale(0.015625)"/>
       <path id="ArialMT-74" d="M 1650 503 
L 1731 6 
Q 1494 -44 1306 -44 
Q 1000 -44 831 53 
Q 663 150 594 308 
Q 525 466 525 972 
L 525 2881 
L 113 2881 
L 113 3319 
L 525 3319 
L 525 4141 
L 1084 4478 
L 1084 3319 
L 1650 3319 
L 1650 2881 
L 1084 2881 
L 1084 941 
Q 1084 700 1114 631 
Q 1144 563 1211 522 
Q 1278 481 1403 481 
Q 1497 481 1650 503 
z
" transform="scale(0.015625)"/>
       <path id="ArialMT-65" d="M 2694 1069 
L 3275 997 
Q 3138 488 2766 206 
Q 2394 -75 1816 -75 
Q 1088 -75 661 373 
Q 234 822 234 1631 
Q 234 2469 665 2931 
Q 1097 3394 1784 3394 
Q 2450 3394 2872 2941 
Q 3294 2488 3294 1666 
Q 3294 1616 3291 1516 
L 816 1516 
Q 847 969 1125 678 
Q 1403 388 1819 388 
Q 2128 388 2347 550 
Q 2566 713 2694 1069 
z
M 847 1978 
L 2700 1978 
Q 2663 2397 2488 2606 
Q 2219 2931 1791 2931 
Q 1403 2931 1139 2672 
Q 875 2413 847 1978 
z
" transform="scale(0.015625)"/>
       <path id="ArialMT-64" d="M 2575 0 
L 2575 419 
Q 2259 -75 1647 -75 
Q 1250 -75 917 144 
Q 584 363 401 755 
Q 219 1147 219 1656 
Q 219 2153 384 2558 
Q 550 2963 881 3178 
Q 1213 3394 1622 3394 
Q 1922 3394 2156 3267 
Q 2391 3141 2538 2938 
L 2538 4581 
L 3097 4581 
L 3097 0 
L 2575 0 
z
M 797 1656 
Q 797 1019 1065 703 
Q 1334 388 1700 388 
Q 2069 388 2326 689 
Q 2584 991 2584 1609 
Q 2584 2291 2321 2609 
Q 2059 2928 1675 2928 
Q 1300 2928 1048 2622 
Q 797 2316 797 1656 
z
" transform="scale(0.015625)"/>
       <path id="ArialMT-20" transform="scale(0.015625)"/>
       <path id="ArialMT-50" d="M 494 0 
L 494 4581 
L 2222 4581 
Q 2678 4581 2919 4538 
Q 3256 4481 3484 4323 
Q 3713 4166 3852 3881 
Q 3991 3597 3991 3256 
Q 3991 2672 3619 2267 
Q 3247 1863 2275 1863 
L 1100 1863 
L 1100 0 
L 494 0 
z
M 1100 2403 
L 2284 2403 
Q 2872 2403 3119 2622 
Q 3366 2841 3366 3238 
Q 3366 3525 3220 3729 
Q 3075 3934 2838 4000 
Q 2684 4041 2272 4041 
L 1100 4041 
L 1100 2403 
z
" transform="scale(0.015625)"/>
       <path id="ArialMT-6f" d="M 213 1659 
Q 213 2581 725 3025 
Q 1153 3394 1769 3394 
Q 2453 3394 2887 2945 
Q 3322 2497 3322 1706 
Q 3322 1066 3130 698 
Q 2938 331 2570 128 
Q 2203 -75 1769 -75 
Q 1072 -75 642 372 
Q 213 819 213 1659 
z
M 791 1659 
Q 791 1022 1069 705 
Q 1347 388 1769 388 
Q 2188 388 2466 706 
Q 2744 1025 2744 1678 
Q 2744 2294 2464 2611 
Q 2184 2928 1769 2928 
Q 1347 2928 1069 2612 
Q 791 2297 791 1659 
z
" transform="scale(0.015625)"/>
       <path id="ArialMT-77" d="M 1034 0 
L 19 3319 
L 600 3319 
L 1128 1403 
L 1325 691 
Q 1338 744 1497 1375 
L 2025 3319 
L 2603 3319 
L 3100 1394 
L 3266 759 
L 3456 1400 
L 4025 3319 
L 4572 3319 
L 3534 0 
L 2950 0 
L 2422 1988 
L 2294 2553 
L 1622 0 
L 1034 0 
z
" transform="scale(0.015625)"/>
       <path id="ArialMT-2d" d="M 203 1375 
L 203 1941 
L 1931 1941 
L 1931 1375 
L 203 1375 
z
" transform="scale(0.015625)"/>
       <path id="ArialMT-4c" d="M 469 0 
L 469 4581 
L 1075 4581 
L 1075 541 
L 3331 541 
L 3331 0 
L 469 0 
z
" transform="scale(0.015625)"/>
       <path id="ArialMT-41" d="M -9 0 
L 1750 4581 
L 2403 4581 
L 4278 0 
L 3588 0 
L 3053 1388 
L 1138 1388 
L 634 0 
L -9 0 
z
M 1313 1881 
L 2866 1881 
L 2388 3150 
Q 2169 3728 2063 4100 
Q 1975 3659 1816 3225 
L 1313 1881 
z
" transform="scale(0.015625)"/>
       <path id="ArialMT-6c" d="M 409 0 
L 409 4581 
L 972 4581 
L 972 0 
L 409 0 
z
" transform="scale(0.015625)"/>
       <path id="ArialMT-70" d="M 422 -1272 
L 422 3319 
L 934 3319 
L 934 2888 
Q 1116 3141 1344 3267 
Q 1572 3394 1897 3394 
Q 2322 3394 2647 3175 
Q 2972 2956 3137 2557 
Q 3303 2159 3303 1684 
Q 3303 1175 3120 767 
Q 2938 359 2589 142 
Q 2241 -75 1856 -75 
Q 1575 -75 1351 44 
Q 1128 163 984 344 
L 984 -1272 
L 422 -1272 
z
M 931 1641 
Q 931 1000 1190 694 
Q 1450 388 1819 388 
Q 2194 388 2461 705 
Q 2728 1022 2728 1688 
Q 2728 2322 2467 2637 
Q 2206 2953 1844 2953 
Q 1484 2953 1207 2617 
Q 931 2281 931 1641 
z
" transform="scale(0.015625)"/>
       <path id="ArialMT-68" d="M 422 0 
L 422 4581 
L 984 4581 
L 984 2938 
Q 1378 3394 1978 3394 
Q 2347 3394 2619 3248 
Q 2891 3103 3008 2847 
Q 3125 2591 3125 2103 
L 3125 0 
L 2563 0 
L 2563 2103 
Q 2563 2525 2380 2717 
Q 2197 2909 1863 2909 
Q 1613 2909 1392 2779 
Q 1172 2650 1078 2428 
Q 984 2206 984 1816 
L 984 0 
L 422 0 
z
" transform="scale(0.015625)"/>
      </defs>
      <use xlink:href="#ArialMT-54"/>
      <use xlink:href="#ArialMT-72" transform="translate(57.333984 0)"/>
      <use xlink:href="#ArialMT-75" transform="translate(90.634766 0)"/>
      <use xlink:href="#ArialMT-6e" transform="translate(146.25 0)"/>
      <use xlink:href="#ArialMT-63" transform="translate(201.865234 0)"/>
      <use xlink:href="#ArialMT-61" transform="translate(251.865234 0)"/>
      <use xlink:href="#ArialMT-74" transform="translate(307.480469 0)"/>
      <use xlink:href="#ArialMT-65" transform="translate(335.263672 0)"/>
      <use xlink:href="#ArialMT-64" transform="translate(390.878906 0)"/>
      <use xlink:href="#ArialMT-20" transform="translate(446.494141 0)"/>
      <use xlink:href="#ArialMT-50" transform="translate(474.277344 0)"/>
      <use xlink:href="#ArialMT-6f" transform="translate(540.976562 0)"/>
      <use xlink:href="#ArialMT-77" transform="translate(596.591797 0)"/>
      <use xlink:href="#ArialMT-65" transform="translate(668.808594 0)"/>
      <use xlink:href="#ArialMT-72" transform="translate(724.423828 0)"/>
      <use xlink:href="#ArialMT-2d" transform="translate(757.724609 0)"/>
      <use xlink:href="#ArialMT-4c" transform="translate(791.025391 0)"/>
      <use xlink:href="#ArialMT-61" transform="translate(846.640625 0)"/>
      <use xlink:href="#ArialMT-77" transform="translate(902.255859 0)"/>
      <use xlink:href="#ArialMT-20" transform="translate(974.472656 0)"/>
      <use xlink:href="#ArialMT-41" transform="translate(996.755859 0)"/>
      <use xlink:href="#ArialMT-6c" transform="translate(1063.455078 0)"/>
      <use xlink:href="#ArialMT-70" transform="translate(1085.671875 0)"/>
      <use xlink:href="#ArialMT-68" transform="translate(1141.287109 0)"/>
      <use xlink:href="#ArialMT-61" transform="translate(1196.902344 0)"/>
     </g>
    </g>
   </g>
   <g id="matplotlib.axis_2">
    <g id="ytick_1">
     <g id="line2d_9">
      <path d="M 64.3325 339.84 
L 622.3325 339.84 
" clip-path="url(#p5e53cbecde)" style="fill: none; stroke: #cccccc; stroke-width: 0.8; stroke-linecap: round"/>
     </g>
     <g id="text_10">
      <!-- 0.0 -->
      <g style="fill: #262626" transform="translate(27.8725 344.850469) scale(0.14 -0.14)">
       <use xlink:href="#ArialMT-30"/>
       <use xlink:href="#ArialMT-2e" transform="translate(55.615234 0)"/>
       <use xlink:href="#ArialMT-30" transform="translate(83.398438 0)"/>
      </g>
     </g>
    </g>
    <g id="ytick_2">
     <g id="line2d_10">
      <path d="M 64.3325 302.116476 
L 622.3325 302.116476 
" clip-path="url(#p5e53cbecde)" style="fill: none; stroke: #cccccc; stroke-width: 0.8; stroke-linecap: round"/>
     </g>
     <g id="text_11">
      <!-- 0.2 -->
      <g style="fill: #262626" transform="translate(27.8725 307.126945) scale(0.14 -0.14)">
       <use xlink:href="#ArialMT-30"/>
       <use xlink:href="#ArialMT-2e" transform="translate(55.615234 0)"/>
       <use xlink:href="#ArialMT-32" transform="translate(83.398438 0)"/>
      </g>
     </g>
    </g>
    <g id="ytick_3">
     <g id="line2d_11">
      <path d="M 64.3325 264.392952 
L 622.3325 264.392952 
" clip-path="url(#p5e53cbecde)" style="fill: none; stroke: #cccccc; stroke-width: 0.8; stroke-linecap: round"/>
     </g>
     <g id="text_12">
      <!-- 0.4 -->
      <g style="fill: #262626" transform="translate(27.8725 269.403421) scale(0.14 -0.14)">
       <defs>
        <path id="ArialMT-34" d="M 2069 0 
L 2069 1097 
L 81 1097 
L 81 1613 
L 2172 4581 
L 2631 4581 
L 2631 1613 
L 3250 1613 
L 3250 1097 
L 2631 1097 
L 2631 0 
L 2069 0 
z
M 2069 1613 
L 2069 3678 
L 634 1613 
L 2069 1613 
z
" transform="scale(0.015625)"/>
       </defs>
       <use xlink:href="#ArialMT-30"/>
       <use xlink:href="#ArialMT-2e" transform="translate(55.615234 0)"/>
       <use xlink:href="#ArialMT-34" transform="translate(83.398438 0)"/>
      </g>
     </g>
    </g>
    <g id="ytick_4">
     <g id="line2d_12">
      <path d="M 64.3325 226.669428 
L 622.3325 226.669428 
" clip-path="url(#p5e53cbecde)" style="fill: none; stroke: #cccccc; stroke-width: 0.8; stroke-linecap: round"/>
     </g>
     <g id="text_13">
      <!-- 0.6 -->
      <g style="fill: #262626" transform="translate(27.8725 231.679897) scale(0.14 -0.14)">
       <defs>
        <path id="ArialMT-36" d="M 3184 3459 
L 2625 3416 
Q 2550 3747 2413 3897 
Q 2184 4138 1850 4138 
Q 1581 4138 1378 3988 
Q 1113 3794 959 3422 
Q 806 3050 800 2363 
Q 1003 2672 1297 2822 
Q 1591 2972 1913 2972 
Q 2475 2972 2870 2558 
Q 3266 2144 3266 1488 
Q 3266 1056 3080 686 
Q 2894 316 2569 119 
Q 2244 -78 1831 -78 
Q 1128 -78 684 439 
Q 241 956 241 2144 
Q 241 3472 731 4075 
Q 1159 4600 1884 4600 
Q 2425 4600 2770 4297 
Q 3116 3994 3184 3459 
z
M 888 1484 
Q 888 1194 1011 928 
Q 1134 663 1356 523 
Q 1578 384 1822 384 
Q 2178 384 2434 671 
Q 2691 959 2691 1453 
Q 2691 1928 2437 2201 
Q 2184 2475 1800 2475 
Q 1419 2475 1153 2201 
Q 888 1928 888 1484 
z
" transform="scale(0.015625)"/>
       </defs>
       <use xlink:href="#ArialMT-30"/>
       <use xlink:href="#ArialMT-2e" transform="translate(55.615234 0)"/>
       <use xlink:href="#ArialMT-36" transform="translate(83.398438 0)"/>
      </g>
     </g>
    </g>
    <g id="ytick_5">
     <g id="line2d_13">
      <path d="M 64.3325 188.945904 
L 622.3325 188.945904 
" clip-path="url(#p5e53cbecde)" style="fill: none; stroke: #cccccc; stroke-width: 0.8; stroke-linecap: round"/>
     </g>
     <g id="text_14">
      <!-- 0.8 -->
      <g style="fill: #262626" transform="translate(27.8725 193.956373) scale(0.14 -0.14)">
       <defs>
        <path id="ArialMT-38" d="M 1131 2484 
Q 781 2613 612 2850 
Q 444 3088 444 3419 
Q 444 3919 803 4259 
Q 1163 4600 1759 4600 
Q 2359 4600 2725 4251 
Q 3091 3903 3091 3403 
Q 3091 3084 2923 2848 
Q 2756 2613 2416 2484 
Q 2838 2347 3058 2040 
Q 3278 1734 3278 1309 
Q 3278 722 2862 322 
Q 2447 -78 1769 -78 
Q 1091 -78 675 323 
Q 259 725 259 1325 
Q 259 1772 486 2073 
Q 713 2375 1131 2484 
z
M 1019 3438 
Q 1019 3113 1228 2906 
Q 1438 2700 1772 2700 
Q 2097 2700 2305 2904 
Q 2513 3109 2513 3406 
Q 2513 3716 2298 3927 
Q 2084 4138 1766 4138 
Q 1444 4138 1231 3931 
Q 1019 3725 1019 3438 
z
M 838 1322 
Q 838 1081 952 856 
Q 1066 631 1291 507 
Q 1516 384 1775 384 
Q 2178 384 2440 643 
Q 2703 903 2703 1303 
Q 2703 1709 2433 1975 
Q 2163 2241 1756 2241 
Q 1359 2241 1098 1978 
Q 838 1716 838 1322 
z
" transform="scale(0.015625)"/>
       </defs>
       <use xlink:href="#ArialMT-30"/>
       <use xlink:href="#ArialMT-2e" transform="translate(55.615234 0)"/>
       <use xlink:href="#ArialMT-38" transform="translate(83.398438 0)"/>
      </g>
     </g>
    </g>
    <g id="ytick_6">
     <g id="line2d_14">
      <path d="M 64.3325 151.222381 
L 622.3325 151.222381 
" clip-path="url(#p5e53cbecde)" style="fill: none; stroke: #cccccc; stroke-width: 0.8; stroke-linecap: round"/>
     </g>
     <g id="text_15">
      <!-- 1.0 -->
      <g style="fill: #262626" transform="translate(27.8725 156.232849) scale(0.14 -0.14)">
       <use xlink:href="#ArialMT-31"/>
       <use xlink:href="#ArialMT-2e" transform="translate(55.615234 0)"/>
       <use xlink:href="#ArialMT-30" transform="translate(83.398438 0)"/>
      </g>
     </g>
    </g>
    <g id="ytick_7">
     <g id="line2d_15">
      <path d="M 64.3325 113.498857 
L 622.3325 113.498857 
" clip-path="url(#p5e53cbecde)" style="fill: none; stroke: #cccccc; stroke-width: 0.8; stroke-linecap: round"/>
     </g>
     <g id="text_16">
      <!-- 1.2 -->
      <g style="fill: #262626" transform="translate(27.8725 118.509325) scale(0.14 -0.14)">
       <use xlink:href="#ArialMT-31"/>
       <use xlink:href="#ArialMT-2e" transform="translate(55.615234 0)"/>
       <use xlink:href="#ArialMT-32" transform="translate(83.398438 0)"/>
      </g>
     </g>
    </g>
    <g id="ytick_8">
     <g id="line2d_16">
      <path d="M 64.3325 75.775333 
L 622.3325 75.775333 
" clip-path="url(#p5e53cbecde)" style="fill: none; stroke: #cccccc; stroke-width: 0.8; stroke-linecap: round"/>
     </g>
     <g id="text_17">
      <!-- 1.4 -->
      <g style="fill: #262626" transform="translate(27.8725 80.785801) scale(0.14 -0.14)">
       <use xlink:href="#ArialMT-31"/>
       <use xlink:href="#ArialMT-2e" transform="translate(55.615234 0)"/>
       <use xlink:href="#ArialMT-34" transform="translate(83.398438 0)"/>
      </g>
     </g>
    </g>
    <g id="ytick_9">
     <g id="line2d_17">
      <path d="M 64.3325 38.051809 
L 622.3325 38.051809 
" clip-path="url(#p5e53cbecde)" style="fill: none; stroke: #cccccc; stroke-width: 0.8; stroke-linecap: round"/>
     </g>
     <g id="text_18">
      <!-- 1.6 -->
      <g style="fill: #262626" transform="translate(27.8725 43.062278) scale(0.14 -0.14)">
       <use xlink:href="#ArialMT-31"/>
       <use xlink:href="#ArialMT-2e" transform="translate(55.615234 0)"/>
       <use xlink:href="#ArialMT-36" transform="translate(83.398438 0)"/>
      </g>
     </g>
    </g>
    <g id="text_19">
     <!-- Density -->
     <g style="fill: #262626" transform="translate(20.084063 203.529375) rotate(-90) scale(0.18 -0.18)">
      <defs>
       <path id="ArialMT-44" d="M 494 0 
L 494 4581 
L 2072 4581 
Q 2606 4581 2888 4516 
Q 3281 4425 3559 4188 
Q 3922 3881 4101 3404 
Q 4281 2928 4281 2316 
Q 4281 1794 4159 1391 
Q 4038 988 3847 723 
Q 3656 459 3429 307 
Q 3203 156 2883 78 
Q 2563 0 2147 0 
L 494 0 
z
M 1100 541 
L 2078 541 
Q 2531 541 2789 625 
Q 3047 709 3200 863 
Q 3416 1078 3536 1442 
Q 3656 1806 3656 2325 
Q 3656 3044 3420 3430 
Q 3184 3816 2847 3947 
Q 2603 4041 2063 4041 
L 1100 4041 
L 1100 541 
z
" transform="scale(0.015625)"/>
       <path id="ArialMT-73" d="M 197 991 
L 753 1078 
Q 800 744 1014 566 
Q 1228 388 1613 388 
Q 2000 388 2187 545 
Q 2375 703 2375 916 
Q 2375 1106 2209 1216 
Q 2094 1291 1634 1406 
Q 1016 1563 777 1677 
Q 538 1791 414 1992 
Q 291 2194 291 2438 
Q 291 2659 392 2848 
Q 494 3038 669 3163 
Q 800 3259 1026 3326 
Q 1253 3394 1513 3394 
Q 1903 3394 2198 3281 
Q 2494 3169 2634 2976 
Q 2775 2784 2828 2463 
L 2278 2388 
Q 2241 2644 2061 2787 
Q 1881 2931 1553 2931 
Q 1166 2931 1000 2803 
Q 834 2675 834 2503 
Q 834 2394 903 2306 
Q 972 2216 1119 2156 
Q 1203 2125 1616 2013 
Q 2213 1853 2448 1751 
Q 2684 1650 2818 1456 
Q 2953 1263 2953 975 
Q 2953 694 2789 445 
Q 2625 197 2315 61 
Q 2006 -75 1616 -75 
Q 969 -75 630 194 
Q 291 463 197 991 
z
" transform="scale(0.015625)"/>
       <path id="ArialMT-69" d="M 425 3934 
L 425 4581 
L 988 4581 
L 988 3934 
L 425 3934 
z
M 425 0 
L 425 3319 
L 988 3319 
L 988 0 
L 425 0 
z
" transform="scale(0.015625)"/>
       <path id="ArialMT-79" d="M 397 -1278 
L 334 -750 
Q 519 -800 656 -800 
Q 844 -800 956 -737 
Q 1069 -675 1141 -563 
Q 1194 -478 1313 -144 
Q 1328 -97 1363 -6 
L 103 3319 
L 709 3319 
L 1400 1397 
Q 1534 1031 1641 628 
Q 1738 1016 1872 1384 
L 2581 3319 
L 3144 3319 
L 1881 -56 
Q 1678 -603 1566 -809 
Q 1416 -1088 1222 -1217 
Q 1028 -1347 759 -1347 
Q 597 -1347 397 -1278 
z
" transform="scale(0.015625)"/>
      </defs>
      <use xlink:href="#ArialMT-44"/>
      <use xlink:href="#ArialMT-65" transform="translate(72.216797 0)"/>
      <use xlink:href="#ArialMT-6e" transform="translate(127.832031 0)"/>
      <use xlink:href="#ArialMT-73" transform="translate(183.447266 0)"/>
      <use xlink:href="#ArialMT-69" transform="translate(233.447266 0)"/>
      <use xlink:href="#ArialMT-74" transform="translate(255.664062 0)"/>
      <use xlink:href="#ArialMT-79" transform="translate(283.447266 0)"/>
     </g>
    </g>
   </g>
   <g id="FillBetweenPolyCollection_1">
    <path d="M -25.101915 339.71503 
L -25.101915 339.84 
L -21.399057 339.84 
L -17.696198 339.84 
L -13.99334 339.84 
L -10.290481 339.84 
L -6.587623 339.84 
L -2.884764 339.84 
L 0.818094 339.84 
L 4.520953 339.84 
L 8.223811 339.84 
L 11.926669 339.84 
L 15.629528 339.84 
L 19.332386 339.84 
L 23.035245 339.84 
L 26.738103 339.84 
L 30.440962 339.84 
L 34.14382 339.84 
L 37.846679 339.84 
L 41.549537 339.84 
L 45.252395 339.84 
L 48.955254 339.84 
L 52.658112 339.84 
L 56.360971 339.84 
L 60.063829 339.84 
L 63.766688 339.84 
L 67.469546 339.84 
L 71.172405 339.84 
L 74.875263 339.84 
L 78.578121 339.84 
L 82.28098 339.84 
L 85.983838 339.84 
L 89.686697 339.84 
L 93.389555 339.84 
L 97.092414 339.84 
L 100.795272 339.84 
L 104.498131 339.84 
L 108.200989 339.84 
L 111.903847 339.84 
L 115.606706 339.84 
L 119.309564 339.84 
L 123.012423 339.84 
L 126.715281 339.84 
L 130.41814 339.84 
L 134.120998 339.84 
L 137.823856 339.84 
L 141.526715 339.84 
L 145.229573 339.84 
L 148.932432 339.84 
L 152.63529 339.84 
L 156.338149 339.84 
L 160.041007 339.84 
L 163.743866 339.84 
L 167.446724 339.84 
L 171.149582 339.84 
L 174.852441 339.84 
L 178.555299 339.84 
L 182.258158 339.84 
L 185.961016 339.84 
L 189.663875 339.84 
L 193.366733 339.84 
L 197.069592 339.84 
L 200.77245 339.84 
L 204.475308 339.84 
L 208.178167 339.84 
L 211.881025 339.84 
L 215.583884 339.84 
L 219.286742 339.84 
L 222.989601 339.84 
L 226.692459 339.84 
L 230.395318 339.84 
L 234.098176 339.84 
L 237.801034 339.84 
L 241.503893 339.84 
L 245.206751 339.84 
L 248.90961 339.84 
L 252.612468 339.84 
L 256.315327 339.84 
L 260.018185 339.84 
L 263.721044 339.84 
L 267.423902 339.84 
L 271.12676 339.84 
L 274.829619 339.84 
L 278.532477 339.84 
L 282.235336 339.84 
L 285.938194 339.84 
L 289.641053 339.84 
L 293.343911 339.84 
L 297.046769 339.84 
L 300.749628 339.84 
L 304.452486 339.84 
L 308.155345 339.84 
L 311.858203 339.84 
L 315.561062 339.84 
L 319.26392 339.84 
L 322.966779 339.84 
L 326.669637 339.84 
L 330.372495 339.84 
L 334.075354 339.84 
L 337.778212 339.84 
L 341.481071 339.84 
L 345.183929 339.84 
L 348.886788 339.84 
L 352.589646 339.84 
L 356.292505 339.84 
L 359.995363 339.84 
L 363.698221 339.84 
L 367.40108 339.84 
L 371.103938 339.84 
L 374.806797 339.84 
L 378.509655 339.84 
L 382.212514 339.84 
L 385.915372 339.84 
L 389.618231 339.84 
L 393.321089 339.84 
L 397.023947 339.84 
L 400.726806 339.84 
L 404.429664 339.84 
L 408.132523 339.84 
L 411.835381 339.84 
L 415.53824 339.84 
L 419.241098 339.84 
L 422.943956 339.84 
L 426.646815 339.84 
L 430.349673 339.84 
L 434.052532 339.84 
L 437.75539 339.84 
L 441.458249 339.84 
L 445.161107 339.84 
L 448.863966 339.84 
L 452.566824 339.84 
L 456.269682 339.84 
L 459.972541 339.84 
L 463.675399 339.84 
L 467.378258 339.84 
L 471.081116 339.84 
L 474.783975 339.84 
L 478.486833 339.84 
L 482.189692 339.84 
L 485.89255 339.84 
L 489.595408 339.84 
L 493.298267 339.84 
L 497.001125 339.84 
L 500.703984 339.84 
L 504.406842 339.84 
L 508.109701 339.84 
L 511.812559 339.84 
L 515.515418 339.84 
L 519.218276 339.84 
L 522.921134 339.84 
L 526.623993 339.84 
L 530.326851 339.84 
L 534.02971 339.84 
L 537.732568 339.84 
L 541.435427 339.84 
L 545.138285 339.84 
L 548.841144 339.84 
L 552.544002 339.84 
L 556.24686 339.84 
L 559.949719 339.84 
L 563.652577 339.84 
L 567.355436 339.84 
L 571.058294 339.84 
L 574.761153 339.84 
L 578.464011 339.84 
L 582.166869 339.84 
L 585.869728 339.84 
L 589.572586 339.84 
L 593.275445 339.84 
L 596.978303 339.84 
L 600.681162 339.84 
L 604.38402 339.84 
L 608.086879 339.84 
L 611.789737 339.84 
L 615.492595 339.84 
L 619.195454 339.84 
L 622.898312 339.84 
L 626.601171 339.84 
L 630.304029 339.84 
L 634.006888 339.84 
L 637.709746 339.84 
L 641.412605 339.84 
L 645.115463 339.84 
L 648.818321 339.84 
L 652.52118 339.84 
L 656.224038 339.84 
L 659.926897 339.84 
L 663.629755 339.84 
L 667.332614 339.84 
L 671.035472 339.84 
L 674.738331 339.84 
L 678.441189 339.84 
L 682.144047 339.84 
L 685.846906 339.84 
L 689.549764 339.84 
L 693.252623 339.84 
L 696.955481 339.84 
L 700.65834 339.84 
L 704.361198 339.84 
L 708.064057 339.84 
L 711.766915 339.84 
L 711.766915 339.715528 
L 711.766915 339.715528 
L 708.064057 339.676134 
L 704.361198 339.626134 
L 700.65834 339.563284 
L 696.955481 339.485052 
L 693.252623 339.388627 
L 689.549764 339.270956 
L 685.846906 339.128789 
L 682.144047 338.958761 
L 678.441189 338.757487 
L 674.738331 338.521687 
L 671.035472 338.248331 
L 667.332614 337.934811 
L 663.629755 337.579114 
L 659.926897 337.180018 
L 656.224038 336.737272 
L 652.52118 336.251766 
L 648.818321 335.725678 
L 645.115463 335.162577 
L 641.412605 334.56747 
L 637.709746 333.946797 
L 634.006888 333.30834 
L 630.304029 332.661064 
L 626.601171 332.014878 
L 622.898312 331.380321 
L 619.195454 330.768186 
L 615.492595 330.189094 
L 611.789737 329.653039 
L 608.086879 329.168929 
L 604.38402 328.744148 
L 600.681162 328.38416 
L 596.978303 328.09219 
L 593.275445 327.869003 
L 589.572586 327.712785 
L 585.869728 327.619164 
L 582.166869 327.581349 
L 578.464011 327.590395 
L 574.761153 327.63559 
L 571.058294 327.704923 
L 567.355436 327.785631 
L 563.652577 327.864776 
L 559.949719 327.929824 
L 556.24686 327.969201 
L 552.544002 327.972777 
L 548.841144 327.932258 
L 545.138285 327.841468 
L 541.435427 327.696498 
L 537.732568 327.495723 
L 534.02971 327.239677 
L 530.326851 326.930822 
L 526.623993 326.573208 
L 522.921134 326.172057 
L 519.218276 325.733314 
L 515.515418 325.263186 
L 511.812559 324.767699 
L 508.109701 324.25232 
L 504.406842 323.721655 
L 500.703984 323.179241 
L 497.001125 322.627456 
L 493.298267 322.067526 
L 489.595408 321.499637 
L 485.89255 320.923135 
L 482.189692 320.336768 
L 478.486833 319.73898 
L 474.783975 319.128184 
L 471.081116 318.503017 
L 467.378258 317.862522 
L 463.675399 317.206262 
L 459.972541 316.534315 
L 456.269682 315.847177 
L 452.566824 315.145543 
L 448.863966 314.43 
L 445.161107 313.700622 
L 441.458249 312.956524 
L 437.75539 312.195365 
L 434.052532 311.412867 
L 430.349673 310.60235 
L 426.646815 309.754347 
L 422.943956 308.856295 
L 419.241098 307.89235 
L 415.53824 306.843339 
L 411.835381 305.686856 
L 408.132523 304.39752 
L 404.429664 302.947383 
L 400.726806 301.306502 
L 397.023947 299.443639 
L 393.321089 297.327089 
L 389.618231 294.925606 
L 385.915372 292.209392 
L 382.212514 289.151127 
L 378.509655 285.726973 
L 374.806797 281.917547 
L 371.103938 277.708767 
L 367.40108 273.092568 
L 363.698221 268.067412 
L 359.995363 262.638554 
L 356.292505 256.818038 
L 352.589646 250.624397 
L 348.886788 244.082031 
L 345.183929 237.220305 
L 341.481071 230.072364 
L 337.778212 222.673738 
L 334.075354 215.060797 
L 330.372495 207.269156 
L 326.669637 199.332135 
L 322.966779 191.279377 
L 319.26392 183.135765 
L 315.561062 174.920724 
L 311.858203 166.64801 
L 308.155345 158.326063 
L 304.452486 149.958932 
L 300.749628 141.547791 
L 297.046769 133.092972 
L 293.343911 124.596428 
L 289.641053 116.064485 
L 285.938194 107.510701 
L 282.235336 98.958634 
L 278.532477 90.444312 
L 274.829619 82.018171 
L 271.12676 73.746295 
L 267.423902 65.710775 
L 263.721044 58.009095 
L 260.018185 50.752475 
L 256.315327 44.063201 
L 252.612468 38.071025 
L 248.90961 32.908782 
L 245.206751 28.707435 
L 241.503893 25.590818 
L 237.801034 23.670344 
L 234.098176 23.04 
L 230.395318 23.771889 
L 226.692459 25.912602 
L 222.989601 29.480606 
L 219.286742 34.464812 
L 215.583884 40.824385 
L 211.881025 48.489798 
L 208.178167 57.36505 
L 204.475308 67.330913 
L 200.77245 78.248995 
L 197.069592 89.966398 
L 193.366733 102.320698 
L 189.663875 115.144998 
L 185.961016 128.272802 
L 182.258158 141.542499 
L 178.555299 154.80129 
L 174.852441 167.908423 
L 171.149582 180.737684 
L 167.446724 193.179113 
L 163.743866 205.139978 
L 160.041007 216.545072 
L 156.338149 227.336425 
L 152.63529 237.472536 
L 148.932432 246.927242 
L 145.229573 255.688335 
L 141.526715 263.756016 
L 137.823856 271.14129 
L 134.120998 277.864339 
L 130.41814 283.952949 
L 126.715281 289.440997 
L 123.012423 294.36703 
L 119.309564 298.77294 
L 115.606706 302.702738 
L 111.903847 306.201415 
L 108.200989 309.31392 
L 104.498131 312.08422 
L 100.795272 314.55448 
L 97.092414 316.764353 
L 93.389555 318.750399 
L 89.686697 320.545636 
L 85.983838 322.179231 
L 82.28098 323.676341 
L 78.578121 325.058097 
L 74.875263 326.341716 
L 71.172405 327.540745 
L 67.469546 328.665401 
L 63.766688 329.722992 
L 60.063829 330.718387 
L 56.360971 331.654518 
L 52.658112 332.532878 
L 48.955254 333.353989 
L 45.252395 334.117834 
L 41.549537 334.824223 
L 37.846679 335.473088 
L 34.14382 336.064709 
L 30.440962 336.599862 
L 26.738103 337.079896 
L 23.035245 337.506756 
L 19.332386 337.882945 
L 15.629528 338.21146 
L 11.926669 338.495691 
L 8.223811 338.73931 
L 4.520953 338.946157 
L 0.818094 339.120122 
L -2.884764 339.265046 
L -6.587623 339.384631 
L -10.290481 339.482373 
L -13.99334 339.561503 
L -17.696198 339.624959 
L -21.399057 339.675366 
L -25.101915 339.71503 
z
" clip-path="url(#p5e53cbecde)" style="fill: #2c7fb8; fill-opacity: 0.35; stroke: #2c7fb8; stroke-width: 2.2"/>
   </g>
   <g id="FillBetweenPolyCollection_2">
    <defs>
     <path id="me86323c8f8" d="M -20.763006 -58.13296 
L -20.763006 -57.465 
L -18.438673 -57.465 
L -16.11434 -57.465 
L -13.790008 -57.465 
L -11.465675 -57.465 
L -9.141343 -57.465 
L -6.81701 -57.465 
L -4.492678 -57.465 
L -2.168345 -57.465 
L 0.155987 -57.465 
L 2.48032 -57.465 
L 4.804652 -57.465 
L 7.128985 -57.465 
L 9.453317 -57.465 
L 11.77765 -57.465 
L 14.101982 -57.465 
L 16.426315 -57.465 
L 18.750647 -57.465 
L 21.07498 -57.465 
L 23.399312 -57.465 
L 25.723645 -57.465 
L 28.047978 -57.465 
L 30.37231 -57.465 
L 32.696643 -57.465 
L 35.020975 -57.465 
L 37.345308 -57.465 
L 39.66964 -57.465 
L 41.993973 -57.465 
L 44.318305 -57.465 
L 46.642638 -57.465 
L 48.96697 -57.465 
L 51.291303 -57.465 
L 53.615635 -57.465 
L 55.939968 -57.465 
L 58.2643 -57.465 
L 60.588633 -57.465 
L 62.912965 -57.465 
L 65.237298 -57.465 
L 67.56163 -57.465 
L 69.885963 -57.465 
L 72.210296 -57.465 
L 74.534628 -57.465 
L 76.858961 -57.465 
L 79.183293 -57.465 
L 81.507626 -57.465 
L 83.831958 -57.465 
L 86.156291 -57.465 
L 88.480623 -57.465 
L 90.804956 -57.465 
L 93.129288 -57.465 
L 95.453621 -57.465 
L 97.777953 -57.465 
L 100.102286 -57.465 
L 102.426618 -57.465 
L 104.750951 -57.465 
L 107.075283 -57.465 
L 109.399616 -57.465 
L 111.723949 -57.465 
L 114.048281 -57.465 
L 116.372614 -57.465 
L 118.696946 -57.465 
L 121.021279 -57.465 
L 123.345611 -57.465 
L 125.669944 -57.465 
L 127.994276 -57.465 
L 130.318609 -57.465 
L 132.642941 -57.465 
L 134.967274 -57.465 
L 137.291606 -57.465 
L 139.615939 -57.465 
L 141.940271 -57.465 
L 144.264604 -57.465 
L 146.588936 -57.465 
L 148.913269 -57.465 
L 151.237601 -57.465 
L 153.561934 -57.465 
L 155.886267 -57.465 
L 158.210599 -57.465 
L 160.534932 -57.465 
L 162.859264 -57.465 
L 165.183597 -57.465 
L 167.507929 -57.465 
L 169.832262 -57.465 
L 172.156594 -57.465 
L 174.480927 -57.465 
L 176.805259 -57.465 
L 179.129592 -57.465 
L 181.453924 -57.465 
L 183.778257 -57.465 
L 186.102589 -57.465 
L 188.426922 -57.465 
L 190.751254 -57.465 
L 193.075587 -57.465 
L 195.399919 -57.465 
L 197.724252 -57.465 
L 200.048585 -57.465 
L 202.372917 -57.465 
L 204.69725 -57.465 
L 207.021582 -57.465 
L 209.345915 -57.465 
L 211.670247 -57.465 
L 213.99458 -57.465 
L 216.318912 -57.465 
L 218.643245 -57.465 
L 220.967577 -57.465 
L 223.29191 -57.465 
L 225.616242 -57.465 
L 227.940575 -57.465 
L 230.264907 -57.465 
L 232.58924 -57.465 
L 234.913572 -57.465 
L 237.237905 -57.465 
L 239.562237 -57.465 
L 241.88657 -57.465 
L 244.210903 -57.465 
L 246.535235 -57.465 
L 248.859568 -57.465 
L 251.1839 -57.465 
L 253.508233 -57.465 
L 255.832565 -57.465 
L 258.156898 -57.465 
L 260.48123 -57.465 
L 262.805563 -57.465 
L 265.129895 -57.465 
L 267.454228 -57.465 
L 269.77856 -57.465 
L 272.102893 -57.465 
L 274.427225 -57.465 
L 276.751558 -57.465 
L 279.07589 -57.465 
L 281.400223 -57.465 
L 283.724555 -57.465 
L 286.048888 -57.465 
L 288.373221 -57.465 
L 290.697553 -57.465 
L 293.021886 -57.465 
L 295.346218 -57.465 
L 297.670551 -57.465 
L 299.994883 -57.465 
L 302.319216 -57.465 
L 304.643548 -57.465 
L 306.967881 -57.465 
L 309.292213 -57.465 
L 311.616546 -57.465 
L 313.940878 -57.465 
L 316.265211 -57.465 
L 318.589543 -57.465 
L 320.913876 -57.465 
L 323.238208 -57.465 
L 325.562541 -57.465 
L 327.886873 -57.465 
L 330.211206 -57.465 
L 332.535539 -57.465 
L 334.859871 -57.465 
L 337.184204 -57.465 
L 339.508536 -57.465 
L 341.832869 -57.465 
L 344.157201 -57.465 
L 346.481534 -57.465 
L 348.805866 -57.465 
L 351.130199 -57.465 
L 353.454531 -57.465 
L 355.778864 -57.465 
L 358.103196 -57.465 
L 360.427529 -57.465 
L 362.751861 -57.465 
L 365.076194 -57.465 
L 367.400526 -57.465 
L 369.724859 -57.465 
L 372.049191 -57.465 
L 374.373524 -57.465 
L 376.697857 -57.465 
L 379.022189 -57.465 
L 381.346522 -57.465 
L 383.670854 -57.465 
L 385.995187 -57.465 
L 388.319519 -57.465 
L 390.643852 -57.465 
L 392.968184 -57.465 
L 395.292517 -57.465 
L 397.616849 -57.465 
L 399.941182 -57.465 
L 402.265514 -57.465 
L 404.589847 -57.465 
L 406.914179 -57.465 
L 409.238512 -57.465 
L 411.562844 -57.465 
L 413.887177 -57.465 
L 416.21151 -57.465 
L 418.535842 -57.465 
L 420.860175 -57.465 
L 423.184507 -57.465 
L 425.50884 -57.465 
L 427.833172 -57.465 
L 430.157505 -57.465 
L 432.481837 -57.465 
L 434.80617 -57.465 
L 437.130502 -57.465 
L 439.454835 -57.465 
L 441.779167 -57.465 
L 441.779167 -59.589639 
L 441.779167 -59.589639 
L 439.454835 -59.946043 
L 437.130502 -60.354815 
L 434.80617 -60.822318 
L 432.481837 -61.355474 
L 430.157505 -61.96177 
L 427.833172 -62.649268 
L 425.50884 -63.426611 
L 423.184507 -64.303012 
L 420.860175 -65.288245 
L 418.535842 -66.392619 
L 416.21151 -67.626944 
L 413.887177 -69.00249 
L 411.562844 -70.530926 
L 409.238512 -72.224256 
L 406.914179 -74.094728 
L 404.589847 -76.15475 
L 402.265514 -78.416768 
L 399.941182 -80.893153 
L 397.616849 -83.59606 
L 395.292517 -86.537279 
L 392.968184 -89.728081 
L 390.643852 -93.17904 
L 388.319519 -96.899863 
L 385.995187 -100.899201 
L 383.670854 -105.184462 
L 381.346522 -109.761624 
L 379.022189 -114.635043 
L 376.697857 -119.807273 
L 374.373524 -125.278891 
L 372.049191 -131.048331 
L 369.724859 -137.111741 
L 367.400526 -143.462847 
L 365.076194 -150.092852 
L 362.751861 -156.990351 
L 360.427529 -164.141277 
L 358.103196 -171.528883 
L 355.778864 -179.133751 
L 353.454531 -186.933839 
L 351.130199 -194.904571 
L 348.805866 -203.018951 
L 346.481534 -211.247729 
L 344.157201 -219.559593 
L 341.832869 -227.921404 
L 339.508536 -236.298457 
L 337.184204 -244.654783 
L 334.859871 -252.953462 
L 332.535539 -261.156974 
L 330.211206 -269.227558 
L 327.886873 -277.127587 
L 325.562541 -284.819951 
L 323.238208 -292.268433 
L 320.913876 -299.438092 
L 318.589543 -306.295623 
L 316.265211 -312.809706 
L 313.940878 -318.951329 
L 311.616546 -324.694084 
L 309.292213 -330.014428 
L 306.967881 -334.891903 
L 304.643548 -339.309324 
L 302.319216 -343.252909 
L 299.994883 -346.712376 
L 297.670551 -349.680985 
L 295.346218 -352.155534 
L 293.021886 -354.136306 
L 290.697553 -355.62698 
L 288.373221 -356.634489 
L 286.048888 -357.168844 
L 283.724555 -357.242923 
L 281.400223 -356.872229 
L 279.07589 -356.074621 
L 276.751558 -354.870029 
L 274.427225 -353.280148 
L 272.102893 -351.32813 
L 269.77856 -349.038268 
L 267.454228 -346.435686 
L 265.129895 -343.546031 
L 262.805563 -340.395182 
L 260.48123 -337.008975 
L 258.156898 -333.412948 
L 255.832565 -329.632102 
L 253.508233 -325.690704 
L 251.1839 -321.612098 
L 248.859568 -317.418561 
L 246.535235 -313.131175 
L 244.210903 -308.76974 
L 241.88657 -304.352706 
L 239.562237 -299.897132 
L 237.237905 -295.418679 
L 234.913572 -290.931614 
L 232.58924 -286.44884 
L 230.264907 -281.981947 
L 227.940575 -277.541271 
L 225.616242 -273.135968 
L 223.29191 -268.774096 
L 220.967577 -264.462707 
L 218.643245 -260.207934 
L 216.318912 -256.015084 
L 213.99458 -251.888732 
L 211.670247 -247.832805 
L 209.345915 -243.85066 
L 207.021582 -239.945163 
L 204.69725 -236.118752 
L 202.372917 -232.373491 
L 200.048585 -228.711118 
L 197.724252 -225.133084 
L 195.399919 -221.640571 
L 193.075587 -218.234519 
L 190.751254 -214.915625 
L 188.426922 -211.684345 
L 186.102589 -208.540886 
L 183.778257 -205.485191 
L 181.453924 -202.516923 
L 179.129592 -199.635433 
L 176.805259 -196.839748 
L 174.480927 -194.128534 
L 172.156594 -191.500078 
L 169.832262 -188.952264 
L 167.507929 -186.482552 
L 165.183597 -184.08797 
L 162.859264 -181.7651 
L 160.534932 -179.510081 
L 158.210599 -177.318615 
L 155.886267 -175.185983 
L 153.561934 -173.107067 
L 151.237601 -171.076389 
L 148.913269 -169.088145 
L 146.588936 -167.136262 
L 144.264604 -165.214454 
L 141.940271 -163.316287 
L 139.615939 -161.435252 
L 137.291606 -159.564843 
L 134.967274 -157.698635 
L 132.642941 -155.830368 
L 130.318609 -153.954032 
L 127.994276 -152.06395 
L 125.669944 -150.154856 
L 123.345611 -148.221972 
L 121.021279 -146.261079 
L 118.696946 -144.268583 
L 116.372614 -142.241562 
L 114.048281 -140.177822 
L 111.723949 -138.075921 
L 109.399616 -135.935201 
L 107.075283 -133.755792 
L 104.750951 -131.538618 
L 102.426618 -129.285378 
L 100.102286 -126.998526 
L 97.777953 -124.681229 
L 95.453621 -122.337327 
L 93.129288 -119.971271 
L 90.804956 -117.588057 
L 88.480623 -115.193159 
L 86.156291 -112.792444 
L 83.831958 -110.39209 
L 81.507626 -107.998504 
L 79.183293 -105.618229 
L 76.858961 -103.257859 
L 74.534628 -100.923954 
L 72.210296 -98.622959 
L 69.885963 -96.361119 
L 67.56163 -94.144418 
L 65.237298 -91.9785 
L 62.912965 -89.868622 
L 60.588633 -87.819598 
L 58.2643 -85.835757 
L 55.939968 -83.920914 
L 53.615635 -82.07834 
L 51.291303 -80.310752 
L 48.96697 -78.620306 
L 46.642638 -77.008596 
L 44.318305 -75.476663 
L 41.993973 -74.025015 
L 39.66964 -72.653646 
L 37.345308 -71.362065 
L 35.020975 -70.149328 
L 32.696643 -69.014078 
L 30.37231 -67.954577 
L 28.047978 -66.968754 
L 25.723645 -66.054246 
L 23.399312 -65.208438 
L 21.07498 -64.428508 
L 18.750647 -63.711471 
L 16.426315 -63.054214 
L 14.101982 -62.453539 
L 11.77765 -61.906198 
L 9.453317 -61.408926 
L 7.128985 -60.958469 
L 4.804652 -60.551615 
L 2.48032 -60.185219 
L 0.155987 -59.856218 
L -2.168345 -59.561654 
L -4.492678 -59.298686 
L -6.81701 -59.064605 
L -9.141343 -58.856838 
L -11.465675 -58.672957 
L -13.790008 -58.510683 
L -16.11434 -58.367887 
L -18.438673 -58.24259 
L -20.763006 -58.13296 
z
" style="stroke: #7a0177; stroke-width: 2.2"/>
    </defs>
    <g clip-path="url(#p5e53cbecde)">
     <use xlink:href="#me86323c8f8" x="0" y="397.305" style="fill: #7a0177; fill-opacity: 0.35; stroke: #7a0177; stroke-width: 2.2"/>
    </g>
   </g>
   <g id="line2d_18">
    <path d="M 237.824463 339.84 
L 237.824463 7.2 
" clip-path="url(#p5e53cbecde)" style="fill: none; stroke-dasharray: 5.92,2.56; stroke-dashoffset: 0; stroke: #2c7fb8; stroke-width: 1.6"/>
   </g>
   <g id="line2d_19">
    <path d="M 271.297263 339.84 
L 271.297263 7.2 
" clip-path="url(#p5e53cbecde)" style="fill: none; stroke-dasharray: 5.92,2.56; stroke-dashoffset: 0; stroke: #7a0177; stroke-width: 1.6"/>
   </g>
   <g id="patch_3">
    <path d="M 54.3325 339.84 
L 54.3325 38.051809 
" style="fill: none; stroke: #cccccc; stroke-width: 0.8; stroke-linejoin: miter; stroke-linecap: square"/>
   </g>
   <g id="patch_4">
    <path d="M 73.445397 349.84 
L 581.285616 349.84 
" style="fill: none; stroke: #cccccc; stroke-width: 0.8; stroke-linejoin: miter; stroke-linecap: square"/>
   </g>
   <g id="text_20">
    <g id="patch_5">
     <path d="M 226.1479 48.385575 
L 249.501025 48.385575 
Q 253.101025 48.385575 253.101025 44.785575 
L 253.101025 33.8112 
Q 253.101025 30.2112 249.501025 30.2112 
L 226.1479 30.2112 
Q 222.5479 30.2112 222.5479 33.8112 
L 222.5479 44.785575 
Q 222.5479 48.385575 226.1479 48.385575 
z
" style="fill: #2c7fb8"/>
    </g>
    <!-- 1.32 -->
    <g style="fill: #ffffff" transform="translate(226.1479 42.400575) scale(0.12 -0.12)">
     <defs>
      <path id="ArialMT-33" d="M 269 1209 
L 831 1284 
Q 928 806 1161 595 
Q 1394 384 1728 384 
Q 2125 384 2398 659 
Q 2672 934 2672 1341 
Q 2672 1728 2419 1979 
Q 2166 2231 1775 2231 
Q 1616 2231 1378 2169 
L 1441 2663 
Q 1497 2656 1531 2656 
Q 1891 2656 2178 2843 
Q 2466 3031 2466 3422 
Q 2466 3731 2256 3934 
Q 2047 4138 1716 4138 
Q 1388 4138 1169 3931 
Q 950 3725 888 3313 
L 325 3413 
Q 428 3978 793 4289 
Q 1159 4600 1703 4600 
Q 2078 4600 2393 4439 
Q 2709 4278 2876 4000 
Q 3044 3722 3044 3409 
Q 3044 3113 2884 2869 
Q 2725 2625 2413 2481 
Q 2819 2388 3044 2092 
Q 3269 1797 3269 1353 
Q 3269 753 2831 336 
Q 2394 -81 1725 -81 
Q 1122 -81 723 278 
Q 325 638 269 1209 
z
" transform="scale(0.015625)"/>
     </defs>
     <use xlink:href="#ArialMT-31"/>
     <use xlink:href="#ArialMT-2e" transform="translate(55.615234 0)"/>
     <use xlink:href="#ArialMT-33" transform="translate(83.398438 0)"/>
     <use xlink:href="#ArialMT-32" transform="translate(139.013672 0)"/>
    </g>
   </g>
   <g id="text_21">
    <g id="patch_6">
     <path d="M 259.620701 88.302375 
L 282.973826 88.302375 
Q 286.573826 88.302375 286.573826 84.702375 
L 286.573826 73.728 
Q 286.573826 70.128 282.973826 70.128 
L 259.620701 70.128 
Q 256.020701 70.128 256.020701 73.728 
L 256.020701 84.702375 
Q 256.020701 88.302375 259.620701 88.302375 
z
" style="fill: #7a0177"/>
    </g>
    <!-- 1.43 -->
    <g style="fill: #ffffff" transform="translate(259.620701 82.317375) scale(0.12 -0.12)">
     <use xlink:href="#ArialMT-31"/>
     <use xlink:href="#ArialMT-2e" transform="translate(55.615234 0)"/>
     <use xlink:href="#ArialMT-34" transform="translate(83.398438 0)"/>
     <use xlink:href="#ArialMT-33" transform="translate(139.013672 0)"/>
    </g>
   </g>
   <g id="legend_1">
    <g id="patch_7">
     <path d="M 74.1325 58.006875 
L 199.078125 58.006875 
Q 201.878125 58.006875 201.878125 55.206875 
L 201.878125 17 
Q 201.878125 14.2 199.078125 14.2 
L 74.1325 14.2 
Q 71.3325 14.2 71.3325 17 
L 71.3325 55.206875 
Q 71.3325 58.006875 74.1325 58.006875 
z
" style="fill: #ffffff; opacity: 0.9; stroke: #333333; stroke-linejoin: miter"/>
    </g>
    <g id="patch_8">
     <path d="M 76.9325 29.820937 
L 104.9325 29.820937 
L 104.9325 20.020937 
L 76.9325 20.020937 
z
" style="fill: #2c7fb8; fill-opacity: 0.35; stroke: #2c7fb8; stroke-width: 2.2; stroke-linejoin: miter"/>
    </g>
    <g id="text_22">
     <!-- Active Users -->
     <g style="fill: #262626" transform="translate(116.1325 29.820937) scale(0.14 -0.14)">
      <defs>
       <path id="ArialMT-76" d="M 1344 0 
L 81 3319 
L 675 3319 
L 1388 1331 
Q 1503 1009 1600 663 
Q 1675 925 1809 1294 
L 2547 3319 
L 3125 3319 
L 1869 0 
L 1344 0 
z
" transform="scale(0.015625)"/>
       <path id="ArialMT-55" d="M 3500 4581 
L 4106 4581 
L 4106 1934 
Q 4106 1244 3950 837 
Q 3794 431 3386 176 
Q 2978 -78 2316 -78 
Q 1672 -78 1262 144 
Q 853 366 678 786 
Q 503 1206 503 1934 
L 503 4581 
L 1109 4581 
L 1109 1938 
Q 1109 1341 1220 1058 
Q 1331 775 1601 622 
Q 1872 469 2263 469 
Q 2931 469 3215 772 
Q 3500 1075 3500 1938 
L 3500 4581 
z
" transform="scale(0.015625)"/>
      </defs>
      <use xlink:href="#ArialMT-41"/>
      <use xlink:href="#ArialMT-63" transform="translate(66.699219 0)"/>
      <use xlink:href="#ArialMT-74" transform="translate(116.699219 0)"/>
      <use xlink:href="#ArialMT-69" transform="translate(144.482422 0)"/>
      <use xlink:href="#ArialMT-76" transform="translate(166.699219 0)"/>
      <use xlink:href="#ArialMT-65" transform="translate(216.699219 0)"/>
      <use xlink:href="#ArialMT-20" transform="translate(272.314453 0)"/>
      <use xlink:href="#ArialMT-55" transform="translate(300.097656 0)"/>
      <use xlink:href="#ArialMT-73" transform="translate(372.314453 0)"/>
      <use xlink:href="#ArialMT-65" transform="translate(422.314453 0)"/>
      <use xlink:href="#ArialMT-72" transform="translate(477.929688 0)"/>
      <use xlink:href="#ArialMT-73" transform="translate(511.230469 0)"/>
     </g>
    </g>
    <g id="patch_9">
     <path d="M 76.9325 49.624375 
L 104.9325 49.624375 
L 104.9325 39.824375 
L 76.9325 39.824375 
z
" style="fill: #7a0177; fill-opacity: 0.35; stroke: #7a0177; stroke-width: 2.2; stroke-linejoin: miter"/>
    </g>
    <g id="text_23">
     <!-- Coordinators -->
     <g style="fill: #262626" transform="translate(116.1325 49.624375) scale(0.14 -0.14)">
      <defs>
       <path id="ArialMT-43" d="M 3763 1606 
L 4369 1453 
Q 4178 706 3683 314 
Q 3188 -78 2472 -78 
Q 1731 -78 1267 223 
Q 803 525 561 1097 
Q 319 1669 319 2325 
Q 319 3041 592 3573 
Q 866 4106 1370 4382 
Q 1875 4659 2481 4659 
Q 3169 4659 3637 4309 
Q 4106 3959 4291 3325 
L 3694 3184 
Q 3534 3684 3231 3912 
Q 2928 4141 2469 4141 
Q 1941 4141 1586 3887 
Q 1231 3634 1087 3207 
Q 944 2781 944 2328 
Q 944 1744 1114 1308 
Q 1284 872 1643 656 
Q 2003 441 2422 441 
Q 2931 441 3284 734 
Q 3638 1028 3763 1606 
z
" transform="scale(0.015625)"/>
      </defs>
      <use xlink:href="#ArialMT-43"/>
      <use xlink:href="#ArialMT-6f" transform="translate(72.216797 0)"/>
      <use xlink:href="#ArialMT-6f" transform="translate(127.832031 0)"/>
      <use xlink:href="#ArialMT-72" transform="translate(183.447266 0)"/>
      <use xlink:href="#ArialMT-64" transform="translate(216.748047 0)"/>
      <use xlink:href="#ArialMT-69" transform="translate(272.363281 0)"/>
      <use xlink:href="#ArialMT-6e" transform="translate(294.580078 0)"/>
      <use xlink:href="#ArialMT-61" transform="translate(350.195312 0)"/>
      <use xlink:href="#ArialMT-74" transform="translate(405.810547 0)"/>
      <use xlink:href="#ArialMT-6f" transform="translate(433.59375 0)"/>
      <use xlink:href="#ArialMT-72" transform="translate(489.208984 0)"/>
      <use xlink:href="#ArialMT-73" transform="translate(522.509766 0)"/>
     </g>
    </g>
   </g>
  </g>
 </g>
 <defs>
  <clipPath id="p5e53cbecde">
   <rect x="64.3325" y="7.2" width="558" height="332.64"/>
  </clipPath>
 </defs>
</svg>
