<?xml version="1.0" encoding="utf-8" standalone="no"?>
<!DOCTYPE svg PUBLIC "-//W3C//DTD SVG 1.1//EN"
  "http://www.w3.org/Graphics/SVG/1.1/DTD/svg11.dtd">
<svg xmlns:xlink="http://www.w3.org/1999/xlink" width="699.7475pt" height="411.295312pt" viewBox="0 0 699.7475 411.295312" xmlns="http://www.w3.org/2000/svg" version="1.1">
 <metadata>
  <rdf:RDF xmlns:dc="http://purl.org/dc/elements/1.1/" xmlns:cc="http://creativecommons.org/ns#" xmlns:rdf="http://www.w3.org/1999/02/22-rdf-syntax-ns#">
   <cc:Work>
    <dc:type rdf:resource="http://purl.org/dc/dcmitype/StillImage"/>
    <dc:date>2026-06-13T19:24:42.954530</dc:date>
    <dc:format>image/svg+xml</dc:format>
    <dc:creator>
     <cc:Agent>
      <dc:title>Matplotlib v3.10.8, https://matplotlib.org/</dc:title>
     </cc:Agent>
    </dc:creator>
   </cc:Work>
  </rdf:RDF>
 </metadata>
 <defs>
  <style type="text/css">*{stroke-linejoin: round; stroke-linecap: butt}</style>
 </defs>
 <g id="figure_1">
  <g id="patch_1">
   <path d="M 0 411.295312 
L 699.7475 411.295312 
L 699.7475 0 
L 0 0 
z
" style="fill: #ffffff"/>
  </g>
  <g id="axes_1">
   <g id="patch_2">
    <path d="M 64.3325 353.4 
L 692.5475 353.4 
L 692.5475 7.2 
L 64.3325 7.2 
z
" style="fill: #ffffff"/>
   </g>
   <g id="matplotlib.axis_1">
    <g id="xtick_1">
     <g id="line2d_1">
      <path d="M 122.169659 353.4 
L 122.169659 7.2 
" clip-path="url(#p5ceea919fd)" style="fill: none; stroke: #cccccc; stroke-width: 0.8; stroke-linecap: round"/>
     </g>
     <g id="text_1">
      <!-- 1.25 -->
      <g style="fill: #262626" transform="translate(108.547002 380.420937) scale(0.14 -0.14)">
       <defs>
        <path id="ArialMT-31" d="M 2384 0 
L 1822 0 
L 1822 3584 
Q 1619 3391 1289 3197 
Q 959 3003 697 2906 
L 697 3450 
Q 1169 3672 1522 3987 
Q 1875 4303 2022 4600 
L 2384 4600 
L 2384 0 
z
" transform="scale(0.015625)"/>
        <path id="ArialMT-2e" d="M 581 0 
L 581 641 
L 1222 641 
L 1222 0 
L 581 0 
z
" transform="scale(0.015625)"/>
        <path id="ArialMT-32" d="M 3222 541 
L 3222 0 
L 194 0 
Q 188 203 259 391 
Q 375 700 629 1000 
Q 884 1300 1366 1694 
Q 2113 2306 2375 2664 
Q 2638 3022 2638 3341 
Q 2638 3675 2398 3904 
Q 2159 4134 1775 4134 
Q 1369 4134 1125 3890 
Q 881 3647 878 3216 
L 300 3275 
Q 359 3922 746 4261 
Q 1134 4600 1788 4600 
Q 2447 4600 2831 4234 
Q 3216 3869 3216 3328 
Q 3216 3053 3103 2787 
Q 2991 2522 2730 2228 
Q 2469 1934 1863 1422 
Q 1356 997 1212 845 
Q 1069 694 975 541 
L 3222 541 
z
" transform="scale(0.015625)"/>
        <path id="ArialMT-35" d="M 266 1200 
L 856 1250 
Q 922 819 1161 601 
Q 1400 384 1738 384 
Q 2144 384 2425 690 
Q 2706 997 2706 1503 
Q 2706 1984 2436 2262 
Q 2166 2541 1728 2541 
Q 1456 2541 1237 2417 
Q 1019 2294 894 2097 
L 366 2166 
L 809 4519 
L 3088 4519 
L 3088 3981 
L 1259 3981 
L 1013 2750 
Q 1425 3038 1878 3038 
Q 2478 3038 2890 2622 
Q 3303 2206 3303 1553 
Q 3303 931 2941 478 
Q 2500 -78 1738 -78 
Q 1113 -78 717 272 
Q 322 622 266 1200 
z
" transform="scale(0.015625)"/>
       </defs>
       <use xlink:href="#ArialMT-31"/>
       <use xlink:href="#ArialMT-2e" transform="translate(55.615234 0)"/>
       <use xlink:href="#ArialMT-32" transform="translate(83.398438 0)"/>
       <use xlink:href="#ArialMT-35" transform="translate(139.013672 0)"/>
      </g>
     </g>
    </g>
    <g id="xtick_2">
     <g id="line2d_2">
      <path d="M 197.694058 353.4 
L 197.694058 7.2 
" clip-path="url(#p5ceea919fd)" style="fill: none; stroke: #cccccc; stroke-width: 0.8; stroke-linecap: round"/>
     </g>
     <g id="text_2">
      <!-- 1.50 -->
      <g style="fill: #262626" transform="translate(184.071401 380.420937) scale(0.14 -0.14)">
       <defs>
        <path id="ArialMT-30" d="M 266 2259 
Q 266 3072 433 3567 
Q 600 4063 929 4331 
Q 1259 4600 1759 4600 
Q 2128 4600 2406 4451 
Q 2684 4303 2865 4023 
Q 3047 3744 3150 3342 
Q 3253 2941 3253 2259 
Q 3253 1453 3087 958 
Q 2922 463 2592 192 
Q 2263 -78 1759 -78 
Q 1097 -78 719 397 
Q 266 969 266 2259 
z
M 844 2259 
Q 844 1131 1108 757 
Q 1372 384 1759 384 
Q 2147 384 2411 759 
Q 2675 1134 2675 2259 
Q 2675 3391 2411 3762 
Q 2147 4134 1753 4134 
Q 1366 4134 1134 3806 
Q 844 3388 844 2259 
z
" transform="scale(0.015625)"/>
       </defs>
       <use xlink:href="#ArialMT-31"/>
       <use xlink:href="#ArialMT-2e" transform="translate(55.615234 0)"/>
       <use xlink:href="#ArialMT-35" transform="translate(83.398438 0)"/>
       <use xlink:href="#ArialMT-30" transform="translate(139.013672 0)"/>
      </g>
     </g>
    </g>
    <g id="xtick_3">
     <g id="line2d_3">
      <path d="M 273.218457 353.4 
L 273.218457 7.2 
" clip-path="url(#p5ceea919fd)" style="fill: none; stroke: #cccccc; stroke-width: 0.8; stroke-linecap: round"/>
     </g>
     <g id="text_3">
      <!-- 1.75 -->
      <g style="fill: #262626" transform="translate(259.5958 380.420937) scale(0.14 -0.14)">
       <defs>
        <path id="ArialMT-37" d="M 303 3981 
L 303 4522 
L 3269 4522 
L 3269 4084 
Q 2831 3619 2401 2847 
Q 1972 2075 1738 1259 
Q 1569 684 1522 0 
L 944 0 
Q 953 541 1156 1306 
Q 1359 2072 1739 2783 
Q 2119 3494 2547 3981 
L 303 3981 
z
" transform="scale(0.015625)"/>
       </defs>
       <use xlink:href="#ArialMT-31"/>
       <use xlink:href="#ArialMT-2e" transform="translate(55.615234 0)"/>
       <use xlink:href="#ArialMT-37" transform="translate(83.398438 0)"/>
       <use xlink:href="#ArialMT-35" transform="translate(139.013672 0)"/>
      </g>
     </g>
    </g>
    <g id="xtick_4">
     <g id="line2d_4">
      <path d="M 348.742856 353.4 
L 348.742856 7.2 
" clip-path="url(#p5ceea919fd)" style="fill: none; stroke: #cccccc; stroke-width: 0.8; stroke-linecap: round"/>
     </g>
     <g id="text_4">
      <!-- 2.00 -->
      <g style="fill: #262626" transform="translate(335.120199 380.420937) scale(0.14 -0.14)">
       <use xlink:href="#ArialMT-32"/>
       <use xlink:href="#ArialMT-2e" transform="translate(55.615234 0)"/>
       <use xlink:href="#ArialMT-30" transform="translate(83.398438 0)"/>
       <use xlink:href="#ArialMT-30" transform="translate(139.013672 0)"/>
      </g>
     </g>
    </g>
    <g id="xtick_5">
     <g id="line2d_5">
      <path d="M 424.267255 353.4 
L 424.267255 7.2 
" clip-path="url(#p5ceea919fd)" style="fill: none; stroke: #cccccc; stroke-width: 0.8; stroke-linecap: round"/>
     </g>
     <g id="text_5">
      <!-- 2.25 -->
      <g style="fill: #262626" transform="translate(410.644598 380.420937) scale(0.14 -0.14)">
       <use xlink:href="#ArialMT-32"/>
       <use xlink:href="#ArialMT-2e" transform="translate(55.615234 0)"/>
       <use xlink:href="#ArialMT-32" transform="translate(83.398438 0)"/>
       <use xlink:href="#ArialMT-35" transform="translate(139.013672 0)"/>
      </g>
     </g>
    </g>
    <g id="xtick_6">
     <g id="line2d_6">
      <path d="M 499.791654 353.4 
L 499.791654 7.2 
" clip-path="url(#p5ceea919fd)" style="fill: none; stroke: #cccccc; stroke-width: 0.8; stroke-linecap: round"/>
     </g>
     <g id="text_6">
      <!-- 2.50 -->
      <g style="fill: #262626" transform="translate(486.168997 380.420937) scale(0.14 -0.14)">
       <use xlink:href="#ArialMT-32"/>
       <use xlink:href="#ArialMT-2e" transform="translate(55.615234 0)"/>
       <use xlink:href="#ArialMT-35" transform="translate(83.398438 0)"/>
       <use xlink:href="#ArialMT-30" transform="translate(139.013672 0)"/>
      </g>
     </g>
    </g>
    <g id="xtick_7">
     <g id="line2d_7">
      <path d="M 575.316053 353.4 
L 575.316053 7.2 
" clip-path="url(#p5ceea919fd)" style="fill: none; stroke: #cccccc; stroke-width: 0.8; stroke-linecap: round"/>
     </g>
     <g id="text_7">
      <!-- 2.75 -->
      <g style="fill: #262626" transform="translate(561.693396 380.420937) scale(0.14 -0.14)">
       <use xlink:href="#ArialMT-32"/>
       <use xlink:href="#ArialMT-2e" transform="translate(55.615234 0)"/>
       <use xlink:href="#ArialMT-37" transform="translate(83.398438 0)"/>
       <use xlink:href="#ArialMT-35" transform="translate(139.013672 0)"/>
      </g>
     </g>
    </g>
    <g id="xtick_8">
     <g id="line2d_8">
      <path d="M 650.840452 353.4 
L 650.840452 7.2 
" clip-path="url(#p5ceea919fd)" style="fill: none; stroke: #cccccc; stroke-width: 0.8; stroke-linecap: round"/>
     </g>
     <g id="text_8">
      <!-- 3.00 -->
      <g style="fill: #262626" transform="translate(637.217795 380.420937) scale(0.14 -0.14)">
       <defs>
        <path id="ArialMT-33" d="M 269 1209 
L 831 1284 
Q 928 806 1161 595 
Q 1394 384 1728 384 
Q 2125 384 2398 659 
Q 2672 934 2672 1341 
Q 2672 1728 2419 1979 
Q 2166 2231 1775 2231 
Q 1616 2231 1378 2169 
L 1441 2663 
Q 1497 2656 1531 2656 
Q 1891 2656 2178 2843 
Q 2466 3031 2466 3422 
Q 2466 3731 2256 3934 
Q 2047 4138 1716 4138 
Q 1388 4138 1169 3931 
Q 950 3725 888 3313 
L 325 3413 
Q 428 3978 793 4289 
Q 1159 4600 1703 4600 
Q 2078 4600 2393 4439 
Q 2709 4278 2876 4000 
Q 3044 3722 3044 3409 
Q 3044 3113 2884 2869 
Q 2725 2625 2413 2481 
Q 2819 2388 3044 2092 
Q 3269 1797 3269 1353 
Q 3269 753 2831 336 
Q 2394 -81 1725 -81 
Q 1122 -81 723 278 
Q 325 638 269 1209 
z
" transform="scale(0.015625)"/>
       </defs>
       <use xlink:href="#ArialMT-33"/>
       <use xlink:href="#ArialMT-2e" transform="translate(55.615234 0)"/>
       <use xlink:href="#ArialMT-30" transform="translate(83.398438 0)"/>
       <use xlink:href="#ArialMT-30" transform="translate(139.013672 0)"/>
      </g>
     </g>
    </g>
    <g id="text_9">
     <!-- Truncated PL α (KM-corrected) -->
     <g style="fill: #262626" transform="translate(254.88125 400.306875) scale(0.18 -0.18)">
      <defs>
       <path id="ArialMT-54" d="M 1659 0 
L 1659 4041 
L 150 4041 
L 150 4581 
L 3781 4581 
L 3781 4041 
L 2266 4041 
L 2266 0 
L 1659 0 
z
" transform="scale(0.015625)"/>
       <path id="ArialMT-72" d="M 416 0 
L 416 3319 
L 922 3319 
L 922 2816 
Q 1116 3169 1280 3281 
Q 1444 3394 1641 3394 
Q 1925 3394 2219 3213 
L 2025 2691 
Q 1819 2813 1613 2813 
Q 1428 2813 1281 2702 
Q 1134 2591 1072 2394 
Q 978 2094 978 1738 
L 978 0 
L 416 0 
z
" transform="scale(0.015625)"/>
       <path id="ArialMT-75" d="M 2597 0 
L 2597 488 
Q 2209 -75 1544 -75 
Q 1250 -75 995 37 
Q 741 150 617 320 
Q 494 491 444 738 
Q 409 903 409 1263 
L 409 3319 
L 972 3319 
L 972 1478 
Q 972 1038 1006 884 
Q 1059 663 1231 536 
Q 1403 409 1656 409 
Q 1909 409 2131 539 
Q 2353 669 2445 892 
Q 2538 1116 2538 1541 
L 2538 3319 
L 3100 3319 
L 3100 0 
L 2597 0 
z
" transform="scale(0.015625)"/>
       <path id="ArialMT-6e" d="M 422 0 
L 422 3319 
L 928 3319 
L 928 2847 
Q 1294 3394 1984 3394 
Q 2284 3394 2536 3286 
Q 2788 3178 2913 3003 
Q 3038 2828 3088 2588 
Q 3119 2431 3119 2041 
L 3119 0 
L 2556 0 
L 2556 2019 
Q 2556 2363 2490 2533 
Q 2425 2703 2258 2804 
Q 2091 2906 1866 2906 
Q 1506 2906 1245 2678 
Q 984 2450 984 1813 
L 984 0 
L 422 0 
z
" transform="scale(0.015625)"/>
       <path id="ArialMT-63" d="M 2588 1216 
L 3141 1144 
Q 3050 572 2676 248 
Q 2303 -75 1759 -75 
Q 1078 -75 664 370 
Q 250 816 250 1647 
Q 250 2184 428 2587 
Q 606 2991 970 3192 
Q 1334 3394 1763 3394 
Q 2303 3394 2647 3120 
Q 2991 2847 3088 2344 
L 2541 2259 
Q 2463 2594 2264 2762 
Q 2066 2931 1784 2931 
Q 1359 2931 1093 2626 
Q 828 2322 828 1663 
Q 828 994 1084 691 
Q 1341 388 1753 388 
Q 2084 388 2306 591 
Q 2528 794 2588 1216 
z
" transform="scale(0.015625)"/>
       <path id="ArialMT-61" d="M 2588 409 
Q 2275 144 1986 34 
Q 1697 -75 1366 -75 
Q 819 -75 525 192 
Q 231 459 231 875 
Q 231 1119 342 1320 
Q 453 1522 633 1644 
Q 813 1766 1038 1828 
Q 1203 1872 1538 1913 
Q 2219 1994 2541 2106 
Q 2544 2222 2544 2253 
Q 2544 2597 2384 2738 
Q 2169 2928 1744 2928 
Q 1347 2928 1158 2789 
Q 969 2650 878 2297 
L 328 2372 
Q 403 2725 575 2942 
Q 747 3159 1072 3276 
Q 1397 3394 1825 3394 
Q 2250 3394 2515 3294 
Q 2781 3194 2906 3042 
Q 3031 2891 3081 2659 
Q 3109 2516 3109 2141 
L 3109 1391 
Q 3109 606 3145 398 
Q 3181 191 3288 0 
L 2700 0 
Q 2613 175 2588 409 
z
M 2541 1666 
Q 2234 1541 1622 1453 
Q 1275 1403 1131 1340 
Q 988 1278 909 1158 
Q 831 1038 831 891 
Q 831 666 1001 516 
Q 1172 366 1500 366 
Q 1825 366 2078 508 
Q 2331 650 2450 897 
Q 2541 1088 2541 1459 
L 2541 1666 
z
" transform="scale(0.015625)"/>
       <path id="ArialMT-74" d="M 1650 503 
L 1731 6 
Q 1494 -44 1306 -44 
Q 1000 -44 831 53 
Q 663 150 594 308 
Q 525 466 525 972 
L 525 2881 
L 113 2881 
L 113 3319 
L 525 3319 
L 525 4141 
L 1084 4478 
L 1084 3319 
L 1650 3319 
L 1650 2881 
L 1084 2881 
L 1084 941 
Q 1084 700 1114 631 
Q 1144 563 1211 522 
Q 1278 481 1403 481 
Q 1497 481 1650 503 
z
" transform="scale(0.015625)"/>
       <path id="ArialMT-65" d="M 2694 1069 
L 3275 997 
Q 3138 488 2766 206 
Q 2394 -75 1816 -75 
Q 1088 -75 661 373 
Q 234 822 234 1631 
Q 234 2469 665 2931 
Q 1097 3394 1784 3394 
Q 2450 3394 2872 2941 
Q 3294 2488 3294 1666 
Q 3294 1616 3291 1516 
L 816 1516 
Q 847 969 1125 678 
Q 1403 388 1819 388 
Q 2128 388 2347 550 
Q 2566 713 2694 1069 
z
M 847 1978 
L 2700 1978 
Q 2663 2397 2488 2606 
Q 2219 2931 1791 2931 
Q 1403 2931 1139 2672 
Q 875 2413 847 1978 
z
" transform="scale(0.015625)"/>
       <path id="ArialMT-64" d="M 2575 0 
L 2575 419 
Q 2259 -75 1647 -75 
Q 1250 -75 917 144 
Q 584 363 401 755 
Q 219 1147 219 1656 
Q 219 2153 384 2558 
Q 550 2963 881 3178 
Q 1213 3394 1622 3394 
Q 1922 3394 2156 3267 
Q 2391 3141 2538 2938 
L 2538 4581 
L 3097 4581 
L 3097 0 
L 2575 0 
z
M 797 1656 
Q 797 1019 1065 703 
Q 1334 388 1700 388 
Q 2069 388 2326 689 
Q 2584 991 2584 1609 
Q 2584 2291 2321 2609 
Q 2059 2928 1675 2928 
Q 1300 2928 1048 2622 
Q 797 2316 797 1656 
z
" transform="scale(0.015625)"/>
       <path id="ArialMT-20" transform="scale(0.015625)"/>
       <path id="ArialMT-50" d="M 494 0 
L 494 4581 
L 2222 4581 
Q 2678 4581 2919 4538 
Q 3256 4481 3484 4323 
Q 3713 4166 3852 3881 
Q 3991 3597 3991 3256 
Q 3991 2672 3619 2267 
Q 3247 1863 2275 1863 
L 1100 1863 
L 1100 0 
L 494 0 
z
M 1100 2403 
L 2284 2403 
Q 2872 2403 3119 2622 
Q 3366 2841 3366 3238 
Q 3366 3525 3220 3729 
Q 3075 3934 2838 4000 
Q 2684 4041 2272 4041 
L 1100 4041 
L 1100 2403 
z
" transform="scale(0.015625)"/>
       <path id="ArialMT-4c" d="M 469 0 
L 469 4581 
L 1075 4581 
L 1075 541 
L 3331 541 
L 3331 0 
L 469 0 
z
" transform="scale(0.015625)"/>
       <path id="ArialMT-3b1" d="M 2884 3319 
L 3459 3319 
Q 3241 2631 3056 1659 
Q 3275 453 3459 0 
L 2900 0 
Q 2766 313 2697 606 
Q 2438 -75 1613 -75 
Q 988 -75 606 394 
Q 225 863 225 1666 
Q 225 2491 608 2942 
Q 991 3394 1622 3394 
Q 2013 3394 2259 3236 
Q 2506 3078 2719 2756 
Q 2741 2866 2884 3319 
z
M 1716 2928 
Q 1313 2928 1078 2603 
Q 844 2278 844 1666 
Q 844 1069 1066 728 
Q 1288 388 1684 388 
Q 2072 388 2331 723 
Q 2591 1059 2591 1691 
Q 2591 2303 2348 2615 
Q 2106 2928 1716 2928 
z
" transform="scale(0.015625)"/>
       <path id="ArialMT-28" d="M 1497 -1347 
Q 1031 -759 709 28 
Q 388 816 388 1659 
Q 388 2403 628 3084 
Q 909 3875 1497 4659 
L 1900 4659 
Q 1522 4009 1400 3731 
Q 1209 3300 1100 2831 
Q 966 2247 966 1656 
Q 966 153 1900 -1347 
L 1497 -1347 
z
" transform="scale(0.015625)"/>
       <path id="ArialMT-4b" d="M 469 0 
L 469 4581 
L 1075 4581 
L 1075 2309 
L 3350 4581 
L 4172 4581 
L 2250 2725 
L 4256 0 
L 3456 0 
L 1825 2319 
L 1075 1588 
L 1075 0 
L 469 0 
z
" transform="scale(0.015625)"/>
       <path id="ArialMT-4d" d="M 475 0 
L 475 4581 
L 1388 4581 
L 2472 1338 
Q 2622 884 2691 659 
Q 2769 909 2934 1394 
L 4031 4581 
L 4847 4581 
L 4847 0 
L 4263 0 
L 4263 3834 
L 2931 0 
L 2384 0 
L 1059 3900 
L 1059 0 
L 475 0 
z
" transform="scale(0.015625)"/>
       <path id="ArialMT-2d" d="M 203 1375 
L 203 1941 
L 1931 1941 
L 1931 1375 
L 203 1375 
z
" transform="scale(0.015625)"/>
       <path id="ArialMT-6f" d="M 213 1659 
Q 213 2581 725 3025 
Q 1153 3394 1769 3394 
Q 2453 3394 2887 2945 
Q 3322 2497 3322 1706 
Q 3322 1066 3130 698 
Q 2938 331 2570 128 
Q 2203 -75 1769 -75 
Q 1072 -75 642 372 
Q 213 819 213 1659 
z
M 791 1659 
Q 791 1022 1069 705 
Q 1347 388 1769 388 
Q 2188 388 2466 706 
Q 2744 1025 2744 1678 
Q 2744 2294 2464 2611 
Q 2184 2928 1769 2928 
Q 1347 2928 1069 2612 
Q 791 2297 791 1659 
z
" transform="scale(0.015625)"/>
       <path id="ArialMT-29" d="M 791 -1347 
L 388 -1347 
Q 1322 153 1322 1656 
Q 1322 2244 1188 2822 
Q 1081 3291 891 3722 
Q 769 4003 388 4659 
L 791 4659 
Q 1378 3875 1659 3084 
Q 1900 2403 1900 1659 
Q 1900 816 1576 28 
Q 1253 -759 791 -1347 
z
" transform="scale(0.015625)"/>
      </defs>
      <use xlink:href="#ArialMT-54"/>
      <use xlink:href="#ArialMT-72" transform="translate(57.333984 0)"/>
      <use xlink:href="#ArialMT-75" transform="translate(90.634766 0)"/>
      <use xlink:href="#ArialMT-6e" transform="translate(146.25 0)"/>
      <use xlink:href="#ArialMT-63" transform="translate(201.865234 0)"/>
      <use xlink:href="#ArialMT-61" transform="translate(251.865234 0)"/>
      <use xlink:href="#ArialMT-74" transform="translate(307.480469 0)"/>
      <use xlink:href="#ArialMT-65" transform="translate(335.263672 0)"/>
      <use xlink:href="#ArialMT-64" transform="translate(390.878906 0)"/>
      <use xlink:href="#ArialMT-20" transform="translate(446.494141 0)"/>
      <use xlink:href="#ArialMT-50" transform="translate(474.277344 0)"/>
      <use xlink:href="#ArialMT-4c" transform="translate(540.976562 0)"/>
      <use xlink:href="#ArialMT-20" transform="translate(592.841797 0)"/>
      <use xlink:href="#ArialMT-3b1" transform="translate(620.625 0)"/>
      <use xlink:href="#ArialMT-20" transform="translate(678.4375 0)"/>
      <use xlink:href="#ArialMT-28" transform="translate(706.220703 0)"/>
      <use xlink:href="#ArialMT-4b" transform="translate(739.521484 0)"/>
      <use xlink:href="#ArialMT-4d" transform="translate(806.220703 0)"/>
      <use xlink:href="#ArialMT-2d" transform="translate(889.521484 0)"/>
      <use xlink:href="#ArialMT-63" transform="translate(922.822266 0)"/>
      <use xlink:href="#ArialMT-6f" transform="translate(972.822266 0)"/>
      <use xlink:href="#ArialMT-72" transform="translate(1028.4375 0)"/>
      <use xlink:href="#ArialMT-72" transform="translate(1061.738281 0)"/>
      <use xlink:href="#ArialMT-65" transform="translate(1095.039062 0)"/>
      <use xlink:href="#ArialMT-63" transform="translate(1150.654297 0)"/>
      <use xlink:href="#ArialMT-74" transform="translate(1200.654297 0)"/>
      <use xlink:href="#ArialMT-65" transform="translate(1228.4375 0)"/>
      <use xlink:href="#ArialMT-64" transform="translate(1284.052734 0)"/>
      <use xlink:href="#ArialMT-29" transform="translate(1339.667969 0)"/>
     </g>
    </g>
   </g>
   <g id="matplotlib.axis_2">
    <g id="ytick_1">
     <g id="line2d_9">
      <path d="M 64.3325 353.4 
L 692.5475 353.4 
" clip-path="url(#p5ceea919fd)" style="fill: none; stroke: #cccccc; stroke-width: 0.8; stroke-linecap: round"/>
     </g>
     <g id="text_10">
      <!-- 0.0 -->
      <g style="fill: #262626" transform="translate(27.8725 358.410469) scale(0.14 -0.14)">
       <use xlink:href="#ArialMT-30"/>
       <use xlink:href="#ArialMT-2e" transform="translate(55.615234 0)"/>
       <use xlink:href="#ArialMT-30" transform="translate(83.398438 0)"/>
      </g>
     </g>
    </g>
    <g id="ytick_2">
     <g id="line2d_10">
      <path d="M 64.3325 312.898947 
L 692.5475 312.898947 
" clip-path="url(#p5ceea919fd)" style="fill: none; stroke: #cccccc; stroke-width: 0.8; stroke-linecap: round"/>
     </g>
     <g id="text_11">
      <!-- 0.2 -->
      <g style="fill: #262626" transform="translate(27.8725 317.909416) scale(0.14 -0.14)">
       <use xlink:href="#ArialMT-30"/>
       <use xlink:href="#ArialMT-2e" transform="translate(55.615234 0)"/>
       <use xlink:href="#ArialMT-32" transform="translate(83.398438 0)"/>
      </g>
     </g>
    </g>
    <g id="ytick_3">
     <g id="line2d_11">
      <path d="M 64.3325 272.397894 
L 692.5475 272.397894 
" clip-path="url(#p5ceea919fd)" style="fill: none; stroke: #cccccc; stroke-width: 0.8; stroke-linecap: round"/>
     </g>
     <g id="text_12">
      <!-- 0.4 -->
      <g style="fill: #262626" transform="translate(27.8725 277.408363) scale(0.14 -0.14)">
       <defs>
        <path id="ArialMT-34" d="M 2069 0 
L 2069 1097 
L 81 1097 
L 81 1613 
L 2172 4581 
L 2631 4581 
L 2631 1613 
L 3250 1613 
L 3250 1097 
L 2631 1097 
L 2631 0 
L 2069 0 
z
M 2069 1613 
L 2069 3678 
L 634 1613 
L 2069 1613 
z
" transform="scale(0.015625)"/>
       </defs>
       <use xlink:href="#ArialMT-30"/>
       <use xlink:href="#ArialMT-2e" transform="translate(55.615234 0)"/>
       <use xlink:href="#ArialMT-34" transform="translate(83.398438 0)"/>
      </g>
     </g>
    </g>
    <g id="ytick_4">
     <g id="line2d_12">
      <path d="M 64.3325 231.896842 
L 692.5475 231.896842 
" clip-path="url(#p5ceea919fd)" style="fill: none; stroke: #cccccc; stroke-width: 0.8; stroke-linecap: round"/>
     </g>
     <g id="text_13">
      <!-- 0.6 -->
      <g style="fill: #262626" transform="translate(27.8725 236.90731) scale(0.14 -0.14)">
       <defs>
        <path id="ArialMT-36" d="M 3184 3459 
L 2625 3416 
Q 2550 3747 2413 3897 
Q 2184 4138 1850 4138 
Q 1581 4138 1378 3988 
Q 1113 3794 959 3422 
Q 806 3050 800 2363 
Q 1003 2672 1297 2822 
Q 1591 2972 1913 2972 
Q 2475 2972 2870 2558 
Q 3266 2144 3266 1488 
Q 3266 1056 3080 686 
Q 2894 316 2569 119 
Q 2244 -78 1831 -78 
Q 1128 -78 684 439 
Q 241 956 241 2144 
Q 241 3472 731 4075 
Q 1159 4600 1884 4600 
Q 2425 4600 2770 4297 
Q 3116 3994 3184 3459 
z
M 888 1484 
Q 888 1194 1011 928 
Q 1134 663 1356 523 
Q 1578 384 1822 384 
Q 2178 384 2434 671 
Q 2691 959 2691 1453 
Q 2691 1928 2437 2201 
Q 2184 2475 1800 2475 
Q 1419 2475 1153 2201 
Q 888 1928 888 1484 
z
" transform="scale(0.015625)"/>
       </defs>
       <use xlink:href="#ArialMT-30"/>
       <use xlink:href="#ArialMT-2e" transform="translate(55.615234 0)"/>
       <use xlink:href="#ArialMT-36" transform="translate(83.398438 0)"/>
      </g>
     </g>
    </g>
    <g id="ytick_5">
     <g id="line2d_13">
      <path d="M 64.3325 191.395789 
L 692.5475 191.395789 
" clip-path="url(#p5ceea919fd)" style="fill: none; stroke: #cccccc; stroke-width: 0.8; stroke-linecap: round"/>
     </g>
     <g id="text_14">
      <!-- 0.8 -->
      <g style="fill: #262626" transform="translate(27.8725 196.406258) scale(0.14 -0.14)">
       <defs>
        <path id="ArialMT-38" d="M 1131 2484 
Q 781 2613 612 2850 
Q 444 3088 444 3419 
Q 444 3919 803 4259 
Q 1163 4600 1759 4600 
Q 2359 4600 2725 4251 
Q 3091 3903 3091 3403 
Q 3091 3084 2923 2848 
Q 2756 2613 2416 2484 
Q 2838 2347 3058 2040 
Q 3278 1734 3278 1309 
Q 3278 722 2862 322 
Q 2447 -78 1769 -78 
Q 1091 -78 675 323 
Q 259 725 259 1325 
Q 259 1772 486 2073 
Q 713 2375 1131 2484 
z
M 1019 3438 
Q 1019 3113 1228 2906 
Q 1438 2700 1772 2700 
Q 2097 2700 2305 2904 
Q 2513 3109 2513 3406 
Q 2513 3716 2298 3927 
Q 2084 4138 1766 4138 
Q 1444 4138 1231 3931 
Q 1019 3725 1019 3438 
z
M 838 1322 
Q 838 1081 952 856 
Q 1066 631 1291 507 
Q 1516 384 1775 384 
Q 2178 384 2440 643 
Q 2703 903 2703 1303 
Q 2703 1709 2433 1975 
Q 2163 2241 1756 2241 
Q 1359 2241 1098 1978 
Q 838 1716 838 1322 
z
" transform="scale(0.015625)"/>
       </defs>
       <use xlink:href="#ArialMT-30"/>
       <use xlink:href="#ArialMT-2e" transform="translate(55.615234 0)"/>
       <use xlink:href="#ArialMT-38" transform="translate(83.398438 0)"/>
      </g>
     </g>
    </g>
    <g id="ytick_6">
     <g id="line2d_14">
      <path d="M 64.3325 150.894736 
L 692.5475 150.894736 
" clip-path="url(#p5ceea919fd)" style="fill: none; stroke: #cccccc; stroke-width: 0.8; stroke-linecap: round"/>
     </g>
     <g id="text_15">
      <!-- 1.0 -->
      <g style="fill: #262626" transform="translate(27.8725 155.905205) scale(0.14 -0.14)">
       <use xlink:href="#ArialMT-31"/>
       <use xlink:href="#ArialMT-2e" transform="translate(55.615234 0)"/>
       <use xlink:href="#ArialMT-30" transform="translate(83.398438 0)"/>
      </g>
     </g>
    </g>
    <g id="ytick_7">
     <g id="line2d_15">
      <path d="M 64.3325 110.393683 
L 692.5475 110.393683 
" clip-path="url(#p5ceea919fd)" style="fill: none; stroke: #cccccc; stroke-width: 0.8; stroke-linecap: round"/>
     </g>
     <g id="text_16">
      <!-- 1.2 -->
      <g style="fill: #262626" transform="translate(27.8725 115.404152) scale(0.14 -0.14)">
       <use xlink:href="#ArialMT-31"/>
       <use xlink:href="#ArialMT-2e" transform="translate(55.615234 0)"/>
       <use xlink:href="#ArialMT-32" transform="translate(83.398438 0)"/>
      </g>
     </g>
    </g>
    <g id="ytick_8">
     <g id="line2d_16">
      <path d="M 64.3325 69.892631 
L 692.5475 69.892631 
" clip-path="url(#p5ceea919fd)" style="fill: none; stroke: #cccccc; stroke-width: 0.8; stroke-linecap: round"/>
     </g>
     <g id="text_17">
      <!-- 1.4 -->
      <g style="fill: #262626" transform="translate(27.8725 74.903099) scale(0.14 -0.14)">
       <use xlink:href="#ArialMT-31"/>
       <use xlink:href="#ArialMT-2e" transform="translate(55.615234 0)"/>
       <use xlink:href="#ArialMT-34" transform="translate(83.398438 0)"/>
      </g>
     </g>
    </g>
    <g id="ytick_9">
     <g id="line2d_17">
      <path d="M 64.3325 29.391578 
L 692.5475 29.391578 
" clip-path="url(#p5ceea919fd)" style="fill: none; stroke: #cccccc; stroke-width: 0.8; stroke-linecap: round"/>
     </g>
     <g id="text_18">
      <!-- 1.6 -->
      <g style="fill: #262626" transform="translate(27.8725 34.402047) scale(0.14 -0.14)">
       <use xlink:href="#ArialMT-31"/>
       <use xlink:href="#ArialMT-2e" transform="translate(55.615234 0)"/>
       <use xlink:href="#ArialMT-36" transform="translate(83.398438 0)"/>
      </g>
     </g>
    </g>
    <g id="text_19">
     <!-- Density -->
     <g style="fill: #262626" transform="translate(20.084063 210.309375) rotate(-90) scale(0.18 -0.18)">
      <defs>
       <path id="ArialMT-44" d="M 494 0 
L 494 4581 
L 2072 4581 
Q 2606 4581 2888 4516 
Q 3281 4425 3559 4188 
Q 3922 3881 4101 3404 
Q 4281 2928 4281 2316 
Q 4281 1794 4159 1391 
Q 4038 988 3847 723 
Q 3656 459 3429 307 
Q 3203 156 2883 78 
Q 2563 0 2147 0 
L 494 0 
z
M 1100 541 
L 2078 541 
Q 2531 541 2789 625 
Q 3047 709 3200 863 
Q 3416 1078 3536 1442 
Q 3656 1806 3656 2325 
Q 3656 3044 3420 3430 
Q 3184 3816 2847 3947 
Q 2603 4041 2063 4041 
L 1100 4041 
L 1100 541 
z
" transform="scale(0.015625)"/>
       <path id="ArialMT-73" d="M 197 991 
L 753 1078 
Q 800 744 1014 566 
Q 1228 388 1613 388 
Q 2000 388 2187 545 
Q 2375 703 2375 916 
Q 2375 1106 2209 1216 
Q 2094 1291 1634 1406 
Q 1016 1563 777 1677 
Q 538 1791 414 1992 
Q 291 2194 291 2438 
Q 291 2659 392 2848 
Q 494 3038 669 3163 
Q 800 3259 1026 3326 
Q 1253 3394 1513 3394 
Q 1903 3394 2198 3281 
Q 2494 3169 2634 2976 
Q 2775 2784 2828 2463 
L 2278 2388 
Q 2241 2644 2061 2787 
Q 1881 2931 1553 2931 
Q 1166 2931 1000 2803 
Q 834 2675 834 2503 
Q 834 2394 903 2306 
Q 972 2216 1119 2156 
Q 1203 2125 1616 2013 
Q 2213 1853 2448 1751 
Q 2684 1650 2818 1456 
Q 2953 1263 2953 975 
Q 2953 694 2789 445 
Q 2625 197 2315 61 
Q 2006 -75 1616 -75 
Q 969 -75 630 194 
Q 291 463 197 991 
z
" transform="scale(0.015625)"/>
       <path id="ArialMT-69" d="M 425 3934 
L 425 4581 
L 988 4581 
L 988 3934 
L 425 3934 
z
M 425 0 
L 425 3319 
L 988 3319 
L 988 0 
L 425 0 
z
" transform="scale(0.015625)"/>
       <path id="ArialMT-79" d="M 397 -1278 
L 334 -750 
Q 519 -800 656 -800 
Q 844 -800 956 -737 
Q 1069 -675 1141 -563 
Q 1194 -478 1313 -144 
Q 1328 -97 1363 -6 
L 103 3319 
L 709 3319 
L 1400 1397 
Q 1534 1031 1641 628 
Q 1738 1016 1872 1384 
L 2581 3319 
L 3144 3319 
L 1881 -56 
Q 1678 -603 1566 -809 
Q 1416 -1088 1222 -1217 
Q 1028 -1347 759 -1347 
Q 597 -1347 397 -1278 
z
" transform="scale(0.015625)"/>
      </defs>
      <use xlink:href="#ArialMT-44"/>
      <use xlink:href="#ArialMT-65" transform="translate(72.216797 0)"/>
      <use xlink:href="#ArialMT-6e" transform="translate(127.832031 0)"/>
      <use xlink:href="#ArialMT-73" transform="translate(183.447266 0)"/>
      <use xlink:href="#ArialMT-69" transform="translate(233.447266 0)"/>
      <use xlink:href="#ArialMT-74" transform="translate(255.664062 0)"/>
      <use xlink:href="#ArialMT-79" transform="translate(283.447266 0)"/>
     </g>
    </g>
   </g>
   <g id="FillBetweenPolyCollection_1">
    <path d="M -220.421281 352.826159 
L -220.421281 353.4 
L -214.402575 353.4 
L -208.383868 353.4 
L -202.365162 353.4 
L -196.346456 353.4 
L -190.327749 353.4 
L -184.309043 353.4 
L -178.290337 353.4 
L -172.27163 353.4 
L -166.252924 353.4 
L -160.234218 353.4 
L -154.215511 353.4 
L -148.196805 353.4 
L -142.178099 353.4 
L -136.159392 353.4 
L -130.140686 353.4 
L -124.12198 353.4 
L -118.103273 353.4 
L -112.084567 353.4 
L -106.065861 353.4 
L -100.047154 353.4 
L -94.028448 353.4 
L -88.009742 353.4 
L -81.991035 353.4 
L -75.972329 353.4 
L -69.953622 353.4 
L -63.934916 353.4 
L -57.91621 353.4 
L -51.897503 353.4 
L -45.878797 353.4 
L -39.860091 353.4 
L -33.841384 353.4 
L -27.822678 353.4 
L -21.803972 353.4 
L -15.785265 353.4 
L -9.766559 353.4 
L -3.747853 353.4 
L 2.270854 353.4 
L 8.28956 353.4 
L 14.308266 353.4 
L 20.326973 353.4 
L 26.345679 353.4 
L 32.364385 353.4 
L 38.383092 353.4 
L 44.401798 353.4 
L 50.420504 353.4 
L 56.439211 353.4 
L 62.457917 353.4 
L 68.476623 353.4 
L 74.49533 353.4 
L 80.514036 353.4 
L 86.532742 353.4 
L 92.551449 353.4 
L 98.570155 353.4 
L 104.588861 353.4 
L 110.607568 353.4 
L 116.626274 353.4 
L 122.64498 353.4 
L 128.663687 353.4 
L 134.682393 353.4 
L 140.701099 353.4 
L 146.719806 353.4 
L 152.738512 353.4 
L 158.757219 353.4 
L 164.775925 353.4 
L 170.794631 353.4 
L 176.813338 353.4 
L 182.832044 353.4 
L 188.85075 353.4 
L 194.869457 353.4 
L 200.888163 353.4 
L 206.906869 353.4 
L 212.925576 353.4 
L 218.944282 353.4 
L 224.962988 353.4 
L 230.981695 353.4 
L 237.000401 353.4 
L 243.019107 353.4 
L 249.037814 353.4 
L 255.05652 353.4 
L 261.075226 353.4 
L 267.093933 353.4 
L 273.112639 353.4 
L 279.131345 353.4 
L 285.150052 353.4 
L 291.168758 353.4 
L 297.187464 353.4 
L 303.206171 353.4 
L 309.224877 353.4 
L 315.243583 353.4 
L 321.26229 353.4 
L 327.280996 353.4 
L 333.299702 353.4 
L 339.318409 353.4 
L 345.337115 353.4 
L 351.355821 353.4 
L 357.374528 353.4 
L 363.393234 353.4 
L 369.41194 353.4 
L 375.430647 353.4 
L 381.449353 353.4 
L 387.46806 353.4 
L 393.486766 353.4 
L 399.505472 353.4 
L 405.524179 353.4 
L 411.542885 353.4 
L 417.561591 353.4 
L 423.580298 353.4 
L 429.599004 353.4 
L 435.61771 353.4 
L 441.636417 353.4 
L 447.655123 353.4 
L 453.673829 353.4 
L 459.692536 353.4 
L 465.711242 353.4 
L 471.729948 353.4 
L 477.748655 353.4 
L 483.767361 353.4 
L 489.786067 353.4 
L 495.804774 353.4 
L 501.82348 353.4 
L 507.842186 353.4 
L 513.860893 353.4 
L 519.879599 353.4 
L 525.898305 353.4 
L 531.917012 353.4 
L 537.935718 353.4 
L 543.954424 353.4 
L 549.973131 353.4 
L 555.991837 353.4 
L 562.010543 353.4 
L 568.02925 353.4 
L 574.047956 353.4 
L 580.066662 353.4 
L 586.085369 353.4 
L 592.104075 353.4 
L 598.122781 353.4 
L 604.141488 353.4 
L 610.160194 353.4 
L 616.178901 353.4 
L 622.197607 353.4 
L 628.216313 353.4 
L 634.23502 353.4 
L 640.253726 353.4 
L 646.272432 353.4 
L 652.291139 353.4 
L 658.309845 353.4 
L 664.328551 353.4 
L 670.347258 353.4 
L 676.365964 353.4 
L 682.38467 353.4 
L 688.403377 353.4 
L 694.422083 353.4 
L 700.440789 353.4 
L 706.459496 353.4 
L 712.478202 353.4 
L 718.496908 353.4 
L 724.515615 353.4 
L 730.534321 353.4 
L 736.553027 353.4 
L 742.571734 353.4 
L 748.59044 353.4 
L 754.609146 353.4 
L 760.627853 353.4 
L 766.646559 353.4 
L 772.665265 353.4 
L 778.683972 353.4 
L 784.702678 353.4 
L 790.721384 353.4 
L 796.740091 353.4 
L 802.758797 353.4 
L 808.777503 353.4 
L 814.79621 353.4 
L 820.814916 353.4 
L 826.833622 353.4 
L 832.852329 353.4 
L 838.871035 353.4 
L 844.889742 353.4 
L 850.908448 353.4 
L 856.927154 353.4 
L 862.945861 353.4 
L 868.964567 353.4 
L 874.983273 353.4 
L 881.00198 353.4 
L 887.020686 353.4 
L 893.039392 353.4 
L 899.058099 353.4 
L 905.076805 353.4 
L 911.095511 353.4 
L 917.114218 353.4 
L 923.132924 353.4 
L 929.15163 353.4 
L 935.170337 353.4 
L 941.189043 353.4 
L 947.207749 353.4 
L 953.226456 353.4 
L 959.245162 353.4 
L 965.263868 353.4 
L 971.282575 353.4 
L 977.301281 353.4 
L 977.301281 353.144549 
L 977.301281 353.144549 
L 971.282575 353.097662 
L 965.263868 353.043317 
L 959.245162 352.980556 
L 953.226456 352.908334 
L 947.207749 352.825527 
L 941.189043 352.730929 
L 935.170337 352.623255 
L 929.15163 352.501147 
L 923.132924 352.363182 
L 917.114218 352.207881 
L 911.095511 352.033717 
L 905.076805 351.839134 
L 899.058099 351.622563 
L 893.039392 351.38244 
L 887.020686 351.117226 
L 881.00198 350.825439 
L 874.983273 350.505672 
L 868.964567 350.15663 
L 862.945861 349.777157 
L 856.927154 349.366266 
L 850.908448 348.92318 
L 844.889742 348.447358 
L 838.871035 347.938531 
L 832.852329 347.396734 
L 826.833622 346.822338 
L 820.814916 346.216074 
L 814.79621 345.579061 
L 808.777503 344.912821 
L 802.758797 344.219298 
L 796.740091 343.500864 
L 790.721384 342.760324 
L 784.702678 342.000903 
L 778.683972 341.226243 
L 772.665265 340.440375 
L 766.646559 339.64769 
L 760.627853 338.852904 
L 754.609146 338.061008 
L 748.59044 337.277217 
L 742.571734 336.506906 
L 736.553027 335.755546 
L 730.534321 335.028625 
L 724.515615 334.331576 
L 718.496908 333.66969 
L 712.478202 333.048038 
L 706.459496 332.471387 
L 700.440789 331.944115 
L 694.422083 331.470134 
L 688.403377 331.052816 
L 682.38467 330.694924 
L 676.365964 330.398549 
L 670.347258 330.16506 
L 664.328551 329.995062 
L 658.309845 329.888359 
L 652.291139 329.843941 
L 646.272432 329.859972 
L 640.253726 329.933792 
L 634.23502 330.06194 
L 628.216313 330.240179 
L 622.197607 330.463534 
L 616.178901 330.726349 
L 610.160194 331.022343 
L 604.141488 331.34468 
L 598.122781 331.686048 
L 592.104075 332.038741 
L 586.085369 332.394743 
L 580.066662 332.745819 
L 574.047956 333.083605 
L 568.02925 333.399694 
L 562.010543 333.685728 
L 555.991837 333.933472 
L 549.973131 334.134897 
L 543.954424 334.282247 
L 537.935718 334.3681 
L 531.917012 334.385421 
L 525.898305 334.327605 
L 519.879599 334.188508 
L 513.860893 333.962472 
L 507.842186 333.644332 
L 501.82348 333.229423 
L 495.804774 332.713564 
L 489.786067 332.093046 
L 483.767361 331.364605 
L 477.748655 330.525385 
L 471.729948 329.572903 
L 465.711242 328.505003 
L 459.692536 327.319814 
L 453.673829 326.015696 
L 447.655123 324.591201 
L 441.636417 323.045026 
L 435.61771 321.375974 
L 429.599004 319.582923 
L 423.580298 317.664802 
L 417.561591 315.620575 
L 411.542885 313.449239 
L 405.524179 311.149831 
L 399.505472 308.721454 
L 393.486766 306.163307 
L 387.46806 303.47474 
L 381.449353 300.655318 
L 375.430647 297.704894 
L 369.41194 294.623706 
L 363.393234 291.41247 
L 357.374528 288.0725 
L 351.355821 284.60582 
L 345.337115 281.015291 
L 339.318409 277.304737 
L 333.299702 273.479065 
L 327.280996 269.544395 
L 321.26229 265.508164 
L 315.243583 261.379234 
L 309.224877 257.16798 
L 303.206171 252.886354 
L 297.187464 248.547942 
L 291.168758 244.167979 
L 285.150052 239.763354 
L 279.131345 235.352573 
L 273.112639 230.9557 
L 267.093933 226.594258 
L 261.075226 222.291109 
L 255.05652 218.070288 
L 249.037814 213.956815 
L 243.019107 209.976479 
L 237.000401 206.155586 
L 230.981695 202.52069 
L 224.962988 199.0983 
L 218.944282 195.914574 
L 212.925576 192.995 
L 206.906869 190.36407 
L 200.888163 188.044954 
L 194.869457 186.059181 
L 188.85075 184.426333 
L 182.832044 183.163751 
L 176.813338 182.286266 
L 170.794631 181.805964 
L 164.775925 181.731974 
L 158.757219 182.070306 
L 152.738512 182.823717 
L 146.719806 183.991635 
L 140.701099 185.570119 
L 134.682393 187.551869 
L 128.663687 189.926294 
L 122.64498 192.679607 
L 116.626274 195.794987 
L 110.607568 199.25277 
L 104.588861 203.030684 
L 98.570155 207.104119 
L 92.551449 211.446427 
L 86.532742 216.029251 
L 80.514036 220.822862 
L 74.49533 225.796523 
L 68.476623 230.918849 
L 62.457917 236.158171 
L 56.439211 241.482896 
L 50.420504 246.86185 
L 44.401798 252.264608 
L 38.383092 257.661801 
L 32.364385 263.025394 
L 26.345679 268.328935 
L 20.326973 273.547772 
L 14.308266 278.659236 
L 8.28956 283.642778 
L 2.270854 288.480082 
L -3.747853 293.155133 
L -9.766559 297.654249 
L -15.785265 301.966082 
L -21.803972 306.081585 
L -27.822678 309.993947 
L -33.841384 313.698508 
L -39.860091 317.192643 
L -45.878797 320.475632 
L -51.897503 323.548512 
L -57.91621 326.41392 
L -63.934916 329.07592 
L -69.953622 331.539836 
L -75.972329 333.812072 
L -81.991035 335.899943 
L -88.009742 337.811506 
L -94.028448 339.555395 
L -100.047154 341.140671 
L -106.065861 342.576674 
L -112.084567 343.872898 
L -118.103273 345.038866 
L -124.12198 346.084024 
L -130.140686 347.017654 
L -136.159392 347.848787 
L -142.178099 348.58614 
L -148.196805 349.238063 
L -154.215511 349.812493 
L -160.234218 350.316926 
L -166.252924 350.758397 
L -172.27163 351.143463 
L -178.290337 351.478203 
L -184.309043 351.768221 
L -190.327749 352.018652 
L -196.346456 352.23418 
L -202.365162 352.419053 
L -208.383868 352.577105 
L -214.402575 352.711781 
L -220.421281 352.826159 
z
" clip-path="url(#p5ceea919fd)" style="fill: #7f7f7f; fill-opacity: 0.35; stroke: #7f7f7f; stroke-width: 2.2"/>
   </g>
   <g id="FillBetweenPolyCollection_2">
    <defs>
     <path id="m30b670e887" d="M -7.734486 -59.636832 
L -7.734486 -57.895313 
L -4.903558 -57.895313 
L -2.07263 -57.895313 
L 0.758297 -57.895313 
L 3.589225 -57.895313 
L 6.420153 -57.895313 
L 9.251081 -57.895313 
L 12.082008 -57.895313 
L 14.912936 -57.895313 
L 17.743864 -57.895313 
L 20.574792 -57.895313 
L 23.405719 -57.895313 
L 26.236647 -57.895313 
L 29.067575 -57.895313 
L 31.898503 -57.895313 
L 34.72943 -57.895313 
L 37.560358 -57.895313 
L 40.391286 -57.895313 
L 43.222214 -57.895313 
L 46.053141 -57.895313 
L 48.884069 -57.895313 
L 51.714997 -57.895313 
L 54.545925 -57.895313 
L 57.376853 -57.895313 
L 60.20778 -57.895313 
L 63.038708 -57.895313 
L 65.869636 -57.895313 
L 68.700564 -57.895313 
L 71.531491 -57.895313 
L 74.362419 -57.895313 
L 77.193347 -57.895313 
L 80.024275 -57.895313 
L 82.855202 -57.895313 
L 85.68613 -57.895313 
L 88.517058 -57.895313 
L 91.347986 -57.895313 
L 94.178913 -57.895313 
L 97.009841 -57.895313 
L 99.840769 -57.895313 
L 102.671697 -57.895313 
L 105.502624 -57.895313 
L 108.333552 -57.895313 
L 111.16448 -57.895313 
L 113.995408 -57.895313 
L 116.826336 -57.895313 
L 119.657263 -57.895313 
L 122.488191 -57.895313 
L 125.319119 -57.895313 
L 128.150047 -57.895313 
L 130.980974 -57.895313 
L 133.811902 -57.895313 
L 136.64283 -57.895313 
L 139.473758 -57.895313 
L 142.304685 -57.895313 
L 145.135613 -57.895313 
L 147.966541 -57.895313 
L 150.797469 -57.895313 
L 153.628396 -57.895313 
L 156.459324 -57.895313 
L 159.290252 -57.895313 
L 162.12118 -57.895313 
L 164.952107 -57.895313 
L 167.783035 -57.895313 
L 170.613963 -57.895313 
L 173.444891 -57.895313 
L 176.275819 -57.895313 
L 179.106746 -57.895313 
L 181.937674 -57.895313 
L 184.768602 -57.895313 
L 187.59953 -57.895313 
L 190.430457 -57.895313 
L 193.261385 -57.895313 
L 196.092313 -57.895313 
L 198.923241 -57.895313 
L 201.754168 -57.895313 
L 204.585096 -57.895313 
L 207.416024 -57.895313 
L 210.246952 -57.895313 
L 213.077879 -57.895313 
L 215.908807 -57.895313 
L 218.739735 -57.895313 
L 221.570663 -57.895313 
L 224.40159 -57.895313 
L 227.232518 -57.895313 
L 230.063446 -57.895313 
L 232.894374 -57.895313 
L 235.725302 -57.895313 
L 238.556229 -57.895313 
L 241.387157 -57.895313 
L 244.218085 -57.895313 
L 247.049013 -57.895313 
L 249.87994 -57.895313 
L 252.710868 -57.895313 
L 255.541796 -57.895313 
L 258.372724 -57.895313 
L 261.203651 -57.895313 
L 264.034579 -57.895313 
L 266.865507 -57.895313 
L 269.696435 -57.895313 
L 272.527362 -57.895313 
L 275.35829 -57.895313 
L 278.189218 -57.895313 
L 281.020146 -57.895313 
L 283.851073 -57.895313 
L 286.682001 -57.895313 
L 289.512929 -57.895313 
L 292.343857 -57.895313 
L 295.174785 -57.895313 
L 298.005712 -57.895313 
L 300.83664 -57.895313 
L 303.667568 -57.895313 
L 306.498496 -57.895313 
L 309.329423 -57.895313 
L 312.160351 -57.895313 
L 314.991279 -57.895313 
L 317.822207 -57.895313 
L 320.653134 -57.895313 
L 323.484062 -57.895313 
L 326.31499 -57.895313 
L 329.145918 -57.895313 
L 331.976845 -57.895313 
L 334.807773 -57.895313 
L 337.638701 -57.895313 
L 340.469629 -57.895313 
L 343.300556 -57.895313 
L 346.131484 -57.895313 
L 348.962412 -57.895313 
L 351.79334 -57.895313 
L 354.624268 -57.895313 
L 357.455195 -57.895313 
L 360.286123 -57.895313 
L 363.117051 -57.895313 
L 365.947979 -57.895313 
L 368.778906 -57.895313 
L 371.609834 -57.895313 
L 374.440762 -57.895313 
L 377.27169 -57.895313 
L 380.102617 -57.895313 
L 382.933545 -57.895313 
L 385.764473 -57.895313 
L 388.595401 -57.895313 
L 391.426328 -57.895313 
L 394.257256 -57.895313 
L 397.088184 -57.895313 
L 399.919112 -57.895313 
L 402.750039 -57.895313 
L 405.580967 -57.895313 
L 408.411895 -57.895313 
L 411.242823 -57.895313 
L 414.073751 -57.895313 
L 416.904678 -57.895313 
L 419.735606 -57.895313 
L 422.566534 -57.895313 
L 425.397462 -57.895313 
L 428.228389 -57.895313 
L 431.059317 -57.895313 
L 433.890245 -57.895313 
L 436.721173 -57.895313 
L 439.5521 -57.895313 
L 442.383028 -57.895313 
L 445.213956 -57.895313 
L 448.044884 -57.895313 
L 450.875811 -57.895313 
L 453.706739 -57.895313 
L 456.537667 -57.895313 
L 459.368595 -57.895313 
L 462.199522 -57.895313 
L 465.03045 -57.895313 
L 467.861378 -57.895313 
L 470.692306 -57.895313 
L 473.523234 -57.895313 
L 476.354161 -57.895313 
L 479.185089 -57.895313 
L 482.016017 -57.895313 
L 484.846945 -57.895313 
L 487.677872 -57.895313 
L 490.5088 -57.895313 
L 493.339728 -57.895313 
L 496.170656 -57.895313 
L 499.001583 -57.895313 
L 501.832511 -57.895313 
L 504.663439 -57.895313 
L 507.494367 -57.895313 
L 510.325294 -57.895313 
L 513.156222 -57.895313 
L 515.98715 -57.895313 
L 518.818078 -57.895313 
L 521.649005 -57.895313 
L 524.479933 -57.895313 
L 527.310861 -57.895313 
L 530.141789 -57.895313 
L 532.972717 -57.895313 
L 535.803644 -57.895313 
L 538.634572 -57.895313 
L 541.4655 -57.895313 
L 544.296428 -57.895313 
L 547.127355 -57.895313 
L 549.958283 -57.895313 
L 552.789211 -57.895313 
L 555.620139 -57.895313 
L 555.620139 -58.594276 
L 555.620139 -58.594276 
L 552.789211 -58.708982 
L 549.958283 -58.840045 
L 547.127355 -58.98936 
L 544.296428 -59.158973 
L 541.4655 -59.351078 
L 538.634572 -59.568018 
L 535.803644 -59.812277 
L 532.972717 -60.086482 
L 530.141789 -60.393383 
L 527.310861 -60.735849 
L 524.479933 -61.116851 
L 521.649005 -61.539438 
L 518.818078 -62.006722 
L 515.98715 -62.521844 
L 513.156222 -63.087947 
L 510.325294 -63.708142 
L 507.494367 -64.385469 
L 504.663439 -65.122856 
L 501.832511 -65.923073 
L 499.001583 -66.788684 
L 496.170656 -67.721997 
L 493.339728 -68.725014 
L 490.5088 -69.799374 
L 487.677872 -70.9463 
L 484.846945 -72.166549 
L 482.016017 -73.460354 
L 479.185089 -74.827379 
L 476.354161 -76.266672 
L 473.523234 -77.776622 
L 470.692306 -79.354924 
L 467.861378 -80.998549 
L 465.03045 -82.703726 
L 462.199522 -84.465924 
L 459.368595 -86.279856 
L 456.537667 -88.139482 
L 453.706739 -90.038033 
L 450.875811 -91.968041 
L 448.044884 -93.921382 
L 445.213956 -95.889335 
L 442.383028 -97.862649 
L 439.5521 -99.831626 
L 436.721173 -101.786212 
L 433.890245 -103.716102 
L 431.059317 -105.610855 
L 428.228389 -107.460011 
L 425.397462 -109.253226 
L 422.566534 -110.980404 
L 419.735606 -112.631833 
L 416.904678 -114.198332 
L 414.073751 -115.671381 
L 411.242823 -117.043268 
L 408.411895 -118.307213 
L 405.580967 -119.4575 
L 402.750039 -120.489589 
L 399.919112 -121.400226 
L 397.088184 -122.18753 
L 394.257256 -122.85108 
L 391.426328 -123.391971 
L 388.595401 -123.81286 
L 385.764473 -124.117999 
L 382.933545 -124.313239 
L 380.102617 -124.406022 
L 377.27169 -124.405352 
L 374.440762 -124.321747 
L 371.609834 -124.167174 
L 368.778906 -123.954968 
L 365.947979 -123.69973 
L 363.117051 -123.417214 
L 360.286123 -123.124203 
L 357.455195 -122.838368 
L 354.624268 -122.578122 
L 351.79334 -122.362467 
L 348.962412 -122.210829 
L 346.131484 -122.142902 
L 343.300556 -122.178473 
L 340.469629 -122.337268 
L 337.638701 -122.638783 
L 334.807773 -123.102127 
L 331.976845 -123.745872 
L 329.145918 -124.587906 
L 326.31499 -125.645293 
L 323.484062 -126.934147 
L 320.653134 -128.469508 
L 317.822207 -130.265237 
L 314.991279 -132.333909 
L 312.160351 -134.686725 
L 309.329423 -137.333432 
L 306.498496 -140.282248 
L 303.667568 -143.539796 
L 300.83664 -147.111052 
L 298.005712 -150.999293 
L 295.174785 -155.206051 
L 292.343857 -159.731081 
L 289.512929 -164.572324 
L 286.682001 -169.72588 
L 283.851073 -175.185981 
L 281.020146 -180.944973 
L 278.189218 -186.993294 
L 275.35829 -193.319463 
L 272.527362 -199.910065 
L 269.696435 -206.749749 
L 266.865507 -213.821224 
L 264.034579 -221.105263 
L 261.203651 -228.580716 
L 258.372724 -236.224534 
L 255.541796 -244.011792 
L 252.710868 -251.915742 
L 249.87994 -259.907864 
L 247.049013 -267.95794 
L 244.218085 -276.034143 
L 241.387157 -284.103147 
L 238.556229 -292.130254 
L 235.725302 -300.079544 
L 232.894374 -307.914048 
L 230.063446 -315.595936 
L 227.232518 -323.086741 
L 224.40159 -330.347591 
L 221.570663 -337.33947 
L 218.739735 -344.023494 
L 215.908807 -350.361209 
L 213.077879 -356.314897 
L 210.246952 -361.847897 
L 207.416024 -366.924934 
L 204.585096 -371.512454 
L 201.754168 -375.578949 
L 198.923241 -379.095289 
L 196.092313 -382.035033 
L 193.261385 -384.37473 
L 190.430457 -386.094202 
L 187.59953 -387.176793 
L 184.768602 -387.609598 
L 181.937674 -387.383649 
L 179.106746 -386.49407 
L 176.275819 -384.940185 
L 173.444891 -382.725584 
L 170.613963 -379.858142 
L 167.783035 -376.34999 
L 164.952107 -372.21744 
L 162.12118 -367.480856 
L 159.290252 -362.164484 
L 156.459324 -356.296238 
L 153.628396 -349.907434 
L 150.797469 -343.032499 
L 147.966541 -335.708635 
L 145.135613 -327.975459 
L 142.304685 -319.874616 
L 139.473758 -311.449374 
L 136.64283 -302.744206 
L 133.811902 -293.804365 
L 130.980974 -284.675459 
L 128.150047 -275.403033 
L 125.319119 -266.032156 
L 122.488191 -256.60703 
L 119.657263 -247.170623 
L 116.826336 -237.764318 
L 113.995408 -228.427605 
L 111.16448 -219.197797 
L 108.333552 -210.109789 
L 105.502624 -201.195846 
L 102.671697 -192.485444 
L 99.840769 -184.005137 
L 97.009841 -175.778475 
L 94.178913 -167.825955 
L 91.347986 -160.165011 
L 88.517058 -152.81004 
L 85.68613 -145.772461 
L 82.855202 -139.060806 
L 80.024275 -132.680836 
L 77.193347 -126.635682 
L 74.362419 -120.926006 
L 71.531491 -115.550181 
L 68.700564 -110.504476 
L 65.869636 -105.783264 
L 63.038708 -101.37922 
L 60.20778 -97.283536 
L 57.376853 -93.486123 
L 54.545925 -89.975821 
L 51.714997 -86.740591 
L 48.884069 -83.767712 
L 46.053141 -81.043956 
L 43.222214 -78.555759 
L 40.391286 -76.289375 
L 37.560358 -74.231021 
L 34.72943 -72.367002 
L 31.898503 -70.683827 
L 29.067575 -69.168306 
L 26.236647 -67.807636 
L 23.405719 -66.589469 
L 20.574792 -65.501973 
L 17.743864 -64.533876 
L 14.912936 -63.674496 
L 12.082008 -62.913769 
L 9.251081 -62.242257 
L 6.420153 -61.651154 
L 3.589225 -61.132283 
L 0.758297 -60.678083 
L -2.07263 -60.281598 
L -4.903558 -59.936454 
L -7.734486 -59.636832 
z
" style="stroke: #2166ac; stroke-width: 2.2"/>
    </defs>
    <g clip-path="url(#p5ceea919fd)">
     <use xlink:href="#m30b670e887" x="0" y="411.295312" style="fill: #2166ac; fill-opacity: 0.35; stroke: #2166ac; stroke-width: 2.2"/>
    </g>
   </g>
   <g id="FillBetweenPolyCollection_3">
    <defs>
     <path id="m0d7f58cd92" d="M -120.698432 -59.518159 
L -120.698432 -57.895313 
L -117.491378 -57.895313 
L -114.284324 -57.895313 
L -111.07727 -57.895313 
L -107.870216 -57.895313 
L -104.663162 -57.895313 
L -101.456108 -57.895313 
L -98.249054 -57.895313 
L -95.042 -57.895313 
L -91.834946 -57.895313 
L -88.627892 -57.895313 
L -85.420838 -57.895313 
L -82.213784 -57.895313 
L -79.00673 -57.895313 
L -75.799676 -57.895313 
L -72.592622 -57.895313 
L -69.385568 -57.895313 
L -66.178514 -57.895313 
L -62.97146 -57.895313 
L -59.764406 -57.895313 
L -56.557352 -57.895313 
L -53.350298 -57.895313 
L -50.143244 -57.895313 
L -46.93619 -57.895313 
L -43.729136 -57.895313 
L -40.522082 -57.895313 
L -37.315028 -57.895313 
L -34.107974 -57.895313 
L -30.90092 -57.895313 
L -27.693866 -57.895313 
L -24.486812 -57.895313 
L -21.279759 -57.895313 
L -18.072705 -57.895313 
L -14.865651 -57.895313 
L -11.658597 -57.895313 
L -8.451543 -57.895313 
L -5.244489 -57.895313 
L -2.037435 -57.895313 
L 1.169619 -57.895313 
L 4.376673 -57.895313 
L 7.583727 -57.895313 
L 10.790781 -57.895313 
L 13.997835 -57.895313 
L 17.204889 -57.895313 
L 20.411943 -57.895313 
L 23.618997 -57.895313 
L 26.826051 -57.895313 
L 30.033105 -57.895313 
L 33.240159 -57.895313 
L 36.447213 -57.895313 
L 39.654267 -57.895313 
L 42.861321 -57.895313 
L 46.068375 -57.895313 
L 49.275429 -57.895313 
L 52.482483 -57.895313 
L 55.689537 -57.895313 
L 58.896591 -57.895313 
L 62.103645 -57.895313 
L 65.310699 -57.895313 
L 68.517753 -57.895313 
L 71.724807 -57.895313 
L 74.931861 -57.895313 
L 78.138915 -57.895313 
L 81.345969 -57.895313 
L 84.553023 -57.895313 
L 87.760077 -57.895313 
L 90.967131 -57.895313 
L 94.174185 -57.895313 
L 97.381239 -57.895313 
L 100.588293 -57.895313 
L 103.795347 -57.895313 
L 107.0024 -57.895313 
L 110.209454 -57.895313 
L 113.416508 -57.895313 
L 116.623562 -57.895313 
L 119.830616 -57.895313 
L 123.03767 -57.895313 
L 126.244724 -57.895313 
L 129.451778 -57.895313 
L 132.658832 -57.895313 
L 135.865886 -57.895313 
L 139.07294 -57.895313 
L 142.279994 -57.895313 
L 145.487048 -57.895313 
L 148.694102 -57.895313 
L 151.901156 -57.895313 
L 155.10821 -57.895313 
L 158.315264 -57.895313 
L 161.522318 -57.895313 
L 164.729372 -57.895313 
L 167.936426 -57.895313 
L 171.14348 -57.895313 
L 174.350534 -57.895313 
L 177.557588 -57.895313 
L 180.764642 -57.895313 
L 183.971696 -57.895313 
L 187.17875 -57.895313 
L 190.385804 -57.895313 
L 193.592858 -57.895313 
L 196.799912 -57.895313 
L 200.006966 -57.895313 
L 203.21402 -57.895313 
L 206.421074 -57.895313 
L 209.628128 -57.895313 
L 212.835182 -57.895313 
L 216.042236 -57.895313 
L 219.24929 -57.895313 
L 222.456344 -57.895313 
L 225.663398 -57.895313 
L 228.870452 -57.895313 
L 232.077506 -57.895313 
L 235.28456 -57.895313 
L 238.491613 -57.895313 
L 241.698667 -57.895313 
L 244.905721 -57.895313 
L 248.112775 -57.895313 
L 251.319829 -57.895313 
L 254.526883 -57.895313 
L 257.733937 -57.895313 
L 260.940991 -57.895313 
L 264.148045 -57.895313 
L 267.355099 -57.895313 
L 270.562153 -57.895313 
L 273.769207 -57.895313 
L 276.976261 -57.895313 
L 280.183315 -57.895313 
L 283.390369 -57.895313 
L 286.597423 -57.895313 
L 289.804477 -57.895313 
L 293.011531 -57.895313 
L 296.218585 -57.895313 
L 299.425639 -57.895313 
L 302.632693 -57.895313 
L 305.839747 -57.895313 
L 309.046801 -57.895313 
L 312.253855 -57.895313 
L 315.460909 -57.895313 
L 318.667963 -57.895313 
L 321.875017 -57.895313 
L 325.082071 -57.895313 
L 328.289125 -57.895313 
L 331.496179 -57.895313 
L 334.703233 -57.895313 
L 337.910287 -57.895313 
L 341.117341 -57.895313 
L 344.324395 -57.895313 
L 347.531449 -57.895313 
L 350.738503 -57.895313 
L 353.945557 -57.895313 
L 357.152611 -57.895313 
L 360.359665 -57.895313 
L 363.566719 -57.895313 
L 366.773772 -57.895313 
L 369.980826 -57.895313 
L 373.18788 -57.895313 
L 376.394934 -57.895313 
L 379.601988 -57.895313 
L 382.809042 -57.895313 
L 386.016096 -57.895313 
L 389.22315 -57.895313 
L 392.430204 -57.895313 
L 395.637258 -57.895313 
L 398.844312 -57.895313 
L 402.051366 -57.895313 
L 405.25842 -57.895313 
L 408.465474 -57.895313 
L 411.672528 -57.895313 
L 414.879582 -57.895313 
L 418.086636 -57.895313 
L 421.29369 -57.895313 
L 424.500744 -57.895313 
L 427.707798 -57.895313 
L 430.914852 -57.895313 
L 434.121906 -57.895313 
L 437.32896 -57.895313 
L 440.536014 -57.895313 
L 443.743068 -57.895313 
L 446.950122 -57.895313 
L 450.157176 -57.895313 
L 453.36423 -57.895313 
L 456.571284 -57.895313 
L 459.778338 -57.895313 
L 462.985392 -57.895313 
L 466.192446 -57.895313 
L 469.3995 -57.895313 
L 472.606554 -57.895313 
L 475.813608 -57.895313 
L 479.020662 -57.895313 
L 482.227716 -57.895313 
L 485.43477 -57.895313 
L 488.641824 -57.895313 
L 491.848878 -57.895313 
L 495.055932 -57.895313 
L 498.262985 -57.895313 
L 501.470039 -57.895313 
L 504.677093 -57.895313 
L 507.884147 -57.895313 
L 511.091201 -57.895313 
L 514.298255 -57.895313 
L 517.505309 -57.895313 
L 517.505309 -59.518159 
L 517.505309 -59.518159 
L 514.298255 -59.714738 
L 511.091201 -59.932155 
L 507.884147 -60.172227 
L 504.677093 -60.436886 
L 501.470039 -60.728175 
L 498.262985 -61.048251 
L 495.055932 -61.399383 
L 491.848878 -61.783955 
L 488.641824 -62.204459 
L 485.43477 -62.663496 
L 482.227716 -63.16377 
L 479.020662 -63.708083 
L 475.813608 -64.299332 
L 472.606554 -64.940494 
L 469.3995 -65.634624 
L 466.192446 -66.384841 
L 462.985392 -67.194319 
L 459.778338 -68.066268 
L 456.571284 -69.003926 
L 453.36423 -70.010538 
L 450.157176 -71.08934 
L 446.950122 -72.24354 
L 443.743068 -73.476297 
L 440.536014 -74.790701 
L 437.32896 -76.189746 
L 434.121906 -77.676311 
L 430.914852 -79.253133 
L 427.707798 -80.92278 
L 424.500744 -82.687628 
L 421.29369 -84.549833 
L 418.086636 -86.511304 
L 414.879582 -88.573679 
L 411.672528 -90.738295 
L 408.465474 -93.006168 
L 405.25842 -95.377963 
L 402.051366 -97.853977 
L 398.844312 -100.434112 
L 395.637258 -103.117857 
L 392.430204 -105.904273 
L 389.22315 -108.791975 
L 386.016096 -111.779119 
L 382.809042 -114.863396 
L 379.601988 -118.042021 
L 376.394934 -121.311734 
L 373.18788 -124.668799 
L 369.980826 -128.109006 
L 366.773772 -131.627684 
L 363.566719 -135.21971 
L 360.359665 -138.879526 
L 357.152611 -142.601159 
L 353.945557 -146.378245 
L 350.738503 -150.204058 
L 347.531449 -154.071538 
L 344.324395 -157.973331 
L 341.117341 -161.901824 
L 337.910287 -165.849187 
L 334.703233 -169.807414 
L 331.496179 -173.768375 
L 328.289125 -177.723857 
L 325.082071 -181.665615 
L 321.875017 -185.585425 
L 318.667963 -189.475127 
L 315.460909 -193.326679 
L 312.253855 -197.132205 
L 309.046801 -200.884042 
L 305.839747 -204.574783 
L 302.632693 -208.197323 
L 299.425639 -211.744898 
L 296.218585 -215.211117 
L 293.011531 -218.59 
L 289.804477 -221.876004 
L 286.597423 -225.064044 
L 283.390369 -228.149514 
L 280.183315 -231.1283 
L 276.976261 -233.996785 
L 273.769207 -236.751854 
L 270.562153 -239.390888 
L 267.355099 -241.911759 
L 264.148045 -244.312813 
L 260.940991 -246.59285 
L 257.733937 -248.751104 
L 254.526883 -250.78721 
L 251.319829 -252.701175 
L 248.112775 -254.49334 
L 244.905721 -256.164341 
L 241.698667 -257.715068 
L 238.491613 -259.146622 
L 235.28456 -260.46027 
L 232.077506 -261.657397 
L 228.870452 -262.739466 
L 225.663398 -263.707972 
L 222.456344 -264.564398 
L 219.24929 -265.310174 
L 216.042236 -265.946643 
L 212.835182 -266.475022 
L 209.628128 -266.896377 
L 206.421074 -267.211591 
L 203.21402 -267.421347 
L 200.006966 -267.526107 
L 196.799912 -267.526107 
L 193.592858 -267.421347 
L 190.385804 -267.211591 
L 187.17875 -266.896377 
L 183.971696 -266.475022 
L 180.764642 -265.946643 
L 177.557588 -265.310174 
L 174.350534 -264.564398 
L 171.14348 -263.707972 
L 167.936426 -262.739466 
L 164.729372 -261.657397 
L 161.522318 -260.46027 
L 158.315264 -259.146622 
L 155.10821 -257.715068 
L 151.901156 -256.164341 
L 148.694102 -254.49334 
L 145.487048 -252.701175 
L 142.279994 -250.78721 
L 139.07294 -248.751104 
L 135.865886 -246.59285 
L 132.658832 -244.312813 
L 129.451778 -241.911759 
L 126.244724 -239.390888 
L 123.03767 -236.751854 
L 119.830616 -233.996785 
L 116.623562 -231.1283 
L 113.416508 -228.149514 
L 110.209454 -225.064044 
L 107.0024 -221.876004 
L 103.795347 -218.59 
L 100.588293 -215.211117 
L 97.381239 -211.744898 
L 94.174185 -208.197323 
L 90.967131 -204.574783 
L 87.760077 -200.884042 
L 84.553023 -197.132205 
L 81.345969 -193.326679 
L 78.138915 -189.475127 
L 74.931861 -185.585425 
L 71.724807 -181.665615 
L 68.517753 -177.723857 
L 65.310699 -173.768375 
L 62.103645 -169.807414 
L 58.896591 -165.849187 
L 55.689537 -161.901824 
L 52.482483 -157.973331 
L 49.275429 -154.071538 
L 46.068375 -150.204058 
L 42.861321 -146.378245 
L 39.654267 -142.601159 
L 36.447213 -138.879526 
L 33.240159 -135.21971 
L 30.033105 -131.627684 
L 26.826051 -128.109006 
L 23.618997 -124.668799 
L 20.411943 -121.311734 
L 17.204889 -118.042021 
L 13.997835 -114.863396 
L 10.790781 -111.779119 
L 7.583727 -108.791975 
L 4.376673 -105.904273 
L 1.169619 -103.117857 
L -2.037435 -100.434112 
L -5.244489 -97.853977 
L -8.451543 -95.377963 
L -11.658597 -93.006168 
L -14.865651 -90.738295 
L -18.072705 -88.573679 
L -21.279759 -86.511304 
L -24.486812 -84.549833 
L -27.693866 -82.687628 
L -30.90092 -80.92278 
L -34.107974 -79.253133 
L -37.315028 -77.676311 
L -40.522082 -76.189746 
L -43.729136 -74.790701 
L -46.93619 -73.476297 
L -50.143244 -72.24354 
L -53.350298 -71.08934 
L -56.557352 -70.010538 
L -59.764406 -69.003926 
L -62.97146 -68.066268 
L -66.178514 -67.194319 
L -69.385568 -66.384841 
L -72.592622 -65.634624 
L -75.799676 -64.940494 
L -79.00673 -64.299332 
L -82.213784 -63.708083 
L -85.420838 -63.16377 
L -88.627892 -62.663496 
L -91.834946 -62.204459 
L -95.042 -61.783955 
L -98.249054 -61.399383 
L -101.456108 -61.048251 
L -104.663162 -60.728175 
L -107.870216 -60.436886 
L -111.07727 -60.172227 
L -114.284324 -59.932155 
L -117.491378 -59.714738 
L -120.698432 -59.518159 
z
" style="stroke: #d6604d; stroke-width: 2.2"/>
    </defs>
    <g clip-path="url(#p5ceea919fd)">
     <use xlink:href="#m0d7f58cd92" x="0" y="411.295312" style="fill: #d6604d; fill-opacity: 0.35; stroke: #d6604d; stroke-width: 2.2"/>
    </g>
   </g>
   <g id="line2d_18">
    <path d="M 163.595135 353.4 
L 163.595135 7.2 
" clip-path="url(#p5ceea919fd)" style="fill: none; stroke-dasharray: 5.92,2.56; stroke-dashoffset: 0; stroke: #7f7f7f; stroke-width: 1.6"/>
   </g>
   <g id="line2d_19">
    <path d="M 187.481629 353.4 
L 187.481629 7.2 
" clip-path="url(#p5ceea919fd)" style="fill: none; stroke-dasharray: 5.92,2.56; stroke-dashoffset: 0; stroke: #2166ac; stroke-width: 1.6"/>
   </g>
   <g id="line2d_20">
    <path d="M 198.403439 353.4 
L 198.403439 7.2 
" clip-path="url(#p5ceea919fd)" style="fill: none; stroke-dasharray: 5.92,2.56; stroke-dashoffset: 0; stroke: #d6604d; stroke-width: 1.6"/>
   </g>
   <g id="patch_3">
    <path d="M 54.3325 353.4 
L 54.3325 29.391578 
" style="fill: none; stroke: #cccccc; stroke-width: 0.8; stroke-linejoin: miter; stroke-linecap: square"/>
   </g>
   <g id="patch_4">
    <path d="M 122.169659 363.4 
L 650.840452 363.4 
" style="fill: none; stroke: #cccccc; stroke-width: 0.8; stroke-linejoin: miter; stroke-linecap: square"/>
   </g>
   <g id="text_20">
    <g id="patch_5">
     <path d="M 151.918573 49.470375 
L 175.271698 49.470375 
Q 178.871698 49.470375 178.871698 45.870375 
L 178.871698 34.896 
Q 178.871698 31.296 175.271698 31.296 
L 151.918573 31.296 
Q 148.318573 31.296 148.318573 34.896 
L 148.318573 45.870375 
Q 148.318573 49.470375 151.918573 49.470375 
z
" style="fill: #7f7f7f"/>
    </g>
    <!-- 1.39 -->
    <g style="fill: #ffffff" transform="translate(151.918573 43.485375) scale(0.12 -0.12)">
     <defs>
      <path id="ArialMT-39" d="M 350 1059 
L 891 1109 
Q 959 728 1153 556 
Q 1347 384 1650 384 
Q 1909 384 2104 503 
Q 2300 622 2425 820 
Q 2550 1019 2634 1356 
Q 2719 1694 2719 2044 
Q 2719 2081 2716 2156 
Q 2547 1888 2255 1720 
Q 1963 1553 1622 1553 
Q 1053 1553 659 1965 
Q 266 2378 266 3053 
Q 266 3750 677 4175 
Q 1088 4600 1706 4600 
Q 2153 4600 2523 4359 
Q 2894 4119 3086 3673 
Q 3278 3228 3278 2384 
Q 3278 1506 3087 986 
Q 2897 466 2520 194 
Q 2144 -78 1638 -78 
Q 1100 -78 759 220 
Q 419 519 350 1059 
z
M 2653 3081 
Q 2653 3566 2395 3850 
Q 2138 4134 1775 4134 
Q 1400 4134 1122 3828 
Q 844 3522 844 3034 
Q 844 2597 1108 2323 
Q 1372 2050 1759 2050 
Q 2150 2050 2401 2323 
Q 2653 2597 2653 3081 
z
" transform="scale(0.015625)"/>
     </defs>
     <use xlink:href="#ArialMT-31"/>
     <use xlink:href="#ArialMT-2e" transform="translate(55.615234 0)"/>
     <use xlink:href="#ArialMT-33" transform="translate(83.398438 0)"/>
     <use xlink:href="#ArialMT-39" transform="translate(139.013672 0)"/>
    </g>
   </g>
   <g id="text_21">
    <g id="patch_6">
     <path d="M 175.805066 91.014375 
L 199.158191 91.014375 
Q 202.758191 91.014375 202.758191 87.414375 
L 202.758191 76.44 
Q 202.758191 72.84 199.158191 72.84 
L 175.805066 72.84 
Q 172.205066 72.84 172.205066 76.44 
L 172.205066 87.414375 
Q 172.205066 91.014375 175.805066 91.014375 
z
" style="fill: #2166ac"/>
    </g>
    <!-- 1.47 -->
    <g style="fill: #ffffff" transform="translate(175.805066 85.029375) scale(0.12 -0.12)">
     <use xlink:href="#ArialMT-31"/>
     <use xlink:href="#ArialMT-2e" transform="translate(55.615234 0)"/>
     <use xlink:href="#ArialMT-34" transform="translate(83.398438 0)"/>
     <use xlink:href="#ArialMT-37" transform="translate(139.013672 0)"/>
    </g>
   </g>
   <g id="text_22">
    <g id="patch_7">
     <path d="M 186.726876 132.558375 
L 210.080001 132.558375 
Q 213.680001 132.558375 213.680001 128.958375 
L 213.680001 117.984 
Q 213.680001 114.384 210.080001 114.384 
L 186.726876 114.384 
Q 183.126876 114.384 183.126876 117.984 
L 183.126876 128.958375 
Q 183.126876 132.558375 186.726876 132.558375 
z
" style="fill: #d6604d"/>
    </g>
    <!-- 1.50 -->
    <g style="fill: #ffffff" transform="translate(186.726876 126.573375) scale(0.12 -0.12)">
     <use xlink:href="#ArialMT-31"/>
     <use xlink:href="#ArialMT-2e" transform="translate(55.615234 0)"/>
     <use xlink:href="#ArialMT-35" transform="translate(83.398438 0)"/>
     <use xlink:href="#ArialMT-30" transform="translate(139.013672 0)"/>
    </g>
   </g>
   <g id="legend_1">
    <g id="patch_8">
     <path d="M 558.606875 78.814375 
L 682.7475 78.814375 
Q 685.5475 78.814375 685.5475 76.014375 
L 685.5475 17 
Q 685.5475 14.2 682.7475 14.2 
L 558.606875 14.2 
Q 555.806875 14.2 555.806875 17 
L 555.806875 76.014375 
Q 555.806875 78.814375 558.606875 78.814375 
z
" style="fill: #ffffff; opacity: 0.9; stroke: #333333; stroke-linejoin: miter"/>
    </g>
    <g id="patch_9">
     <path d="M 561.406875 29.991562 
L 589.406875 29.991562 
L 589.406875 20.191562 
L 561.406875 20.191562 
z
" style="fill: #7f7f7f; fill-opacity: 0.35; stroke: #7f7f7f; stroke-width: 2.2; stroke-linejoin: miter"/>
    </g>
    <g id="text_23">
     <!-- Neutral (KM) -->
     <g style="fill: #262626" transform="translate(600.606875 29.991562) scale(0.14 -0.14)">
      <defs>
       <path id="ArialMT-4e" d="M 488 0 
L 488 4581 
L 1109 4581 
L 3516 984 
L 3516 4581 
L 4097 4581 
L 4097 0 
L 3475 0 
L 1069 3600 
L 1069 0 
L 488 0 
z
" transform="scale(0.015625)"/>
       <path id="ArialMT-6c" d="M 409 0 
L 409 4581 
L 972 4581 
L 972 0 
L 409 0 
z
" transform="scale(0.015625)"/>
      </defs>
      <use xlink:href="#ArialMT-4e"/>
      <use xlink:href="#ArialMT-65" transform="translate(72.216797 0)"/>
      <use xlink:href="#ArialMT-75" transform="translate(127.832031 0)"/>
      <use xlink:href="#ArialMT-74" transform="translate(183.447266 0)"/>
      <use xlink:href="#ArialMT-72" transform="translate(211.230469 0)"/>
      <use xlink:href="#ArialMT-61" transform="translate(244.53125 0)"/>
      <use xlink:href="#ArialMT-6c" transform="translate(300.146484 0)"/>
      <use xlink:href="#ArialMT-20" transform="translate(322.363281 0)"/>
      <use xlink:href="#ArialMT-28" transform="translate(350.146484 0)"/>
      <use xlink:href="#ArialMT-4b" transform="translate(383.447266 0)"/>
      <use xlink:href="#ArialMT-4d" transform="translate(450.146484 0)"/>
      <use xlink:href="#ArialMT-29" transform="translate(533.447266 0)"/>
     </g>
    </g>
    <g id="patch_10">
     <path d="M 561.406875 50.129687 
L 589.406875 50.129687 
L 589.406875 40.329687 
L 561.406875 40.329687 
z
" style="fill: #2166ac; fill-opacity: 0.35; stroke: #2166ac; stroke-width: 2.2; stroke-linejoin: miter"/>
    </g>
    <g id="text_24">
     <!-- Right (KM) -->
     <g style="fill: #262626" transform="translate(600.606875 50.129687) scale(0.14 -0.14)">
      <defs>
       <path id="ArialMT-52" d="M 503 0 
L 503 4581 
L 2534 4581 
Q 3147 4581 3465 4457 
Q 3784 4334 3975 4021 
Q 4166 3709 4166 3331 
Q 4166 2844 3850 2509 
Q 3534 2175 2875 2084 
Q 3116 1969 3241 1856 
Q 3506 1613 3744 1247 
L 4541 0 
L 3778 0 
L 3172 953 
Q 2906 1366 2734 1584 
Q 2563 1803 2427 1890 
Q 2291 1978 2150 2013 
Q 2047 2034 1813 2034 
L 1109 2034 
L 1109 0 
L 503 0 
z
M 1109 2559 
L 2413 2559 
Q 2828 2559 3062 2645 
Q 3297 2731 3419 2920 
Q 3541 3109 3541 3331 
Q 3541 3656 3305 3865 
Q 3069 4075 2559 4075 
L 1109 4075 
L 1109 2559 
z
" transform="scale(0.015625)"/>
       <path id="ArialMT-67" d="M 319 -275 
L 866 -356 
Q 900 -609 1056 -725 
Q 1266 -881 1628 -881 
Q 2019 -881 2231 -725 
Q 2444 -569 2519 -288 
Q 2563 -116 2559 434 
Q 2191 0 1641 0 
Q 956 0 581 494 
Q 206 988 206 1678 
Q 206 2153 378 2554 
Q 550 2956 876 3175 
Q 1203 3394 1644 3394 
Q 2231 3394 2613 2919 
L 2613 3319 
L 3131 3319 
L 3131 450 
Q 3131 -325 2973 -648 
Q 2816 -972 2473 -1159 
Q 2131 -1347 1631 -1347 
Q 1038 -1347 672 -1080 
Q 306 -813 319 -275 
z
M 784 1719 
Q 784 1066 1043 766 
Q 1303 466 1694 466 
Q 2081 466 2343 764 
Q 2606 1063 2606 1700 
Q 2606 2309 2336 2618 
Q 2066 2928 1684 2928 
Q 1309 2928 1046 2623 
Q 784 2319 784 1719 
z
" transform="scale(0.015625)"/>
       <path id="ArialMT-68" d="M 422 0 
L 422 4581 
L 984 4581 
L 984 2938 
Q 1378 3394 1978 3394 
Q 2347 3394 2619 3248 
Q 2891 3103 3008 2847 
Q 3125 2591 3125 2103 
L 3125 0 
L 2563 0 
L 2563 2103 
Q 2563 2525 2380 2717 
Q 2197 2909 1863 2909 
Q 1613 2909 1392 2779 
Q 1172 2650 1078 2428 
Q 984 2206 984 1816 
L 984 0 
L 422 0 
z
" transform="scale(0.015625)"/>
      </defs>
      <use xlink:href="#ArialMT-52"/>
      <use xlink:href="#ArialMT-69" transform="translate(72.216797 0)"/>
      <use xlink:href="#ArialMT-67" transform="translate(94.433594 0)"/>
      <use xlink:href="#ArialMT-68" transform="translate(150.048828 0)"/>
      <use xlink:href="#ArialMT-74" transform="translate(205.664062 0)"/>
      <use xlink:href="#ArialMT-20" transform="translate(233.447266 0)"/>
      <use xlink:href="#ArialMT-28" transform="translate(261.230469 0)"/>
      <use xlink:href="#ArialMT-4b" transform="translate(294.53125 0)"/>
      <use xlink:href="#ArialMT-4d" transform="translate(361.230469 0)"/>
      <use xlink:href="#ArialMT-29" transform="translate(444.53125 0)"/>
     </g>
    </g>
    <g id="patch_11">
     <path d="M 561.406875 70.267812 
L 589.406875 70.267812 
L 589.406875 60.467812 
L 561.406875 60.467812 
z
" style="fill: #d6604d; fill-opacity: 0.35; stroke: #d6604d; stroke-width: 2.2; stroke-linejoin: miter"/>
    </g>
    <g id="text_25">
     <!-- Left (KM) -->
     <g style="fill: #262626" transform="translate(600.606875 70.267812) scale(0.14 -0.14)">
      <defs>
       <path id="ArialMT-66" d="M 556 0 
L 556 2881 
L 59 2881 
L 59 3319 
L 556 3319 
L 556 3672 
Q 556 4006 616 4169 
Q 697 4388 901 4523 
Q 1106 4659 1475 4659 
Q 1713 4659 2000 4603 
L 1916 4113 
Q 1741 4144 1584 4144 
Q 1328 4144 1222 4034 
Q 1116 3925 1116 3625 
L 1116 3319 
L 1763 3319 
L 1763 2881 
L 1116 2881 
L 1116 0 
L 556 0 
z
" transform="scale(0.015625)"/>
      </defs>
      <use xlink:href="#ArialMT-4c"/>
      <use xlink:href="#ArialMT-65" transform="translate(55.615234 0)"/>
      <use xlink:href="#ArialMT-66" transform="translate(111.230469 0)"/>
      <use xlink:href="#ArialMT-74" transform="translate(139.013672 0)"/>
      <use xlink:href="#ArialMT-20" transform="translate(166.796875 0)"/>
      <use xlink:href="#ArialMT-28" transform="translate(194.580078 0)"/>
      <use xlink:href="#ArialMT-4b" transform="translate(227.880859 0)"/>
      <use xlink:href="#ArialMT-4d" transform="translate(294.580078 0)"/>
      <use xlink:href="#ArialMT-29" transform="translate(377.880859 0)"/>
     </g>
    </g>
   </g>
  </g>
 </g>
 <defs>
  <clipPath id="p5ceea919fd">
   <rect x="64.3325" y="7.2" width="628.215" height="346.2"/>
  </clipPath>
 </defs>
</svg>
