<?xml version="1.0" encoding="utf-8" standalone="no"?>
<!DOCTYPE svg PUBLIC "-//W3C//DTD SVG 1.1//EN"
  "http://www.w3.org/Graphics/SVG/1.1/DTD/svg11.dtd">
<svg xmlns:xlink="http://www.w3.org/1999/xlink" width="704.112813pt" height="415.534412pt" viewBox="0 0 704.112813 415.534412" xmlns="http://www.w3.org/2000/svg" version="1.1">
 <metadata>
  <rdf:RDF xmlns:dc="http://purl.org/dc/elements/1.1/" xmlns:cc="http://creativecommons.org/ns#" xmlns:rdf="http://www.w3.org/1999/02/22-rdf-syntax-ns#">
   <cc:Work>
    <dc:type rdf:resource="http://purl.org/dc/dcmitype/StillImage"/>
    <dc:date>2026-06-29T21:13:19.772591</dc:date>
    <dc:format>image/svg+xml</dc:format>
    <dc:creator>
     <cc:Agent>
      <dc:title>Matplotlib v3.10.8, https://matplotlib.org/</dc:title>
     </cc:Agent>
    </dc:creator>
   </cc:Work>
  </rdf:RDF>
 </metadata>
 <defs>
  <style type="text/css">*{stroke-linejoin: round; stroke-linecap: butt}</style>
 </defs>
 <g id="figure_1">
  <g id="patch_1">
   <path d="M 0 415.534412 
L 704.112813 415.534412 
L 704.112813 0 
L 0 0 
z
" style="fill: #ffffff"/>
  </g>
  <g id="axes_1">
   <g id="patch_2">
    <path d="M 72.117813 357.639099 
L 696.912812 357.639099 
L 696.912812 10.943391 
L 72.117813 10.943391 
z
" style="fill: #ffffff"/>
   </g>
   <g id="matplotlib.axis_1">
    <g id="xtick_1">
     <g id="line2d_1">
      <path d="M 196.660938 357.639099 
L 196.660938 10.943391 
" clip-path="url(#p57b5f1b011)" style="fill: none; stroke: #cccccc; stroke-width: 0.8; stroke-linecap: round"/>
     </g>
     <g id="text_1">
      <!-- 1.5 -->
      <g style="fill: #262626" transform="translate(186.930938 384.660037) scale(0.14 -0.14)">
       <defs>
        <path id="ArialMT-31" d="M 2384 0 
L 1822 0 
L 1822 3584 
Q 1619 3391 1289 3197 
Q 959 3003 697 2906 
L 697 3450 
Q 1169 3672 1522 3987 
Q 1875 4303 2022 4600 
L 2384 4600 
L 2384 0 
z
" transform="scale(0.015625)"/>
        <path id="ArialMT-2e" d="M 581 0 
L 581 641 
L 1222 641 
L 1222 0 
L 581 0 
z
" transform="scale(0.015625)"/>
        <path id="ArialMT-35" d="M 266 1200 
L 856 1250 
Q 922 819 1161 601 
Q 1400 384 1738 384 
Q 2144 384 2425 690 
Q 2706 997 2706 1503 
Q 2706 1984 2436 2262 
Q 2166 2541 1728 2541 
Q 1456 2541 1237 2417 
Q 1019 2294 894 2097 
L 366 2166 
L 809 4519 
L 3088 4519 
L 3088 3981 
L 1259 3981 
L 1013 2750 
Q 1425 3038 1878 3038 
Q 2478 3038 2890 2622 
Q 3303 2206 3303 1553 
Q 3303 931 2941 478 
Q 2500 -78 1738 -78 
Q 1113 -78 717 272 
Q 322 622 266 1200 
z
" transform="scale(0.015625)"/>
       </defs>
       <use xlink:href="#ArialMT-31"/>
       <use xlink:href="#ArialMT-2e" transform="translate(55.615234 0)"/>
       <use xlink:href="#ArialMT-35" transform="translate(83.398438 0)"/>
      </g>
     </g>
    </g>
    <g id="xtick_2">
     <g id="line2d_2">
      <path d="M 335.401152 357.639099 
L 335.401152 10.943391 
" clip-path="url(#p57b5f1b011)" style="fill: none; stroke: #cccccc; stroke-width: 0.8; stroke-linecap: round"/>
     </g>
     <g id="text_2">
      <!-- 2.0 -->
      <g style="fill: #262626" transform="translate(325.671152 384.660037) scale(0.14 -0.14)">
       <defs>
        <path id="ArialMT-32" d="M 3222 541 
L 3222 0 
L 194 0 
Q 188 203 259 391 
Q 375 700 629 1000 
Q 884 1300 1366 1694 
Q 2113 2306 2375 2664 
Q 2638 3022 2638 3341 
Q 2638 3675 2398 3904 
Q 2159 4134 1775 4134 
Q 1369 4134 1125 3890 
Q 881 3647 878 3216 
L 300 3275 
Q 359 3922 746 4261 
Q 1134 4600 1788 4600 
Q 2447 4600 2831 4234 
Q 3216 3869 3216 3328 
Q 3216 3053 3103 2787 
Q 2991 2522 2730 2228 
Q 2469 1934 1863 1422 
Q 1356 997 1212 845 
Q 1069 694 975 541 
L 3222 541 
z
" transform="scale(0.015625)"/>
        <path id="ArialMT-30" d="M 266 2259 
Q 266 3072 433 3567 
Q 600 4063 929 4331 
Q 1259 4600 1759 4600 
Q 2128 4600 2406 4451 
Q 2684 4303 2865 4023 
Q 3047 3744 3150 3342 
Q 3253 2941 3253 2259 
Q 3253 1453 3087 958 
Q 2922 463 2592 192 
Q 2263 -78 1759 -78 
Q 1097 -78 719 397 
Q 266 969 266 2259 
z
M 844 2259 
Q 844 1131 1108 757 
Q 1372 384 1759 384 
Q 2147 384 2411 759 
Q 2675 1134 2675 2259 
Q 2675 3391 2411 3762 
Q 2147 4134 1753 4134 
Q 1366 4134 1134 3806 
Q 844 3388 844 2259 
z
" transform="scale(0.015625)"/>
       </defs>
       <use xlink:href="#ArialMT-32"/>
       <use xlink:href="#ArialMT-2e" transform="translate(55.615234 0)"/>
       <use xlink:href="#ArialMT-30" transform="translate(83.398438 0)"/>
      </g>
     </g>
    </g>
    <g id="xtick_3">
     <g id="line2d_3">
      <path d="M 474.141365 357.639099 
L 474.141365 10.943391 
" clip-path="url(#p57b5f1b011)" style="fill: none; stroke: #cccccc; stroke-width: 0.8; stroke-linecap: round"/>
     </g>
     <g id="text_3">
      <!-- 2.5 -->
      <g style="fill: #262626" transform="translate(464.411365 384.660037) scale(0.14 -0.14)">
       <use xlink:href="#ArialMT-32"/>
       <use xlink:href="#ArialMT-2e" transform="translate(55.615234 0)"/>
       <use xlink:href="#ArialMT-35" transform="translate(83.398438 0)"/>
      </g>
     </g>
    </g>
    <g id="xtick_4">
     <g id="line2d_4">
      <path d="M 612.881579 357.639099 
L 612.881579 10.943391 
" clip-path="url(#p57b5f1b011)" style="fill: none; stroke: #cccccc; stroke-width: 0.8; stroke-linecap: round"/>
     </g>
     <g id="text_4">
      <!-- 3.0 -->
      <g style="fill: #262626" transform="translate(603.151579 384.660037) scale(0.14 -0.14)">
       <defs>
        <path id="ArialMT-33" d="M 269 1209 
L 831 1284 
Q 928 806 1161 595 
Q 1394 384 1728 384 
Q 2125 384 2398 659 
Q 2672 934 2672 1341 
Q 2672 1728 2419 1979 
Q 2166 2231 1775 2231 
Q 1616 2231 1378 2169 
L 1441 2663 
Q 1497 2656 1531 2656 
Q 1891 2656 2178 2843 
Q 2466 3031 2466 3422 
Q 2466 3731 2256 3934 
Q 2047 4138 1716 4138 
Q 1388 4138 1169 3931 
Q 950 3725 888 3313 
L 325 3413 
Q 428 3978 793 4289 
Q 1159 4600 1703 4600 
Q 2078 4600 2393 4439 
Q 2709 4278 2876 4000 
Q 3044 3722 3044 3409 
Q 3044 3113 2884 2869 
Q 2725 2625 2413 2481 
Q 2819 2388 3044 2092 
Q 3269 1797 3269 1353 
Q 3269 753 2831 336 
Q 2394 -81 1725 -81 
Q 1122 -81 723 278 
Q 325 638 269 1209 
z
" transform="scale(0.015625)"/>
       </defs>
       <use xlink:href="#ArialMT-33"/>
       <use xlink:href="#ArialMT-2e" transform="translate(55.615234 0)"/>
       <use xlink:href="#ArialMT-30" transform="translate(83.398438 0)"/>
      </g>
     </g>
    </g>
    <g id="text_5">
     <!-- Truncated PL α (KM-corrected) -->
     <g style="fill: #262626" transform="translate(260.956563 404.545974) scale(0.18 -0.18)">
      <defs>
       <path id="ArialMT-54" d="M 1659 0 
L 1659 4041 
L 150 4041 
L 150 4581 
L 3781 4581 
L 3781 4041 
L 2266 4041 
L 2266 0 
L 1659 0 
z
" transform="scale(0.015625)"/>
       <path id="ArialMT-72" d="M 416 0 
L 416 3319 
L 922 3319 
L 922 2816 
Q 1116 3169 1280 3281 
Q 1444 3394 1641 3394 
Q 1925 3394 2219 3213 
L 2025 2691 
Q 1819 2813 1613 2813 
Q 1428 2813 1281 2702 
Q 1134 2591 1072 2394 
Q 978 2094 978 1738 
L 978 0 
L 416 0 
z
" transform="scale(0.015625)"/>
       <path id="ArialMT-75" d="M 2597 0 
L 2597 488 
Q 2209 -75 1544 -75 
Q 1250 -75 995 37 
Q 741 150 617 320 
Q 494 491 444 738 
Q 409 903 409 1263 
L 409 3319 
L 972 3319 
L 972 1478 
Q 972 1038 1006 884 
Q 1059 663 1231 536 
Q 1403 409 1656 409 
Q 1909 409 2131 539 
Q 2353 669 2445 892 
Q 2538 1116 2538 1541 
L 2538 3319 
L 3100 3319 
L 3100 0 
L 2597 0 
z
" transform="scale(0.015625)"/>
       <path id="ArialMT-6e" d="M 422 0 
L 422 3319 
L 928 3319 
L 928 2847 
Q 1294 3394 1984 3394 
Q 2284 3394 2536 3286 
Q 2788 3178 2913 3003 
Q 3038 2828 3088 2588 
Q 3119 2431 3119 2041 
L 3119 0 
L 2556 0 
L 2556 2019 
Q 2556 2363 2490 2533 
Q 2425 2703 2258 2804 
Q 2091 2906 1866 2906 
Q 1506 2906 1245 2678 
Q 984 2450 984 1813 
L 984 0 
L 422 0 
z
" transform="scale(0.015625)"/>
       <path id="ArialMT-63" d="M 2588 1216 
L 3141 1144 
Q 3050 572 2676 248 
Q 2303 -75 1759 -75 
Q 1078 -75 664 370 
Q 250 816 250 1647 
Q 250 2184 428 2587 
Q 606 2991 970 3192 
Q 1334 3394 1763 3394 
Q 2303 3394 2647 3120 
Q 2991 2847 3088 2344 
L 2541 2259 
Q 2463 2594 2264 2762 
Q 2066 2931 1784 2931 
Q 1359 2931 1093 2626 
Q 828 2322 828 1663 
Q 828 994 1084 691 
Q 1341 388 1753 388 
Q 2084 388 2306 591 
Q 2528 794 2588 1216 
z
" transform="scale(0.015625)"/>
       <path id="ArialMT-61" d="M 2588 409 
Q 2275 144 1986 34 
Q 1697 -75 1366 -75 
Q 819 -75 525 192 
Q 231 459 231 875 
Q 231 1119 342 1320 
Q 453 1522 633 1644 
Q 813 1766 1038 1828 
Q 1203 1872 1538 1913 
Q 2219 1994 2541 2106 
Q 2544 2222 2544 2253 
Q 2544 2597 2384 2738 
Q 2169 2928 1744 2928 
Q 1347 2928 1158 2789 
Q 969 2650 878 2297 
L 328 2372 
Q 403 2725 575 2942 
Q 747 3159 1072 3276 
Q 1397 3394 1825 3394 
Q 2250 3394 2515 3294 
Q 2781 3194 2906 3042 
Q 3031 2891 3081 2659 
Q 3109 2516 3109 2141 
L 3109 1391 
Q 3109 606 3145 398 
Q 3181 191 3288 0 
L 2700 0 
Q 2613 175 2588 409 
z
M 2541 1666 
Q 2234 1541 1622 1453 
Q 1275 1403 1131 1340 
Q 988 1278 909 1158 
Q 831 1038 831 891 
Q 831 666 1001 516 
Q 1172 366 1500 366 
Q 1825 366 2078 508 
Q 2331 650 2450 897 
Q 2541 1088 2541 1459 
L 2541 1666 
z
" transform="scale(0.015625)"/>
       <path id="ArialMT-74" d="M 1650 503 
L 1731 6 
Q 1494 -44 1306 -44 
Q 1000 -44 831 53 
Q 663 150 594 308 
Q 525 466 525 972 
L 525 2881 
L 113 2881 
L 113 3319 
L 525 3319 
L 525 4141 
L 1084 4478 
L 1084 3319 
L 1650 3319 
L 1650 2881 
L 1084 2881 
L 1084 941 
Q 1084 700 1114 631 
Q 1144 563 1211 522 
Q 1278 481 1403 481 
Q 1497 481 1650 503 
z
" transform="scale(0.015625)"/>
       <path id="ArialMT-65" d="M 2694 1069 
L 3275 997 
Q 3138 488 2766 206 
Q 2394 -75 1816 -75 
Q 1088 -75 661 373 
Q 234 822 234 1631 
Q 234 2469 665 2931 
Q 1097 3394 1784 3394 
Q 2450 3394 2872 2941 
Q 3294 2488 3294 1666 
Q 3294 1616 3291 1516 
L 816 1516 
Q 847 969 1125 678 
Q 1403 388 1819 388 
Q 2128 388 2347 550 
Q 2566 713 2694 1069 
z
M 847 1978 
L 2700 1978 
Q 2663 2397 2488 2606 
Q 2219 2931 1791 2931 
Q 1403 2931 1139 2672 
Q 875 2413 847 1978 
z
" transform="scale(0.015625)"/>
       <path id="ArialMT-64" d="M 2575 0 
L 2575 419 
Q 2259 -75 1647 -75 
Q 1250 -75 917 144 
Q 584 363 401 755 
Q 219 1147 219 1656 
Q 219 2153 384 2558 
Q 550 2963 881 3178 
Q 1213 3394 1622 3394 
Q 1922 3394 2156 3267 
Q 2391 3141 2538 2938 
L 2538 4581 
L 3097 4581 
L 3097 0 
L 2575 0 
z
M 797 1656 
Q 797 1019 1065 703 
Q 1334 388 1700 388 
Q 2069 388 2326 689 
Q 2584 991 2584 1609 
Q 2584 2291 2321 2609 
Q 2059 2928 1675 2928 
Q 1300 2928 1048 2622 
Q 797 2316 797 1656 
z
" transform="scale(0.015625)"/>
       <path id="ArialMT-20" transform="scale(0.015625)"/>
       <path id="ArialMT-50" d="M 494 0 
L 494 4581 
L 2222 4581 
Q 2678 4581 2919 4538 
Q 3256 4481 3484 4323 
Q 3713 4166 3852 3881 
Q 3991 3597 3991 3256 
Q 3991 2672 3619 2267 
Q 3247 1863 2275 1863 
L 1100 1863 
L 1100 0 
L 494 0 
z
M 1100 2403 
L 2284 2403 
Q 2872 2403 3119 2622 
Q 3366 2841 3366 3238 
Q 3366 3525 3220 3729 
Q 3075 3934 2838 4000 
Q 2684 4041 2272 4041 
L 1100 4041 
L 1100 2403 
z
" transform="scale(0.015625)"/>
       <path id="ArialMT-4c" d="M 469 0 
L 469 4581 
L 1075 4581 
L 1075 541 
L 3331 541 
L 3331 0 
L 469 0 
z
" transform="scale(0.015625)"/>
       <path id="ArialMT-3b1" d="M 2884 3319 
L 3459 3319 
Q 3241 2631 3056 1659 
Q 3275 453 3459 0 
L 2900 0 
Q 2766 313 2697 606 
Q 2438 -75 1613 -75 
Q 988 -75 606 394 
Q 225 863 225 1666 
Q 225 2491 608 2942 
Q 991 3394 1622 3394 
Q 2013 3394 2259 3236 
Q 2506 3078 2719 2756 
Q 2741 2866 2884 3319 
z
M 1716 2928 
Q 1313 2928 1078 2603 
Q 844 2278 844 1666 
Q 844 1069 1066 728 
Q 1288 388 1684 388 
Q 2072 388 2331 723 
Q 2591 1059 2591 1691 
Q 2591 2303 2348 2615 
Q 2106 2928 1716 2928 
z
" transform="scale(0.015625)"/>
       <path id="ArialMT-28" d="M 1497 -1347 
Q 1031 -759 709 28 
Q 388 816 388 1659 
Q 388 2403 628 3084 
Q 909 3875 1497 4659 
L 1900 4659 
Q 1522 4009 1400 3731 
Q 1209 3300 1100 2831 
Q 966 2247 966 1656 
Q 966 153 1900 -1347 
L 1497 -1347 
z
" transform="scale(0.015625)"/>
       <path id="ArialMT-4b" d="M 469 0 
L 469 4581 
L 1075 4581 
L 1075 2309 
L 3350 4581 
L 4172 4581 
L 2250 2725 
L 4256 0 
L 3456 0 
L 1825 2319 
L 1075 1588 
L 1075 0 
L 469 0 
z
" transform="scale(0.015625)"/>
       <path id="ArialMT-4d" d="M 475 0 
L 475 4581 
L 1388 4581 
L 2472 1338 
Q 2622 884 2691 659 
Q 2769 909 2934 1394 
L 4031 4581 
L 4847 4581 
L 4847 0 
L 4263 0 
L 4263 3834 
L 2931 0 
L 2384 0 
L 1059 3900 
L 1059 0 
L 475 0 
z
" transform="scale(0.015625)"/>
       <path id="ArialMT-2d" d="M 203 1375 
L 203 1941 
L 1931 1941 
L 1931 1375 
L 203 1375 
z
" transform="scale(0.015625)"/>
       <path id="ArialMT-6f" d="M 213 1659 
Q 213 2581 725 3025 
Q 1153 3394 1769 3394 
Q 2453 3394 2887 2945 
Q 3322 2497 3322 1706 
Q 3322 1066 3130 698 
Q 2938 331 2570 128 
Q 2203 -75 1769 -75 
Q 1072 -75 642 372 
Q 213 819 213 1659 
z
M 791 1659 
Q 791 1022 1069 705 
Q 1347 388 1769 388 
Q 2188 388 2466 706 
Q 2744 1025 2744 1678 
Q 2744 2294 2464 2611 
Q 2184 2928 1769 2928 
Q 1347 2928 1069 2612 
Q 791 2297 791 1659 
z
" transform="scale(0.015625)"/>
       <path id="ArialMT-29" d="M 791 -1347 
L 388 -1347 
Q 1322 153 1322 1656 
Q 1322 2244 1188 2822 
Q 1081 3291 891 3722 
Q 769 4003 388 4659 
L 791 4659 
Q 1378 3875 1659 3084 
Q 1900 2403 1900 1659 
Q 1900 816 1576 28 
Q 1253 -759 791 -1347 
z
" transform="scale(0.015625)"/>
      </defs>
      <use xlink:href="#ArialMT-54"/>
      <use xlink:href="#ArialMT-72" transform="translate(57.333984 0)"/>
      <use xlink:href="#ArialMT-75" transform="translate(90.634766 0)"/>
      <use xlink:href="#ArialMT-6e" transform="translate(146.25 0)"/>
      <use xlink:href="#ArialMT-63" transform="translate(201.865234 0)"/>
      <use xlink:href="#ArialMT-61" transform="translate(251.865234 0)"/>
      <use xlink:href="#ArialMT-74" transform="translate(307.480469 0)"/>
      <use xlink:href="#ArialMT-65" transform="translate(335.263672 0)"/>
      <use xlink:href="#ArialMT-64" transform="translate(390.878906 0)"/>
      <use xlink:href="#ArialMT-20" transform="translate(446.494141 0)"/>
      <use xlink:href="#ArialMT-50" transform="translate(474.277344 0)"/>
      <use xlink:href="#ArialMT-4c" transform="translate(540.976562 0)"/>
      <use xlink:href="#ArialMT-20" transform="translate(592.841797 0)"/>
      <use xlink:href="#ArialMT-3b1" transform="translate(620.625 0)"/>
      <use xlink:href="#ArialMT-20" transform="translate(678.4375 0)"/>
      <use xlink:href="#ArialMT-28" transform="translate(706.220703 0)"/>
      <use xlink:href="#ArialMT-4b" transform="translate(739.521484 0)"/>
      <use xlink:href="#ArialMT-4d" transform="translate(806.220703 0)"/>
      <use xlink:href="#ArialMT-2d" transform="translate(889.521484 0)"/>
      <use xlink:href="#ArialMT-63" transform="translate(922.822266 0)"/>
      <use xlink:href="#ArialMT-6f" transform="translate(972.822266 0)"/>
      <use xlink:href="#ArialMT-72" transform="translate(1028.4375 0)"/>
      <use xlink:href="#ArialMT-72" transform="translate(1061.738281 0)"/>
      <use xlink:href="#ArialMT-65" transform="translate(1095.039062 0)"/>
      <use xlink:href="#ArialMT-63" transform="translate(1150.654297 0)"/>
      <use xlink:href="#ArialMT-74" transform="translate(1200.654297 0)"/>
      <use xlink:href="#ArialMT-65" transform="translate(1228.4375 0)"/>
      <use xlink:href="#ArialMT-64" transform="translate(1284.052734 0)"/>
      <use xlink:href="#ArialMT-29" transform="translate(1339.667969 0)"/>
     </g>
    </g>
   </g>
   <g id="matplotlib.axis_2">
    <g id="ytick_1">
     <g id="line2d_5">
      <path d="M 72.117813 357.639099 
L 696.912812 357.639099 
" clip-path="url(#p57b5f1b011)" style="fill: none; stroke: #cccccc; stroke-width: 0.8; stroke-linecap: round"/>
     </g>
     <g id="text_6">
      <!-- 0.00 -->
      <g style="fill: #262626" transform="translate(27.8725 362.649568) scale(0.14 -0.14)">
       <use xlink:href="#ArialMT-30"/>
       <use xlink:href="#ArialMT-2e" transform="translate(55.615234 0)"/>
       <use xlink:href="#ArialMT-30" transform="translate(83.398438 0)"/>
       <use xlink:href="#ArialMT-30" transform="translate(139.013672 0)"/>
      </g>
     </g>
    </g>
    <g id="ytick_2">
     <g id="line2d_6">
      <path d="M 72.117813 314.46052 
L 696.912812 314.46052 
" clip-path="url(#p57b5f1b011)" style="fill: none; stroke: #cccccc; stroke-width: 0.8; stroke-linecap: round"/>
     </g>
     <g id="text_7">
      <!-- 0.25 -->
      <g style="fill: #262626" transform="translate(27.8725 319.470989) scale(0.14 -0.14)">
       <use xlink:href="#ArialMT-30"/>
       <use xlink:href="#ArialMT-2e" transform="translate(55.615234 0)"/>
       <use xlink:href="#ArialMT-32" transform="translate(83.398438 0)"/>
       <use xlink:href="#ArialMT-35" transform="translate(139.013672 0)"/>
      </g>
     </g>
    </g>
    <g id="ytick_3">
     <g id="line2d_7">
      <path d="M 72.117813 271.281941 
L 696.912812 271.281941 
" clip-path="url(#p57b5f1b011)" style="fill: none; stroke: #cccccc; stroke-width: 0.8; stroke-linecap: round"/>
     </g>
     <g id="text_8">
      <!-- 0.50 -->
      <g style="fill: #262626" transform="translate(27.8725 276.29241) scale(0.14 -0.14)">
       <use xlink:href="#ArialMT-30"/>
       <use xlink:href="#ArialMT-2e" transform="translate(55.615234 0)"/>
       <use xlink:href="#ArialMT-35" transform="translate(83.398438 0)"/>
       <use xlink:href="#ArialMT-30" transform="translate(139.013672 0)"/>
      </g>
     </g>
    </g>
    <g id="ytick_4">
     <g id="line2d_8">
      <path d="M 72.117813 228.103363 
L 696.912812 228.103363 
" clip-path="url(#p57b5f1b011)" style="fill: none; stroke: #cccccc; stroke-width: 0.8; stroke-linecap: round"/>
     </g>
     <g id="text_9">
      <!-- 0.75 -->
      <g style="fill: #262626" transform="translate(27.8725 233.113831) scale(0.14 -0.14)">
       <defs>
        <path id="ArialMT-37" d="M 303 3981 
L 303 4522 
L 3269 4522 
L 3269 4084 
Q 2831 3619 2401 2847 
Q 1972 2075 1738 1259 
Q 1569 684 1522 0 
L 944 0 
Q 953 541 1156 1306 
Q 1359 2072 1739 2783 
Q 2119 3494 2547 3981 
L 303 3981 
z
" transform="scale(0.015625)"/>
       </defs>
       <use xlink:href="#ArialMT-30"/>
       <use xlink:href="#ArialMT-2e" transform="translate(55.615234 0)"/>
       <use xlink:href="#ArialMT-37" transform="translate(83.398438 0)"/>
       <use xlink:href="#ArialMT-35" transform="translate(139.013672 0)"/>
      </g>
     </g>
    </g>
    <g id="ytick_5">
     <g id="line2d_9">
      <path d="M 72.117813 184.924784 
L 696.912812 184.924784 
" clip-path="url(#p57b5f1b011)" style="fill: none; stroke: #cccccc; stroke-width: 0.8; stroke-linecap: round"/>
     </g>
     <g id="text_10">
      <!-- 1.00 -->
      <g style="fill: #262626" transform="translate(27.8725 189.935253) scale(0.14 -0.14)">
       <use xlink:href="#ArialMT-31"/>
       <use xlink:href="#ArialMT-2e" transform="translate(55.615234 0)"/>
       <use xlink:href="#ArialMT-30" transform="translate(83.398438 0)"/>
       <use xlink:href="#ArialMT-30" transform="translate(139.013672 0)"/>
      </g>
     </g>
    </g>
    <g id="ytick_6">
     <g id="line2d_10">
      <path d="M 72.117813 141.746205 
L 696.912812 141.746205 
" clip-path="url(#p57b5f1b011)" style="fill: none; stroke: #cccccc; stroke-width: 0.8; stroke-linecap: round"/>
     </g>
     <g id="text_11">
      <!-- 1.25 -->
      <g style="fill: #262626" transform="translate(27.8725 146.756674) scale(0.14 -0.14)">
       <use xlink:href="#ArialMT-31"/>
       <use xlink:href="#ArialMT-2e" transform="translate(55.615234 0)"/>
       <use xlink:href="#ArialMT-32" transform="translate(83.398438 0)"/>
       <use xlink:href="#ArialMT-35" transform="translate(139.013672 0)"/>
      </g>
     </g>
    </g>
    <g id="ytick_7">
     <g id="line2d_11">
      <path d="M 72.117813 98.567626 
L 696.912812 98.567626 
" clip-path="url(#p57b5f1b011)" style="fill: none; stroke: #cccccc; stroke-width: 0.8; stroke-linecap: round"/>
     </g>
     <g id="text_12">
      <!-- 1.50 -->
      <g style="fill: #262626" transform="translate(27.8725 103.578095) scale(0.14 -0.14)">
       <use xlink:href="#ArialMT-31"/>
       <use xlink:href="#ArialMT-2e" transform="translate(55.615234 0)"/>
       <use xlink:href="#ArialMT-35" transform="translate(83.398438 0)"/>
       <use xlink:href="#ArialMT-30" transform="translate(139.013672 0)"/>
      </g>
     </g>
    </g>
    <g id="ytick_8">
     <g id="line2d_12">
      <path d="M 72.117813 55.389048 
L 696.912812 55.389048 
" clip-path="url(#p57b5f1b011)" style="fill: none; stroke: #cccccc; stroke-width: 0.8; stroke-linecap: round"/>
     </g>
     <g id="text_13">
      <!-- 1.75 -->
      <g style="fill: #262626" transform="translate(27.8725 60.399516) scale(0.14 -0.14)">
       <use xlink:href="#ArialMT-31"/>
       <use xlink:href="#ArialMT-2e" transform="translate(55.615234 0)"/>
       <use xlink:href="#ArialMT-37" transform="translate(83.398438 0)"/>
       <use xlink:href="#ArialMT-35" transform="translate(139.013672 0)"/>
      </g>
     </g>
    </g>
    <g id="ytick_9">
     <g id="line2d_13">
      <path d="M 72.117813 12.210469 
L 696.912812 12.210469 
" clip-path="url(#p57b5f1b011)" style="fill: none; stroke: #cccccc; stroke-width: 0.8; stroke-linecap: round"/>
     </g>
     <g id="text_14">
      <!-- 2.00 -->
      <g style="fill: #262626" transform="translate(27.8725 17.220937) scale(0.14 -0.14)">
       <use xlink:href="#ArialMT-32"/>
       <use xlink:href="#ArialMT-2e" transform="translate(55.615234 0)"/>
       <use xlink:href="#ArialMT-30" transform="translate(83.398438 0)"/>
       <use xlink:href="#ArialMT-30" transform="translate(139.013672 0)"/>
      </g>
     </g>
    </g>
    <g id="text_15">
     <!-- Density -->
     <g style="fill: #262626" transform="translate(20.084063 214.30062) rotate(-90) scale(0.18 -0.18)">
      <defs>
       <path id="ArialMT-44" d="M 494 0 
L 494 4581 
L 2072 4581 
Q 2606 4581 2888 4516 
Q 3281 4425 3559 4188 
Q 3922 3881 4101 3404 
Q 4281 2928 4281 2316 
Q 4281 1794 4159 1391 
Q 4038 988 3847 723 
Q 3656 459 3429 307 
Q 3203 156 2883 78 
Q 2563 0 2147 0 
L 494 0 
z
M 1100 541 
L 2078 541 
Q 2531 541 2789 625 
Q 3047 709 3200 863 
Q 3416 1078 3536 1442 
Q 3656 1806 3656 2325 
Q 3656 3044 3420 3430 
Q 3184 3816 2847 3947 
Q 2603 4041 2063 4041 
L 1100 4041 
L 1100 541 
z
" transform="scale(0.015625)"/>
       <path id="ArialMT-73" d="M 197 991 
L 753 1078 
Q 800 744 1014 566 
Q 1228 388 1613 388 
Q 2000 388 2187 545 
Q 2375 703 2375 916 
Q 2375 1106 2209 1216 
Q 2094 1291 1634 1406 
Q 1016 1563 777 1677 
Q 538 1791 414 1992 
Q 291 2194 291 2438 
Q 291 2659 392 2848 
Q 494 3038 669 3163 
Q 800 3259 1026 3326 
Q 1253 3394 1513 3394 
Q 1903 3394 2198 3281 
Q 2494 3169 2634 2976 
Q 2775 2784 2828 2463 
L 2278 2388 
Q 2241 2644 2061 2787 
Q 1881 2931 1553 2931 
Q 1166 2931 1000 2803 
Q 834 2675 834 2503 
Q 834 2394 903 2306 
Q 972 2216 1119 2156 
Q 1203 2125 1616 2013 
Q 2213 1853 2448 1751 
Q 2684 1650 2818 1456 
Q 2953 1263 2953 975 
Q 2953 694 2789 445 
Q 2625 197 2315 61 
Q 2006 -75 1616 -75 
Q 969 -75 630 194 
Q 291 463 197 991 
z
" transform="scale(0.015625)"/>
       <path id="ArialMT-69" d="M 425 3934 
L 425 4581 
L 988 4581 
L 988 3934 
L 425 3934 
z
M 425 0 
L 425 3319 
L 988 3319 
L 988 0 
L 425 0 
z
" transform="scale(0.015625)"/>
       <path id="ArialMT-79" d="M 397 -1278 
L 334 -750 
Q 519 -800 656 -800 
Q 844 -800 956 -737 
Q 1069 -675 1141 -563 
Q 1194 -478 1313 -144 
Q 1328 -97 1363 -6 
L 103 3319 
L 709 3319 
L 1400 1397 
Q 1534 1031 1641 628 
Q 1738 1016 1872 1384 
L 2581 3319 
L 3144 3319 
L 1881 -56 
Q 1678 -603 1566 -809 
Q 1416 -1088 1222 -1217 
Q 1028 -1347 759 -1347 
Q 597 -1347 397 -1278 
z
" transform="scale(0.015625)"/>
      </defs>
      <use xlink:href="#ArialMT-44"/>
      <use xlink:href="#ArialMT-65" transform="translate(72.216797 0)"/>
      <use xlink:href="#ArialMT-6e" transform="translate(127.832031 0)"/>
      <use xlink:href="#ArialMT-73" transform="translate(183.447266 0)"/>
      <use xlink:href="#ArialMT-69" transform="translate(233.447266 0)"/>
      <use xlink:href="#ArialMT-74" transform="translate(255.664062 0)"/>
      <use xlink:href="#ArialMT-79" transform="translate(283.447266 0)"/>
     </g>
    </g>
   </g>
   <g id="FillBetweenPolyCollection_1">
    <path d="M -73.61704 357.333098 
L -73.61704 357.639099 
L -69.012695 357.639099 
L -64.408349 357.639099 
L -59.804004 357.639099 
L -55.199659 357.639099 
L -50.595314 357.639099 
L -45.990968 357.639099 
L -41.386623 357.639099 
L -36.782278 357.639099 
L -32.177933 357.639099 
L -27.573587 357.639099 
L -22.969242 357.639099 
L -18.364897 357.639099 
L -13.760552 357.639099 
L -9.156206 357.639099 
L -4.551861 357.639099 
L 0.052484 357.639099 
L 4.656829 357.639099 
L 9.261175 357.639099 
L 13.86552 357.639099 
L 18.469865 357.639099 
L 23.07421 357.639099 
L 27.678556 357.639099 
L 32.282901 357.639099 
L 36.887246 357.639099 
L 41.491591 357.639099 
L 46.095937 357.639099 
L 50.700282 357.639099 
L 55.304627 357.639099 
L 59.908972 357.639099 
L 64.513318 357.639099 
L 69.117663 357.639099 
L 73.722008 357.639099 
L 78.326353 357.639099 
L 82.930699 357.639099 
L 87.535044 357.639099 
L 92.139389 357.639099 
L 96.743734 357.639099 
L 101.34808 357.639099 
L 105.952425 357.639099 
L 110.55677 357.639099 
L 115.161115 357.639099 
L 119.765461 357.639099 
L 124.369806 357.639099 
L 128.974151 357.639099 
L 133.578496 357.639099 
L 138.182842 357.639099 
L 142.787187 357.639099 
L 147.391532 357.639099 
L 151.995877 357.639099 
L 156.600223 357.639099 
L 161.204568 357.639099 
L 165.808913 357.639099 
L 170.413258 357.639099 
L 175.017604 357.639099 
L 179.621949 357.639099 
L 184.226294 357.639099 
L 188.830639 357.639099 
L 193.434985 357.639099 
L 198.03933 357.639099 
L 202.643675 357.639099 
L 207.24802 357.639099 
L 211.852366 357.639099 
L 216.456711 357.639099 
L 221.061056 357.639099 
L 225.665401 357.639099 
L 230.269747 357.639099 
L 234.874092 357.639099 
L 239.478437 357.639099 
L 244.082782 357.639099 
L 248.687128 357.639099 
L 253.291473 357.639099 
L 257.895818 357.639099 
L 262.500163 357.639099 
L 267.104509 357.639099 
L 271.708854 357.639099 
L 276.313199 357.639099 
L 280.917544 357.639099 
L 285.52189 357.639099 
L 290.126235 357.639099 
L 294.73058 357.639099 
L 299.334925 357.639099 
L 303.939271 357.639099 
L 308.543616 357.639099 
L 313.147961 357.639099 
L 317.752306 357.639099 
L 322.356652 357.639099 
L 326.960997 357.639099 
L 331.565342 357.639099 
L 336.169687 357.639099 
L 340.774033 357.639099 
L 345.378378 357.639099 
L 349.982723 357.639099 
L 354.587068 357.639099 
L 359.191414 357.639099 
L 363.795759 357.639099 
L 368.400104 357.639099 
L 373.004449 357.639099 
L 377.608795 357.639099 
L 382.21314 357.639099 
L 386.817485 357.639099 
L 391.42183 357.639099 
L 396.026176 357.639099 
L 400.630521 357.639099 
L 405.234866 357.639099 
L 409.839211 357.639099 
L 414.443557 357.639099 
L 419.047902 357.639099 
L 423.652247 357.639099 
L 428.256592 357.639099 
L 432.860938 357.639099 
L 437.465283 357.639099 
L 442.069628 357.639099 
L 446.673973 357.639099 
L 451.278319 357.639099 
L 455.882664 357.639099 
L 460.487009 357.639099 
L 465.091354 357.639099 
L 469.6957 357.639099 
L 474.300045 357.639099 
L 478.90439 357.639099 
L 483.508735 357.639099 
L 488.113081 357.639099 
L 492.717426 357.639099 
L 497.321771 357.639099 
L 501.926116 357.639099 
L 506.530462 357.639099 
L 511.134807 357.639099 
L 515.739152 357.639099 
L 520.343497 357.639099 
L 524.947843 357.639099 
L 529.552188 357.639099 
L 534.156533 357.639099 
L 538.760878 357.639099 
L 543.365224 357.639099 
L 547.969569 357.639099 
L 552.573914 357.639099 
L 557.178259 357.639099 
L 561.782605 357.639099 
L 566.38695 357.639099 
L 570.991295 357.639099 
L 575.59564 357.639099 
L 580.199986 357.639099 
L 584.804331 357.639099 
L 589.408676 357.639099 
L 594.013021 357.639099 
L 598.617367 357.639099 
L 603.221712 357.639099 
L 607.826057 357.639099 
L 612.430402 357.639099 
L 617.034748 357.639099 
L 621.639093 357.639099 
L 626.243438 357.639099 
L 630.847783 357.639099 
L 635.452129 357.639099 
L 640.056474 357.639099 
L 644.660819 357.639099 
L 649.265164 357.639099 
L 653.86951 357.639099 
L 658.473855 357.639099 
L 663.0782 357.639099 
L 667.682545 357.639099 
L 672.286891 357.639099 
L 676.891236 357.639099 
L 681.495581 357.639099 
L 686.099926 357.639099 
L 690.704272 357.639099 
L 695.308617 357.639099 
L 699.912962 357.639099 
L 704.517307 357.639099 
L 709.121653 357.639099 
L 713.725998 357.639099 
L 718.330343 357.639099 
L 722.934688 357.639099 
L 727.539034 357.639099 
L 732.143379 357.639099 
L 736.747724 357.639099 
L 741.352069 357.639099 
L 745.956415 357.639099 
L 750.56076 357.639099 
L 755.165105 357.639099 
L 759.76945 357.639099 
L 764.373796 357.639099 
L 768.978141 357.639099 
L 773.582486 357.639099 
L 778.186831 357.639099 
L 782.791177 357.639099 
L 787.395522 357.639099 
L 791.999867 357.639099 
L 796.604212 357.639099 
L 801.208558 357.639099 
L 805.812903 357.639099 
L 810.417248 357.639099 
L 815.021593 357.639099 
L 819.625939 357.639099 
L 824.230284 357.639099 
L 828.834629 357.639099 
L 833.438974 357.639099 
L 838.04332 357.639099 
L 842.647665 357.639099 
L 842.647665 357.496875 
L 842.647665 357.496875 
L 838.04332 357.460405 
L 833.438974 357.415915 
L 828.834629 357.361998 
L 824.230284 357.297094 
L 819.625939 357.219488 
L 815.021593 357.127322 
L 810.417248 357.01861 
L 805.812903 356.891261 
L 801.208558 356.743114 
L 796.604212 356.571978 
L 791.999867 356.375683 
L 787.395522 356.15214 
L 782.791177 355.899412 
L 778.186831 355.615785 
L 773.582486 355.299858 
L 768.978141 354.95062 
L 764.373796 354.567546 
L 759.76945 354.150676 
L 755.165105 353.700697 
L 750.56076 353.219013 
L 745.956415 352.707801 
L 741.352069 352.170054 
L 736.747724 351.609596 
L 732.143379 351.03108 
L 727.539034 350.439955 
L 722.934688 349.842409 
L 718.330343 349.245284 
L 713.725998 348.655956 
L 709.121653 348.0822 
L 704.517307 347.532024 
L 699.912962 347.013491 
L 695.308617 346.534526 
L 690.704272 346.102714 
L 686.099926 345.725102 
L 681.495581 345.408012 
L 676.891236 345.156859 
L 672.286891 344.976002 
L 667.682545 344.868615 
L 663.0782 344.836596 
L 658.473855 344.880508 
L 653.86951 344.999564 
L 649.265164 345.191651 
L 644.660819 345.453387 
L 640.056474 345.780221 
L 635.452129 346.166561 
L 630.847783 346.605932 
L 626.243438 347.091152 
L 621.639093 347.61452 
L 617.034748 348.168014 
L 612.430402 348.743484 
L 607.826057 349.33284 
L 603.221712 349.928224 
L 598.617367 350.522159 
L 594.013021 351.107682 
L 589.408676 351.678437 
L 584.804331 352.228751 
L 580.199986 352.753673 
L 575.59564 353.248982 
L 570.991295 353.711177 
L 566.38695 354.13743 
L 561.782605 354.525524 
L 557.178259 354.873775 
L 552.573914 355.180935 
L 547.969569 355.446091 
L 543.365224 355.668559 
L 538.760878 355.847774 
L 534.156533 355.983196 
L 529.552188 356.074211 
L 524.947843 356.120051 
L 520.343497 356.119734 
L 515.739152 356.072011 
L 511.134807 355.975341 
L 506.530462 355.827886 
L 501.926116 355.627523 
L 497.321771 355.371886 
L 492.717426 355.058421 
L 488.113081 354.68447 
L 483.508735 354.247359 
L 478.90439 353.744519 
L 474.300045 353.173599 
L 469.6957 352.532596 
L 465.091354 351.819982 
L 460.487009 351.034824 
L 455.882664 350.176892 
L 451.278319 349.246746 
L 446.673973 348.245798 
L 442.069628 347.17634 
L 437.465283 346.041528 
L 432.860938 344.845333 
L 428.256592 343.592433 
L 423.652247 342.28806 
L 419.047902 340.9378 
L 414.443557 339.547345 
L 409.839211 338.122205 
L 405.234866 336.667387 
L 400.630521 335.187054 
L 396.026176 333.684164 
L 391.42183 332.160131 
L 386.817485 330.614483 
L 382.21314 329.044573 
L 377.608795 327.445334 
L 373.004449 325.809093 
L 368.400104 324.125478 
L 363.795759 322.3814 
L 359.191414 320.561143 
L 354.587068 318.646547 
L 349.982723 316.617299 
L 345.378378 314.451316 
L 340.774033 312.125218 
L 336.169687 309.614878 
L 331.565342 306.896034 
L 326.960997 303.944945 
L 322.356652 300.739064 
L 317.752306 297.25772 
L 313.147961 293.482781 
L 308.543616 289.399276 
L 303.939271 284.995961 
L 299.334925 280.265822 
L 294.73058 275.206486 
L 290.126235 269.820549 
L 285.52189 264.115814 
L 280.917544 258.105425 
L 276.313199 251.807923 
L 271.708854 245.247211 
L 267.104509 238.452441 
L 262.500163 231.457841 
L 257.895818 224.302472 
L 253.291473 217.029939 
L 248.687128 209.688056 
L 244.082782 202.328471 
L 239.478437 195.006243 
L 234.874092 187.779386 
L 230.269747 180.708363 
L 225.665401 173.855534 
L 221.061056 167.28455 
L 216.456711 161.059676 
L 211.852366 155.245067 
L 207.24802 149.903962 
L 202.643675 145.097823 
L 198.03933 140.88541 
L 193.434985 137.321814 
L 188.830639 134.457459 
L 184.226294 132.337091 
L 179.621949 130.998791 
L 175.017604 130.473037 
L 170.413258 130.781841 
L 165.808913 131.93801 
L 161.204568 133.944549 
L 156.600223 136.79425 
L 151.995877 140.469477 
L 147.391532 144.942188 
L 142.787187 150.174182 
L 138.182842 156.1176 
L 133.578496 162.715651 
L 128.974151 169.903569 
L 124.369806 177.609761 
L 119.765461 185.757125 
L 115.161115 194.264498 
L 110.55677 203.048184 
L 105.952425 212.023526 
L 101.34808 221.106468 
L 96.743734 230.215062 
L 92.139389 239.270877 
L 87.535044 248.200267 
L 82.930699 256.935479 
L 78.326353 265.41556 
L 73.722008 273.587049 
L 69.117663 281.404464 
L 64.513318 288.83055 
L 59.908972 295.83633 
L 55.304627 302.400951 
L 50.700282 308.511352 
L 46.095937 314.161779 
L 41.491591 319.353178 
L 36.887246 324.092485 
L 32.282901 328.391859 
L 27.678556 332.267866 
L 23.07421 335.740665 
L 18.469865 338.833203 
L 13.86552 341.570442 
L 9.261175 343.978648 
L 4.656829 346.084733 
L 0.052484 347.915686 
L -4.551861 349.498078 
L -9.156206 350.857643 
L -13.760552 352.018957 
L -18.364897 353.00518 
L -22.969242 353.837879 
L -27.573587 354.536915 
L -32.177933 355.120385 
L -36.782278 355.604619 
L -41.386623 356.00421 
L -45.990968 356.332086 
L -50.595314 356.599599 
L -55.199659 356.816631 
L -59.804004 356.991718 
L -64.408349 357.132174 
L -69.012695 357.244218 
L -73.61704 357.333098 
z
" clip-path="url(#p57b5f1b011)" style="fill: #2c7fb8; fill-opacity: 0.35; stroke: #2c7fb8; stroke-width: 2.2"/>
   </g>
   <g id="FillBetweenPolyCollection_2">
    <defs>
     <path id="m2806c11d32" d="M 53.088421 -60.814885 
L 53.088421 -57.895313 
L 54.581238 -57.895313 
L 56.074056 -57.895313 
L 57.566874 -57.895313 
L 59.059692 -57.895313 
L 60.552509 -57.895313 
L 62.045327 -57.895313 
L 63.538145 -57.895313 
L 65.030963 -57.895313 
L 66.52378 -57.895313 
L 68.016598 -57.895313 
L 69.509416 -57.895313 
L 71.002234 -57.895313 
L 72.495051 -57.895313 
L 73.987869 -57.895313 
L 75.480687 -57.895313 
L 76.973505 -57.895313 
L 78.466322 -57.895313 
L 79.95914 -57.895313 
L 81.451958 -57.895313 
L 82.944776 -57.895313 
L 84.437593 -57.895313 
L 85.930411 -57.895313 
L 87.423229 -57.895313 
L 88.916047 -57.895313 
L 90.408865 -57.895313 
L 91.901682 -57.895313 
L 93.3945 -57.895313 
L 94.887318 -57.895313 
L 96.380136 -57.895313 
L 97.872953 -57.895313 
L 99.365771 -57.895313 
L 100.858589 -57.895313 
L 102.351407 -57.895313 
L 103.844224 -57.895313 
L 105.337042 -57.895313 
L 106.82986 -57.895313 
L 108.322678 -57.895313 
L 109.815495 -57.895313 
L 111.308313 -57.895313 
L 112.801131 -57.895313 
L 114.293949 -57.895313 
L 115.786766 -57.895313 
L 117.279584 -57.895313 
L 118.772402 -57.895313 
L 120.26522 -57.895313 
L 121.758037 -57.895313 
L 123.250855 -57.895313 
L 124.743673 -57.895313 
L 126.236491 -57.895313 
L 127.729308 -57.895313 
L 129.222126 -57.895313 
L 130.714944 -57.895313 
L 132.207762 -57.895313 
L 133.70058 -57.895313 
L 135.193397 -57.895313 
L 136.686215 -57.895313 
L 138.179033 -57.895313 
L 139.671851 -57.895313 
L 141.164668 -57.895313 
L 142.657486 -57.895313 
L 144.150304 -57.895313 
L 145.643122 -57.895313 
L 147.135939 -57.895313 
L 148.628757 -57.895313 
L 150.121575 -57.895313 
L 151.614393 -57.895313 
L 153.10721 -57.895313 
L 154.600028 -57.895313 
L 156.092846 -57.895313 
L 157.585664 -57.895313 
L 159.078481 -57.895313 
L 160.571299 -57.895313 
L 162.064117 -57.895313 
L 163.556935 -57.895313 
L 165.049752 -57.895313 
L 166.54257 -57.895313 
L 168.035388 -57.895313 
L 169.528206 -57.895313 
L 171.021023 -57.895313 
L 172.513841 -57.895313 
L 174.006659 -57.895313 
L 175.499477 -57.895313 
L 176.992295 -57.895313 
L 178.485112 -57.895313 
L 179.97793 -57.895313 
L 181.470748 -57.895313 
L 182.963566 -57.895313 
L 184.456383 -57.895313 
L 185.949201 -57.895313 
L 187.442019 -57.895313 
L 188.934837 -57.895313 
L 190.427654 -57.895313 
L 191.920472 -57.895313 
L 193.41329 -57.895313 
L 194.906108 -57.895313 
L 196.398925 -57.895313 
L 197.891743 -57.895313 
L 199.384561 -57.895313 
L 200.877379 -57.895313 
L 202.370196 -57.895313 
L 203.863014 -57.895313 
L 205.355832 -57.895313 
L 206.84865 -57.895313 
L 208.341467 -57.895313 
L 209.834285 -57.895313 
L 211.327103 -57.895313 
L 212.819921 -57.895313 
L 214.312738 -57.895313 
L 215.805556 -57.895313 
L 217.298374 -57.895313 
L 218.791192 -57.895313 
L 220.28401 -57.895313 
L 221.776827 -57.895313 
L 223.269645 -57.895313 
L 224.762463 -57.895313 
L 226.255281 -57.895313 
L 227.748098 -57.895313 
L 229.240916 -57.895313 
L 230.733734 -57.895313 
L 232.226552 -57.895313 
L 233.719369 -57.895313 
L 235.212187 -57.895313 
L 236.705005 -57.895313 
L 238.197823 -57.895313 
L 239.69064 -57.895313 
L 241.183458 -57.895313 
L 242.676276 -57.895313 
L 244.169094 -57.895313 
L 245.661911 -57.895313 
L 247.154729 -57.895313 
L 248.647547 -57.895313 
L 250.140365 -57.895313 
L 251.633182 -57.895313 
L 253.126 -57.895313 
L 254.618818 -57.895313 
L 256.111636 -57.895313 
L 257.604454 -57.895313 
L 259.097271 -57.895313 
L 260.590089 -57.895313 
L 262.082907 -57.895313 
L 263.575725 -57.895313 
L 265.068542 -57.895313 
L 266.56136 -57.895313 
L 268.054178 -57.895313 
L 269.546996 -57.895313 
L 271.039813 -57.895313 
L 272.532631 -57.895313 
L 274.025449 -57.895313 
L 275.518267 -57.895313 
L 277.011084 -57.895313 
L 278.503902 -57.895313 
L 279.99672 -57.895313 
L 281.489538 -57.895313 
L 282.982355 -57.895313 
L 284.475173 -57.895313 
L 285.967991 -57.895313 
L 287.460809 -57.895313 
L 288.953626 -57.895313 
L 290.446444 -57.895313 
L 291.939262 -57.895313 
L 293.43208 -57.895313 
L 294.924897 -57.895313 
L 296.417715 -57.895313 
L 297.910533 -57.895313 
L 299.403351 -57.895313 
L 300.896169 -57.895313 
L 302.388986 -57.895313 
L 303.881804 -57.895313 
L 305.374622 -57.895313 
L 306.86744 -57.895313 
L 308.360257 -57.895313 
L 309.853075 -57.895313 
L 311.345893 -57.895313 
L 312.838711 -57.895313 
L 314.331528 -57.895313 
L 315.824346 -57.895313 
L 317.317164 -57.895313 
L 318.809982 -57.895313 
L 320.302799 -57.895313 
L 321.795617 -57.895313 
L 323.288435 -57.895313 
L 324.781253 -57.895313 
L 326.27407 -57.895313 
L 327.766888 -57.895313 
L 329.259706 -57.895313 
L 330.752524 -57.895313 
L 332.245341 -57.895313 
L 333.738159 -57.895313 
L 335.230977 -57.895313 
L 336.723795 -57.895313 
L 338.216612 -57.895313 
L 339.70943 -57.895313 
L 341.202248 -57.895313 
L 342.695066 -57.895313 
L 344.187884 -57.895313 
L 345.680701 -57.895313 
L 347.173519 -57.895313 
L 348.666337 -57.895313 
L 350.159155 -57.895313 
L 350.159155 -58.787327 
L 350.159155 -58.787327 
L 348.666337 -58.935251 
L 347.173519 -59.10496 
L 345.680701 -59.299184 
L 344.187884 -59.520917 
L 342.695066 -59.773433 
L 341.202248 -60.060298 
L 339.70943 -60.385383 
L 338.216612 -60.752872 
L 336.723795 -61.167273 
L 335.230977 -61.633423 
L 333.738159 -62.156492 
L 332.245341 -62.741982 
L 330.752524 -63.395723 
L 329.259706 -64.123868 
L 327.766888 -64.932879 
L 326.27407 -65.829514 
L 324.781253 -66.8208 
L 323.288435 -67.914013 
L 321.795617 -69.116639 
L 320.302799 -70.436341 
L 318.809982 -71.880912 
L 317.317164 -73.458226 
L 315.824346 -75.176182 
L 314.331528 -77.042643 
L 312.838711 -79.065365 
L 311.345893 -81.25193 
L 309.853075 -83.609662 
L 308.360257 -86.145554 
L 306.86744 -88.866171 
L 305.374622 -91.777574 
L 303.881804 -94.885221 
L 302.388986 -98.19388 
L 300.896169 -101.707537 
L 299.403351 -105.429305 
L 297.910533 -109.36134 
L 296.417715 -113.504754 
L 294.924897 -117.859536 
L 293.43208 -122.424481 
L 291.939262 -127.197125 
L 290.446444 -132.173684 
L 288.953626 -137.349012 
L 287.460809 -142.716561 
L 285.967991 -148.268359 
L 284.475173 -153.994994 
L 282.982355 -159.885622 
L 281.489538 -165.927974 
L 279.99672 -172.108393 
L 278.503902 -178.411871 
L 277.011084 -184.822112 
L 275.518267 -191.321602 
L 274.025449 -197.891694 
L 272.532631 -204.51271 
L 271.039813 -211.164053 
L 269.546996 -217.824327 
L 268.054178 -224.471474 
L 266.56136 -231.082919 
L 265.068542 -237.635718 
L 263.575725 -244.10672 
L 262.082907 -250.472727 
L 260.590089 -256.710669 
L 259.097271 -262.797766 
L 257.604454 -268.711706 
L 256.111636 -274.430813 
L 254.618818 -279.934218 
L 253.126 -285.202021 
L 251.633182 -290.21546 
L 250.140365 -294.957059 
L 248.647547 -299.410783 
L 247.154729 -303.562178 
L 245.661911 -307.398507 
L 244.169094 -310.908869 
L 242.676276 -314.084317 
L 241.183458 -316.91796 
L 239.69064 -319.405055 
L 238.197823 -321.543086 
L 236.705005 -323.331832 
L 235.212187 -324.773418 
L 233.719369 -325.872358 
L 232.226552 -326.635577 
L 230.733734 -327.072422 
L 229.240916 -327.194653 
L 227.748098 -327.016422 
L 226.255281 -326.554227 
L 224.762463 -325.826857 
L 223.269645 -324.855308 
L 221.776827 -323.662681 
L 220.28401 -322.274067 
L 218.791192 -320.716399 
L 217.298374 -319.018285 
L 215.805556 -317.209825 
L 214.312738 -315.322395 
L 212.819921 -313.388419 
L 211.327103 -311.44111 
L 209.834285 -309.514192 
L 208.341467 -307.641611 
L 206.84865 -305.85721 
L 205.355832 -304.19441 
L 203.863014 -302.685856 
L 202.370196 -301.363069 
L 200.877379 -300.256081 
L 199.384561 -299.393076 
L 197.891743 -298.800022 
L 196.398925 -298.500318 
L 194.906108 -298.514449 
L 193.41329 -298.859658 
L 191.920472 -299.549639 
L 190.427654 -300.594258 
L 188.934837 -301.999311 
L 187.442019 -303.766309 
L 185.949201 -305.892319 
L 184.456383 -308.369845 
L 182.963566 -311.186758 
L 181.470748 -314.326292 
L 179.97793 -317.767081 
L 178.485112 -321.48327 
L 176.992295 -325.444679 
L 175.499477 -329.617026 
L 174.006659 -333.962215 
L 172.513841 -338.438672 
L 171.021023 -343.001745 
L 169.528206 -347.604145 
L 168.035388 -352.196439 
L 166.54257 -356.727574 
L 165.049752 -361.145439 
L 163.556935 -365.397448 
L 162.064117 -369.431143 
L 160.571299 -373.194797 
L 159.078481 -376.638027 
L 157.585664 -379.712383 
L 156.092846 -382.371931 
L 154.600028 -384.5738 
L 153.10721 -386.278696 
L 151.614393 -387.451367 
L 150.121575 -388.061025 
L 148.628757 -388.081701 
L 147.135939 -387.492546 
L 145.643122 -386.278059 
L 144.150304 -384.428243 
L 142.657486 -381.938696 
L 141.164668 -378.810622 
L 139.671851 -375.050773 
L 138.179033 -370.671321 
L 136.686215 -365.689657 
L 135.193397 -360.128135 
L 133.70058 -354.013749 
L 132.207762 -347.377761 
L 130.714944 -340.255286 
L 129.222126 -332.684832 
L 127.729308 -324.707813 
L 126.236491 -316.368039 
L 124.743673 -307.711192 
L 123.250855 -298.784294 
L 121.758037 -289.635177 
L 120.26522 -280.311962 
L 118.772402 -270.86256 
L 117.279584 -261.334188 
L 115.786766 -251.77292 
L 114.293949 -242.223271 
L 112.801131 -232.727821 
L 111.308313 -223.326879 
L 109.815495 -214.058198 
L 108.322678 -204.956729 
L 106.82986 -196.05443 
L 105.337042 -187.380119 
L 103.844224 -178.959374 
L 102.351407 -170.814484 
L 100.858589 -162.964432 
L 99.365771 -155.424934 
L 97.872953 -148.208501 
L 96.380136 -141.324544 
L 94.887318 -134.779505 
L 93.3945 -128.577015 
L 91.901682 -122.718073 
L 90.408865 -117.201241 
L 88.916047 -112.022856 
L 87.423229 -107.177246 
L 85.930411 -102.656953 
L 84.437593 -98.452959 
L 82.944776 -94.554911 
L 81.451958 -90.951335 
L 79.95914 -87.629847 
L 78.466322 -84.57736 
L 76.973505 -81.780266 
L 75.480687 -79.224617 
L 73.987869 -76.896287 
L 72.495051 -74.781118 
L 71.002234 -72.865054 
L 69.509416 -71.134253 
L 68.016598 -69.575196 
L 66.52378 -68.174766 
L 65.030963 -66.920322 
L 63.538145 -65.799756 
L 62.045327 -64.801541 
L 60.552509 -63.914757 
L 59.059692 -63.129119 
L 57.566874 -62.434986 
L 56.074056 -61.823365 
L 54.581238 -61.285904 
L 53.088421 -60.814885 
z
" style="stroke: #7a0177; stroke-width: 2.2"/>
    </defs>
    <g clip-path="url(#p57b5f1b011)">
     <use xlink:href="#m2806c11d32" x="0" y="415.534412" style="fill: #7a0177; fill-opacity: 0.35; stroke: #7a0177; stroke-width: 2.2"/>
    </g>
   </g>
   <g id="line2d_14">
    <path d="M 180.531545 357.639099 
L 180.531545 10.943391 
" clip-path="url(#p57b5f1b011)" style="fill: none; stroke-dasharray: 5.92,2.56; stroke-dashoffset: 0; stroke: #2c7fb8; stroke-width: 1.6"/>
   </g>
   <g id="line2d_15">
    <path d="M 179.124203 357.639099 
L 179.124203 10.943391 
" clip-path="url(#p57b5f1b011)" style="fill: none; stroke-dasharray: 5.92,2.56; stroke-dashoffset: 0; stroke: #7a0177; stroke-width: 1.6"/>
   </g>
   <g id="patch_3">
    <path d="M 62.117813 357.639099 
L 62.117813 12.210469 
" style="fill: none; stroke: #cccccc; stroke-width: 0.8; stroke-linejoin: miter; stroke-linecap: square"/>
   </g>
   <g id="patch_4">
    <path d="M 196.660938 367.639099 
L 612.881579 367.639099 
" style="fill: none; stroke: #cccccc; stroke-width: 0.8; stroke-linejoin: miter; stroke-linecap: square"/>
   </g>
   <g id="text_16">
    <g id="patch_5">
     <path d="M 168.854983 53.253423 
L 192.208108 53.253423 
Q 195.808108 53.253423 195.808108 49.653423 
L 195.808108 38.679048 
Q 195.808108 35.079048 192.208108 35.079048 
L 168.854983 35.079048 
Q 165.254983 35.079048 165.254983 38.679048 
L 165.254983 49.653423 
Q 165.254983 53.253423 168.854983 53.253423 
z
" style="fill: #2c7fb8"/>
    </g>
    <!-- 1.44 -->
    <g style="fill: #ffffff" transform="translate(168.854983 47.268423) scale(0.12 -0.12)">
     <defs>
      <path id="ArialMT-34" d="M 2069 0 
L 2069 1097 
L 81 1097 
L 81 1613 
L 2172 4581 
L 2631 4581 
L 2631 1613 
L 3250 1613 
L 3250 1097 
L 2631 1097 
L 2631 0 
L 2069 0 
z
M 2069 1613 
L 2069 3678 
L 634 1613 
L 2069 1613 
z
" transform="scale(0.015625)"/>
     </defs>
     <use xlink:href="#ArialMT-31"/>
     <use xlink:href="#ArialMT-2e" transform="translate(55.615234 0)"/>
     <use xlink:href="#ArialMT-34" transform="translate(83.398438 0)"/>
     <use xlink:href="#ArialMT-34" transform="translate(139.013672 0)"/>
    </g>
   </g>
   <g id="text_17">
    <g id="patch_6">
     <path d="M 167.447641 94.856908 
L 190.800766 94.856908 
Q 194.400766 94.856908 194.400766 91.256908 
L 194.400766 80.282533 
Q 194.400766 76.682533 190.800766 76.682533 
L 167.447641 76.682533 
Q 163.847641 76.682533 163.847641 80.282533 
L 163.847641 91.256908 
Q 163.847641 94.856908 167.447641 94.856908 
z
" style="fill: #7a0177"/>
    </g>
    <!-- 1.44 -->
    <g style="fill: #ffffff" transform="translate(167.447641 88.871908) scale(0.12 -0.12)">
     <use xlink:href="#ArialMT-31"/>
     <use xlink:href="#ArialMT-2e" transform="translate(55.615234 0)"/>
     <use xlink:href="#ArialMT-34" transform="translate(83.398438 0)"/>
     <use xlink:href="#ArialMT-34" transform="translate(139.013672 0)"/>
    </g>
   </g>
   <g id="legend_1">
    <g id="patch_7">
     <path d="M 527.954687 62.419641 
L 687.112813 62.419641 
Q 689.912812 62.419641 689.912812 59.619641 
L 689.912812 20.743391 
Q 689.912812 17.943391 687.112813 17.943391 
L 527.954687 17.943391 
Q 525.154687 17.943391 525.154687 20.743391 
L 525.154687 59.619641 
Q 525.154687 62.419641 527.954687 62.419641 
z
" style="fill: #ffffff; opacity: 0.9; stroke: #333333; stroke-linejoin: miter"/>
    </g>
    <g id="patch_8">
     <path d="M 530.754687 33.734954 
L 558.754687 33.734954 
L 558.754687 23.934954 
L 530.754687 23.934954 
z
" style="fill: #2c7fb8; fill-opacity: 0.35; stroke: #2c7fb8; stroke-width: 2.2; stroke-linejoin: miter"/>
    </g>
    <g id="text_18">
     <!-- Active Users (KM) -->
     <g style="fill: #262626" transform="translate(569.954687 33.734954) scale(0.14 -0.14)">
      <defs>
       <path id="ArialMT-41" d="M -9 0 
L 1750 4581 
L 2403 4581 
L 4278 0 
L 3588 0 
L 3053 1388 
L 1138 1388 
L 634 0 
L -9 0 
z
M 1313 1881 
L 2866 1881 
L 2388 3150 
Q 2169 3728 2063 4100 
Q 1975 3659 1816 3225 
L 1313 1881 
z
" transform="scale(0.015625)"/>
       <path id="ArialMT-76" d="M 1344 0 
L 81 3319 
L 675 3319 
L 1388 1331 
Q 1503 1009 1600 663 
Q 1675 925 1809 1294 
L 2547 3319 
L 3125 3319 
L 1869 0 
L 1344 0 
z
" transform="scale(0.015625)"/>
       <path id="ArialMT-55" d="M 3500 4581 
L 4106 4581 
L 4106 1934 
Q 4106 1244 3950 837 
Q 3794 431 3386 176 
Q 2978 -78 2316 -78 
Q 1672 -78 1262 144 
Q 853 366 678 786 
Q 503 1206 503 1934 
L 503 4581 
L 1109 4581 
L 1109 1938 
Q 1109 1341 1220 1058 
Q 1331 775 1601 622 
Q 1872 469 2263 469 
Q 2931 469 3215 772 
Q 3500 1075 3500 1938 
L 3500 4581 
z
" transform="scale(0.015625)"/>
      </defs>
      <use xlink:href="#ArialMT-41"/>
      <use xlink:href="#ArialMT-63" transform="translate(66.699219 0)"/>
      <use xlink:href="#ArialMT-74" transform="translate(116.699219 0)"/>
      <use xlink:href="#ArialMT-69" transform="translate(144.482422 0)"/>
      <use xlink:href="#ArialMT-76" transform="translate(166.699219 0)"/>
      <use xlink:href="#ArialMT-65" transform="translate(216.699219 0)"/>
      <use xlink:href="#ArialMT-20" transform="translate(272.314453 0)"/>
      <use xlink:href="#ArialMT-55" transform="translate(300.097656 0)"/>
      <use xlink:href="#ArialMT-73" transform="translate(372.314453 0)"/>
      <use xlink:href="#ArialMT-65" transform="translate(422.314453 0)"/>
      <use xlink:href="#ArialMT-72" transform="translate(477.929688 0)"/>
      <use xlink:href="#ArialMT-73" transform="translate(511.230469 0)"/>
      <use xlink:href="#ArialMT-20" transform="translate(561.230469 0)"/>
      <use xlink:href="#ArialMT-28" transform="translate(589.013672 0)"/>
      <use xlink:href="#ArialMT-4b" transform="translate(622.314453 0)"/>
      <use xlink:href="#ArialMT-4d" transform="translate(689.013672 0)"/>
      <use xlink:href="#ArialMT-29" transform="translate(772.314453 0)"/>
     </g>
    </g>
    <g id="patch_9">
     <path d="M 530.754687 53.873079 
L 558.754687 53.873079 
L 558.754687 44.073079 
L 530.754687 44.073079 
z
" style="fill: #7a0177; fill-opacity: 0.35; stroke: #7a0177; stroke-width: 2.2; stroke-linejoin: miter"/>
    </g>
    <g id="text_19">
     <!-- Coordinators (KM) -->
     <g style="fill: #262626" transform="translate(569.954687 53.873079) scale(0.14 -0.14)">
      <defs>
       <path id="ArialMT-43" d="M 3763 1606 
L 4369 1453 
Q 4178 706 3683 314 
Q 3188 -78 2472 -78 
Q 1731 -78 1267 223 
Q 803 525 561 1097 
Q 319 1669 319 2325 
Q 319 3041 592 3573 
Q 866 4106 1370 4382 
Q 1875 4659 2481 4659 
Q 3169 4659 3637 4309 
Q 4106 3959 4291 3325 
L 3694 3184 
Q 3534 3684 3231 3912 
Q 2928 4141 2469 4141 
Q 1941 4141 1586 3887 
Q 1231 3634 1087 3207 
Q 944 2781 944 2328 
Q 944 1744 1114 1308 
Q 1284 872 1643 656 
Q 2003 441 2422 441 
Q 2931 441 3284 734 
Q 3638 1028 3763 1606 
z
" transform="scale(0.015625)"/>
      </defs>
      <use xlink:href="#ArialMT-43"/>
      <use xlink:href="#ArialMT-6f" transform="translate(72.216797 0)"/>
      <use xlink:href="#ArialMT-6f" transform="translate(127.832031 0)"/>
      <use xlink:href="#ArialMT-72" transform="translate(183.447266 0)"/>
      <use xlink:href="#ArialMT-64" transform="translate(216.748047 0)"/>
      <use xlink:href="#ArialMT-69" transform="translate(272.363281 0)"/>
      <use xlink:href="#ArialMT-6e" transform="translate(294.580078 0)"/>
      <use xlink:href="#ArialMT-61" transform="translate(350.195312 0)"/>
      <use xlink:href="#ArialMT-74" transform="translate(405.810547 0)"/>
      <use xlink:href="#ArialMT-6f" transform="translate(433.59375 0)"/>
      <use xlink:href="#ArialMT-72" transform="translate(489.208984 0)"/>
      <use xlink:href="#ArialMT-73" transform="translate(522.509766 0)"/>
      <use xlink:href="#ArialMT-20" transform="translate(572.509766 0)"/>
      <use xlink:href="#ArialMT-28" transform="translate(600.292969 0)"/>
      <use xlink:href="#ArialMT-4b" transform="translate(633.59375 0)"/>
      <use xlink:href="#ArialMT-4d" transform="translate(700.292969 0)"/>
      <use xlink:href="#ArialMT-29" transform="translate(783.59375 0)"/>
     </g>
    </g>
   </g>
  </g>
 </g>
 <defs>
  <clipPath id="p57b5f1b011">
   <rect x="72.117813" y="10.943391" width="624.795" height="346.695708"/>
  </clipPath>
 </defs>
</svg>
